<svg width="45" height="44" viewBox="0 0 45 44" fill="none" xmlns="http://www.w3.org/2000/svg">
<g clip-path="url(#clip0_863_304)">
<path d="M-0.0016181 21.7186C-0.0016181 16.6871 -0.0016181 11.6556 -0.0016181 6.61721C0.0404642 2.14171 2.10249 0.041214 6.61231 0.0274854C17.1376 -0.0182764 27.6581 -0.0182764 38.174 0.0274854C42.74 0.0274854 44.8932 2.0868 44.9142 6.49366C44.961 16.7855 44.961 27.0819 44.9142 37.3829C44.9142 41.8447 42.8101 43.9589 38.3003 43.9795C27.775 44.0206 17.2544 44.0206 6.73855 43.9795C2.06742 43.9795 0.0194093 41.8584 -0.0156592 37.1701C-0.0226729 32.0082 -0.0016181 26.86 -0.0016181 21.7186ZM1.99727 22C1.99727 27.2581 1.99727 32.5161 1.99727 37.7879C1.99727 40.5954 3.40004 42.0437 6.26865 42.0437C17.023 42.0437 27.7774 42.0437 38.5317 42.0437C41.6037 42.0437 42.9924 40.5679 42.9854 37.5957C42.9574 27.1986 42.9574 16.7969 42.9854 6.39068C42.9854 3.42531 41.6178 1.95635 38.5317 1.96322C27.8943 1.99067 17.2545 1.99067 6.61231 1.96322C3.34392 1.96322 1.94119 3.44592 1.97625 6.57603C2.03938 11.7105 1.99026 16.8518 1.99727 22Z" fill="white" style="fill:white;fill-opacity:1;"/>
<path d="M27.2256 13.6393C24.3009 13.6393 21.3761 13.6393 18.4514 13.6393C16.179 13.6393 14.4396 12.7057 14.4676 10.2826C14.4957 7.85955 16.2561 6.99466 18.5216 6.98779C24.371 6.98779 30.2204 6.98779 36.0559 6.98779C38.2932 6.98779 40.0537 7.85956 40.0256 10.3376C39.9975 12.8156 38.209 13.5981 35.9787 13.6255C33.054 13.6736 30.1503 13.6393 27.2256 13.6393ZM27.3588 11.683C30.2625 11.683 33.1802 11.7722 36.0769 11.6212C36.7782 11.6212 37.3814 10.7426 38.0267 10.2483C37.4656 9.80901 36.9115 8.99905 36.3434 8.98532C30.2976 8.8938 24.2494 8.8938 18.1989 8.98532C17.5887 8.98532 16.9926 9.7541 16.3964 10.166C17.0206 10.6602 17.6308 11.5388 18.2901 11.5937C21.306 11.7722 24.3359 11.6692 27.3588 11.6692V11.683Z" fill="white" style="fill:white;fill-opacity:1;"/>
<path d="M27.05 18.6775C30.0939 18.6775 33.1379 18.6363 36.1678 18.6775C38.4332 18.7187 40.1095 19.6522 40.0394 22.1096C39.9693 24.3817 38.3281 25.2534 36.2309 25.274C30.2646 25.3198 24.2959 25.3198 18.3249 25.274C16.0314 25.274 14.3832 24.2375 14.4533 21.8419C14.5165 19.6179 16.1296 18.6981 18.2618 18.6706C21.2005 18.65 24.1253 18.6775 27.05 18.6775ZM27.6321 20.6132C24.6022 20.6132 21.5723 20.5377 18.5564 20.675C17.8199 20.675 17.1115 21.4438 16.3961 21.8625C17.0975 22.3636 17.869 23.2971 18.6195 23.3109C24.4409 23.4344 30.2552 23.4207 36.0696 23.3109C36.7289 23.3109 37.3742 22.4322 38.0265 21.938C37.3251 21.485 36.7009 20.6887 35.9995 20.6544C33.2221 20.5308 30.4236 20.5926 27.6321 20.5926V20.6132Z" fill="white" style="fill:white;fill-opacity:1;"/>
<path d="M27.0852 37.0124C24.1605 37.0124 21.2287 37.0535 18.304 37.0124C16.0035 36.9712 14.3763 35.9278 14.4675 33.5185C14.5517 31.2944 16.1859 30.3815 18.311 30.3746C24.2774 30.3426 30.246 30.3426 36.2171 30.3746C38.3212 30.3746 39.9624 31.2395 40.0535 33.5116C40.1447 35.9827 38.4825 36.9437 36.21 36.9987C33.1731 37.0673 30.1291 37.0124 27.0852 37.0124ZM26.9449 35.0561C29.9678 35.0561 32.9977 35.1315 36.0136 34.9943C36.715 34.9599 37.3603 34.1499 38.0266 33.7038C37.3743 33.237 36.7221 32.379 36.0558 32.3721C30.1315 32.2668 24.2002 32.2668 18.2619 32.3721C17.6307 32.3721 17.0135 33.3194 16.3893 33.8274C16.9995 34.2324 17.5956 34.9599 18.2198 34.9874C21.1305 35.1178 24.0342 35.0492 26.9449 35.0561Z" fill="white" style="fill:white;fill-opacity:1;"/>
<path d="M11.9076 10.9072C10.6591 11.7995 9.30549 13.5018 8.19031 13.3645C7.07513 13.2273 5.31471 11.4632 5.1043 10.2139C4.95701 9.33524 6.85072 7.33774 7.95187 7.25537C9.18628 7.16613 10.5469 8.62823 11.8585 9.45194L11.9076 10.9072Z" fill="white" style="fill:white;fill-opacity:1;"/>
<path d="M11.8866 22.6862C10.6171 23.5511 9.2214 25.226 8.11323 25.0544C6.89285 24.8691 5.30776 23.0844 5.10436 21.8213C4.98513 20.9358 6.92792 18.9933 8.02907 18.9315C9.26349 18.8697 10.5891 20.4004 11.8796 21.231L11.8866 22.6862Z" fill="white" style="fill:white;fill-opacity:1;"/>
<path d="M11.8445 34.5618C10.5399 35.3581 9.16523 36.8408 7.93081 36.7378C6.83667 36.6417 4.957 34.6786 5.12533 33.7656C5.33574 32.5163 7.01201 30.7728 8.22538 30.6286C9.43875 30.4845 10.6872 32.2074 11.9286 33.0997L11.8445 34.5618Z" fill="white" style="fill:white;fill-opacity:1;"/>
</g>
<defs>
<clipPath id="clip0_863_304">
<rect width="45" height="44" fill="white" style="fill:white;fill-opacity:1;" transform="translate(-0.00878906)"/>
</clipPath>
</defs>
</svg>
