<svg width="43" height="42" viewBox="0 0 43 42" fill="none" xmlns="http://www.w3.org/2000/svg">
<g clip-path="url(#clip0_877_129)">
<path d="M29.6206 7.38522C27.2396 7.38522 24.8587 7.38522 22.4706 7.38522C19.6678 7.38522 17.151 7.07839 15.1704 10.2395C13.4401 12.9795 8.73549 12.53 6.805 9.72569C5.5609 7.93466 4.34538 7.18543 2.22183 7.34241C1.50684 7.39949 0.734635 6.62884 -0.0161133 6.19357C0.627385 5.67981 1.31379 4.6951 1.91439 4.76646C4.29534 4.94484 5.64667 3.97441 7.08381 2.06921C7.61157 1.41723 8.28411 0.896763 9.04823 0.548979C9.81234 0.201195 10.6471 0.0356537 11.4864 0.06542C12.3257 0.0951863 13.1465 0.319449 13.884 0.720487C14.6214 1.12152 15.2553 1.68834 15.7353 2.37605C17.0938 4.4311 18.5953 4.73078 20.7403 4.70224C27.1658 4.61661 33.6007 4.61661 40.0453 4.70224C41.0391 4.70224 42.0187 5.46575 43.0054 5.87248C42.0044 6.38624 41.0248 7.2996 40.0024 7.34241C36.506 7.49939 33.074 7.38522 29.6206 7.38522Z" fill="white" style="fill:white;fill-opacity:1;"/>
<path d="M13.3544 22.3699C9.77937 22.3699 6.20438 22.4698 2.62939 22.2986C1.72849 22.2557 0.870485 21.3353 -0.0161133 20.8215C0.856185 20.4148 1.72135 19.6655 2.59365 19.6584C9.25743 19.5585 15.9284 19.5157 22.6136 19.6584C23.5299 19.7528 24.454 19.5798 25.2738 19.1606C26.0936 18.7414 26.774 18.0939 27.2325 17.2965C29.2703 14.3709 33.8033 14.1997 35.8983 17.0111C37.3283 18.9306 38.6939 19.8653 41.0749 19.7012C41.6755 19.6513 42.3547 20.636 42.9982 21.1283C42.369 21.5351 41.7041 22.32 41.1106 22.2772C38.7654 22.1059 37.3569 22.9479 35.9197 24.9244C35.4022 25.5875 34.7355 26.1195 33.9735 26.4775C33.2116 26.8355 32.3759 27.0094 31.5341 26.9851C30.6924 26.9608 29.8682 26.7389 29.1283 26.3375C28.3884 25.9361 27.7536 25.3665 27.2754 24.6747C25.8454 22.427 24.1294 22.27 21.9343 22.3343C19.0744 22.4127 16.2144 22.3699 13.3544 22.3699Z" fill="white" style="fill:white;fill-opacity:1;"/>
<path d="M29.7065 37.3547C27.204 37.3547 24.7016 37.3547 22.2062 37.3547C19.5107 37.3547 17.1297 37.1192 15.2421 40.1161C13.5047 42.8776 8.89297 42.4709 6.85522 39.7379C5.61827 38.0896 4.5529 37.005 2.31496 37.2619C1.59996 37.3475 0.770559 36.3628 -0.00878906 35.8348C0.706209 35.4066 1.47841 34.5932 2.18626 34.636C4.27406 34.7573 5.51816 34.0937 6.79085 32.2813C7.30877 31.5436 8.00067 30.9445 8.80549 30.5369C9.61032 30.1293 10.5033 29.9257 11.4057 29.944C12.308 29.9623 13.192 30.2021 13.9795 30.6421C14.7671 31.082 15.434 31.7087 15.9214 32.4668C17.1297 34.2935 18.4024 34.6075 20.29 34.6075C26.8394 34.5432 33.3888 34.5218 39.931 34.6503C40.9535 34.6503 41.9616 35.585 42.9841 36.0774C42.0117 36.4984 41.0536 37.2476 40.0597 37.2904C36.6134 37.4474 33.16 37.3547 29.7065 37.3547Z" fill="white" style="fill:white;fill-opacity:1;"/>
</g>
<defs>
<clipPath id="clip0_877_129">
<rect width="43" height="42" fill="white" style="fill:white;fill-opacity:1;" transform="translate(-0.00878906)"/>
</clipPath>
</defs>
</svg>
