<svg width="45" height="61" viewBox="0 0 45 61" fill="none" xmlns="http://www.w3.org/2000/svg">
<path d="M15.2623 40.9225C20.7259 28.8261 26.1937 16.7205 31.6572 4.62409C32.8593 1.9627 34.1113 -0.231075 37.3224 0.685256C41.1258 1.78005 42.0009 3.91101 40.1351 8.08621C34.6549 20.2195 29.1746 32.3528 23.1726 45.6413C28.5953 43.3286 33.0836 41.484 37.5303 39.487C40.6004 38.0922 43.1907 37.2705 44.5614 41.5502C45.9321 45.8298 43.9797 47.2844 40.6719 48.6943C32.3904 52.208 24.1381 55.8276 15.9149 59.5531C12.3734 61.169 10.4093 60.4043 9.20939 56.6135C6.48894 47.6743 3.60999 38.797 0.701831 29.94C-0.356439 26.7249 0.365824 24.6145 3.60696 23.1968C6.8481 21.7791 8.62444 22.8039 9.51169 26.1086C10.878 31.1762 12.3026 36.2701 13.7106 41.2675L15.2623 40.9225Z" fill="white"/>
</svg>
