<svg width="46" height="61" viewBox="0 0 46 61" fill="none" xmlns="http://www.w3.org/2000/svg">
<path d="M30.2182 40.9225C24.7546 28.8261 19.2868 16.7205 13.8232 4.62409C12.6211 1.9627 11.3692 -0.231075 8.15805 0.685256C4.35472 1.78005 3.47959 3.91101 5.34532 8.08621C10.8256 20.2195 16.3059 32.3528 22.3079 45.6413C16.8852 43.3286 12.3969 41.484 7.95018 39.487C4.88005 38.0922 2.28975 37.2705 0.919039 41.5502C-0.451677 45.8298 1.50072 47.2844 4.80859 48.6943C13.0901 52.208 21.3424 55.8276 29.5655 59.5531C33.107 61.169 35.0712 60.4043 36.2711 56.6135C38.9915 47.6743 41.8705 38.797 44.7786 29.94C45.8369 26.7249 45.1146 24.6145 41.8735 23.1968C38.6324 21.7791 36.856 22.8039 35.9688 26.1086C34.6025 31.1762 33.1778 36.2701 31.7698 41.2675L30.2182 40.9225Z" fill="white"/>
</svg>
