
<svg width="53" height="52" viewBox="0 0 53 52" fill="none" xmlns="http://www.w3.org/2000/svg">
<g clip-path="url(#clip0_1539_419)">
<path d="M26.3731 0.024605C32.1262 0.024605 37.8794 -0.0247309 43.6325 0.024605C49.3856 0.0739409 52.2704 2.7874 52.3032 8.54325C52.38 20.1865 52.38 31.8325 52.3032 43.4813C52.3032 49.2371 49.4513 51.9341 43.5913 51.9588C32.0851 52.0081 20.5789 52.0081 9.07262 51.9588C3.23731 51.9588 0.434727 49.196 0.401852 43.4402C0.336102 31.7969 0.336102 20.1509 0.401852 8.50215C0.401852 2.7463 3.25379 0.0821635 9.11375 0.024605C14.9737 -0.0329535 20.62 0.024605 26.3731 0.024605ZM20.4309 31.5995C20.4309 34.2061 20.4885 36.8127 20.4309 39.411C20.3405 42.5521 22.2473 42.7906 24.7211 42.8317C27.195 42.8728 28.5593 42.2314 28.4114 39.3946C28.2634 36.5578 28.0415 33.5566 28.6579 30.8184C29.0113 29.2643 31.0002 28.0803 32.2495 26.7071C33.1864 28.1625 34.7151 29.5357 34.9535 31.1062C35.3973 34.0499 35.1179 37.1087 35.1014 40.1511C35.085 43.1935 37.2547 42.7494 39.145 42.7659C41.0353 42.7823 43.1476 43.0783 43.0982 40.0771C43.0325 35.9658 43.2791 31.8544 42.9914 27.7431C42.564 21.7241 38.4629 18.8627 32.496 19.8329C30.4653 20.1357 28.403 20.1634 26.3649 19.9152C21.4336 19.3643 20.4885 20.0878 20.4309 25.0214C20.4145 27.2169 20.4309 29.4123 20.4309 31.5995ZM18.442 31.3446C18.442 28.7627 18.3187 26.1644 18.442 23.5907C18.6228 20.6388 17.2092 19.8576 14.5134 19.8905C11.8177 19.9234 10.3465 20.4414 10.4041 23.4756C10.5191 28.7819 10.5191 34.0883 10.4041 39.3946C10.3219 42.5768 12.1465 42.8152 14.6039 42.8152C17.0613 42.8152 18.5817 42.4205 18.4338 39.5262C18.3269 36.8127 18.442 34.0663 18.442 31.3446ZM14.5134 19.0107C17.2256 18.616 19.231 17.3661 19.2639 14.1429C19.2639 11.2321 17.7927 9.49708 14.8833 9.31618C11.8095 9.11884 9.89451 10.7469 9.70548 13.7975C9.51645 16.8481 11.3656 18.468 14.5134 18.986V19.0107Z" fill="#0077B5"/>
<path d="M20.4309 31.5997C20.4309 29.4125 20.4309 27.2171 20.4309 25.0216C20.4885 20.088 21.4419 19.3645 26.3649 19.9154C28.403 20.1636 30.4653 20.1359 32.496 19.8331C38.4628 18.8628 42.564 21.7243 42.9914 27.7433C43.279 31.8546 42.9914 35.9659 43.0982 40.0773C43.1475 43.0785 41.06 42.7825 39.145 42.7661C37.2301 42.7496 35.085 43.169 35.1014 40.1513C35.1179 37.1336 35.3973 34.0748 34.9535 31.1064C34.7151 29.5359 33.1864 28.1627 32.2495 26.7073C31.0002 28.0558 29.0113 29.2399 28.6579 30.8186C28.0415 33.5568 28.2552 36.5333 28.4113 39.3948C28.5675 42.2563 27.2607 42.873 24.7211 42.8319C22.1815 42.7908 20.3405 42.5523 20.4309 39.4112C20.5049 36.8129 20.4309 34.2063 20.4309 31.5997Z" fill="white"/>
<path d="M18.4415 31.3447C18.4415 34.0663 18.3264 36.7963 18.4415 39.5098C18.5894 42.4206 16.9868 42.7988 14.6116 42.7988C12.2363 42.7988 10.3296 42.5604 10.4117 39.3782C10.5323 34.0773 10.5323 28.771 10.4117 23.4592C10.346 20.425 11.9404 19.8988 14.5211 19.8741C17.1018 19.8494 18.6305 20.6224 18.4497 23.5743C18.3182 26.1644 18.4415 28.7627 18.4415 31.3447Z" fill="white"/>
<path d="M14.5126 18.9861C11.3648 18.4681 9.5156 16.8482 9.70463 13.773C9.89366 10.6977 11.8086 9.09432 14.8824 9.29167C17.7919 9.47256 19.2877 11.2075 19.263 14.1184C19.2302 17.3334 17.2576 18.5915 14.5126 18.9861Z" fill="white"/>
</g>
<defs>
<clipPath id="clip0_1539_419">
<rect width="52" height="52" fill="white" transform="translate(0.360352)"/>
</clipPath>
</defs>
</svg>
