<svg width="50" height="50" viewBox="0 0 50 50" fill="none" xmlns="http://www.w3.org/2000/svg">
<g clip-path="url(#clip0_1525_351)">
<path d="M7.57009 42.3024C2.77009 36.7324 0.120094 30.3025 0.820094 22.7025C1.38759 16.535 4.27356 10.8125 8.89559 6.68982C13.5176 2.56718 19.5315 0.351418 25.7235 0.489751C31.9154 0.628083 37.8244 3.11024 42.2577 7.43518C46.691 11.7601 49.3186 17.6058 49.6101 23.7925C49.9975 30.0267 47.9392 36.1663 43.8723 40.9072C39.8055 45.6481 34.0506 48.6167 27.83 49.1824C22.36 49.6724 16.83 49.4824 11.33 49.4924C4.36004 49.5024 3.87009 48.6024 7.57009 42.3024ZM12.7001 45.8024C16.1301 45.8024 20.8001 45.9724 25.4501 45.8024C36.1501 45.3324 44.0501 38.2524 45.7601 27.8024C47.2201 18.9224 41.9801 9.64245 33.4101 5.94245C29.0883 4.07444 24.2599 3.73096 19.7173 4.96839C15.1746 6.20582 11.1874 8.95065 8.41006 12.7524C2.41006 20.9824 3.19009 31.3025 10.1301 39.4225C11.3001 40.7925 11.5801 42.9324 12.7001 45.8024Z" fill="white"/>
<path d="M13.7097 28.5524C15.6593 28.5524 17.2397 26.972 17.2397 25.0224C17.2397 23.0729 15.6593 21.4924 13.7097 21.4924C11.7601 21.4924 10.1797 23.0729 10.1797 25.0224C10.1797 26.972 11.7601 28.5524 13.7097 28.5524Z" fill="white"/>
<path d="M25.1804 28.5524C27.13 28.5524 28.7104 26.972 28.7104 25.0224C28.7104 23.0729 27.13 21.4924 25.1804 21.4924C23.2308 21.4924 21.6504 23.0729 21.6504 25.0224C21.6504 26.972 23.2308 28.5524 25.1804 28.5524Z" fill="white"/>
<path d="M36.6501 28.5524C38.5997 28.5524 40.1801 26.972 40.1801 25.0224C40.1801 23.0729 38.5997 21.4924 36.6501 21.4924C34.7006 21.4924 33.1201 23.0729 33.1201 25.0224C33.1201 26.972 34.7006 28.5524 36.6501 28.5524Z" fill="white"/>
</g>
<defs>
<clipPath id="clip0_1525_351">
<rect width="48.94" height="49" fill="white" transform="translate(0.709961 0.522461)"/>
</clipPath>
</defs>
</svg>

