<svg width="63" height="64" viewBox="0 0 63 64" fill="none" xmlns="http://www.w3.org/2000/svg">
<g clip-path="url(#clip0_1525_347)">
<path d="M15.66 40.7973V61.8972L17.11 61.9873C17.25 60.4973 17.49 58.9873 17.5 57.5073C17.5 48.5073 17.64 39.5073 17.5 30.5073C17.43 27.1573 18.24 25.5072 21.9 25.8472C24.51 26.0872 27.15 25.8972 30.53 25.8972V61.8972L31.92 61.9973C32.1939 60.8936 32.3812 59.7702 32.48 58.6373C32.54 52.4673 32.62 46.2973 32.48 40.1373C32.4 37.2873 33.48 36.1372 36.26 36.3972C36.59 36.3972 36.92 36.3972 37.26 36.3972C46.84 36.3972 45.31 35.7373 45.4 44.2473C45.46 50.1273 45.4 56.0073 45.4 61.8873H47.09V21.5272C51.21 21.5272 54.55 21.1572 57.72 21.7272C58.81 21.9272 60.19 24.4473 60.22 25.9373C60.44 36.5973 60.22 47.2673 60.42 57.9373C60.42 59.7773 61.63 61.5873 62.37 63.6873H0.709961C1.33996 61.3573 2.32 59.0972 2.5 56.7672C2.77999 52.9423 2.77999 49.1021 2.5 45.2772C2.25 41.7072 3.66998 40.4873 7.09998 40.7573C9.69998 40.9573 12.32 40.7973 15.66 40.7973ZM57.9 61.8573V24.0172H49.9V61.8472L57.9 61.8573ZM20.05 28.2373V61.8472H27.99V28.2373H20.05ZM42.82 61.9173V38.4973L34.89 38.8673V61.8673L42.82 61.9173ZM13.08 61.9173V43.3173H5.08002V61.8873L13.08 61.9173Z" fill="white"/>
<path d="M48.5498 6.32714C48.5498 2.82714 50.2099 0.467135 53.7599 0.327135C54.477 0.249615 55.2024 0.336055 55.8812 0.580004C56.56 0.823953 57.1745 1.219 57.6783 1.73528C58.182 2.25155 58.5619 2.87556 58.7891 3.56017C59.0163 4.24477 59.0849 4.97209 58.9898 5.68712C58.7999 9.17712 56.5399 10.8671 52.8799 10.6871C49.0099 10.4871 44.0199 15.6871 44.1399 19.6871C44.2399 23.0271 42.6399 25.6871 39.4499 25.4071C37.4499 25.2371 34.5099 23.0671 33.8699 21.1671C31.4299 13.8471 23.8698 11.5371 18.3398 16.9671C16.0898 19.1871 13.3398 20.9071 13.9798 25.1571C14.1798 26.5071 10.6898 29.7171 8.91984 29.6871C7.14984 29.6571 4.44986 26.7971 4.05986 24.7971C3.43986 21.6771 5.89984 19.6571 9.22984 19.4971C14.5198 19.2371 18.0099 15.2671 18.8899 9.95708C19.2199 7.95708 21.8898 5.06708 23.6598 4.95708C25.4298 4.84708 28.6598 7.50712 28.9598 9.30712C29.6398 13.8071 32.2798 16.1371 35.9598 15.8971C44.0498 15.3871 48.6698 11.4171 48.5498 6.32714ZM53.6899 1.19713C52.3099 3.30713 50.7498 4.65712 50.9098 5.74712C51.0698 6.83712 52.9099 8.15709 54.1799 8.34709C54.9199 8.45709 56.7298 6.50713 56.6698 5.57714C56.5498 4.33714 55.1499 3.19713 53.6999 1.19713H53.6899ZM28.3398 9.79711C26.3398 8.40711 25.0999 6.97713 23.8699 6.94713C22.8699 6.94713 20.9899 8.81708 21.1299 9.51708C21.3899 10.7871 22.7799 12.5171 23.8799 12.7171C24.9799 12.9171 26.2798 11.2671 28.3398 9.79711ZM9.16984 29.0571C10.5498 26.9671 12.1698 25.6071 11.9598 24.5471C11.7498 23.4871 9.95987 22.0971 8.69987 21.8971C7.95987 21.7771 6.12985 23.7371 6.17985 24.6871C6.23985 25.9371 7.70984 27.0871 9.16984 29.0871V29.0571ZM43.2599 20.7971C41.2599 19.1771 40.0499 17.4471 38.9898 17.5371C37.9298 17.6271 36.4398 19.2771 35.9898 20.5371C35.7898 21.1171 37.5899 23.1371 38.5699 23.1971C39.7799 23.3071 41.0699 22.0271 43.2599 20.7971Z" fill="white"/>
</g>
<defs>
<clipPath id="clip0_1525_347">
<rect width="61.62" height="63.31" fill="white" transform="translate(0.709961 0.367188)"/>
</clipPath>
</defs>
</svg>
