<svg width="13" height="13" viewBox="0 0 13 13" fill="none" xmlns="http://www.w3.org/2000/svg">
<path d="M6.32179 0.280762C7.53775 0.280765 8.72642 0.641171 9.73763 1.31645C10.7488 1.99172 11.5372 2.95157 12.0032 4.07471C12.4691 5.19785 12.5917 6.43389 12.3554 7.62668C12.1192 8.81946 11.5347 9.91547 10.6759 10.7762C9.81698 11.637 8.72227 12.2238 7.53 12.4627C6.33773 12.7015 5.10142 12.5816 3.97726 12.1182C2.8531 11.6547 1.89153 10.8684 1.21405 9.85867C0.53657 8.84894 0.173573 7.66105 0.170913 6.4451C0.169144 5.63622 0.326931 4.83494 0.635249 4.08713C0.943567 3.33931 1.39636 2.65966 1.9677 2.08707C2.53903 1.51448 3.2177 1.06021 3.96484 0.750254C4.71197 0.440302 5.51291 0.28076 6.32179 0.280762ZM6.32179 3.12939C5.71439 3.44462 5.25308 3.60032 4.91478 3.89825C4.75332 4.03664 4.82443 4.44414 4.79176 4.72862C5.03203 4.68825 5.27037 4.63059 5.51256 4.6056C5.93736 4.56331 6.366 4.53833 6.79272 4.50565C6.64856 4.87855 6.51785 5.25529 6.35639 5.62049C6.1488 6.09334 5.89123 6.54697 5.72016 7.03328C5.68748 7.12938 5.93928 7.44077 6.0796 7.45423C6.21992 7.46768 6.46404 7.287 6.56591 7.13323C6.84264 6.7645 7.07973 6.36763 7.27326 5.94919C7.50968 5.39945 7.94217 4.71132 7.77879 4.27307C7.60579 3.78292 6.85038 3.50805 6.32948 3.12939H6.32179ZM6.97148 8.74591C6.58705 8.44413 6.36984 8.15773 6.13919 8.13851C5.94697 8.12506 5.56254 8.46144 5.57792 8.59791C5.61444 8.84779 5.85086 9.19954 6.06807 9.25336C6.28527 9.30718 6.5486 9.00348 6.97916 8.74591H6.97148Z" fill="black"/>
</svg>
