<svg width="25" height="21" viewBox="0 0 25 21" fill="none" xmlns="http://www.w3.org/2000/svg">
<path d="M17.5074 12.5911C12.6561 12.5911 7.80115 12.5911 2.94989 12.5911C1.88254 12.5911 0.963443 12.4947 0.785551 11.1568C0.57801 9.57064 1.15616 8.89243 2.8276 8.88501C7.69369 8.88501 12.5598 8.88501 17.8891 8.88501C16.3029 7.26916 15.0132 5.92015 13.679 4.6119C12.7525 3.71133 12.0891 2.89229 13.3084 1.67299C14.5277 0.453685 15.306 0.931771 16.2733 1.91759C18.6896 4.38831 21.1369 6.83061 23.615 9.2445C24.6861 10.2822 24.7268 11.1346 23.6446 12.2094C21.0763 14.7036 18.5525 17.2459 16.0398 19.7957C15.1281 20.7222 14.3164 20.8075 13.3566 19.8476C12.3967 18.8877 12.4708 18.0613 13.4381 17.1829C14.9205 15.8339 16.403 14.459 17.8558 13.1062L17.5074 12.5911Z" fill="black"/>
</svg>
