<svg width="40" height="39" viewBox="0 0 40 39" fill="none" xmlns="http://www.w3.org/2000/svg">
<g clip-path="url(#clip0_956_331)">
<path d="M27.5624 7.1243C25.3476 7.1243 23.1328 7.1243 20.9113 7.1243C18.304 7.1243 15.9628 6.84669 14.1204 9.70669C12.5109 12.1858 8.13444 11.779 6.33863 9.24184C5.18133 7.62139 4.05061 6.94353 2.07522 7.08556C1.41011 7.13721 0.691779 6.43997 -0.0065918 6.04616C0.592011 5.58132 1.23053 4.6904 1.78923 4.75496C4.00406 4.91636 5.26111 4.03832 6.59799 2.31457C7.08893 1.72469 7.71455 1.25379 8.42535 0.939125C9.13616 0.624463 9.91267 0.474687 10.6934 0.501619C11.4742 0.52855 12.2377 0.731455 12.9237 1.0943C13.6097 1.45714 14.1993 1.96995 14.6459 2.59217C15.9096 4.4515 17.3064 4.72266 19.3017 4.69684C25.2789 4.61936 31.2649 4.61936 37.2598 4.69684C38.1843 4.69684 39.0955 5.38764 40.0134 5.75563C39.0822 6.22046 38.171 7.04683 37.2199 7.08556C33.9675 7.22759 30.7749 7.1243 27.5624 7.1243Z" fill="white"/>
<path d="M12.0187 20.682C8.91926 20.682 5.81317 20.7723 2.70709 20.6303C1.78923 20.5851 0.897964 19.9137 -0.0065918 19.5264C0.944522 19.0744 1.88235 18.2352 2.83346 18.2352C9.03233 18.1189 15.2445 18.2803 21.4567 18.0866C22.6938 18.0479 24.1703 17.1247 25.0549 16.1821C27.5358 13.5352 31.6063 13.2317 33.7014 16.1176C34.8853 17.7638 36.036 18.3578 37.9848 18.248C38.6499 18.2093 39.315 18.9453 40.0267 19.3262C39.3017 19.7781 38.5235 20.6691 37.8584 20.6174C35.7766 20.385 34.7922 21.3728 33.6349 22.8576C33.1522 23.4937 32.5197 24.0084 31.7903 24.3588C31.0609 24.7092 30.2557 24.8851 29.4419 24.8718C28.6282 24.8585 27.8295 24.6565 27.1126 24.2825C26.3957 23.9085 25.7814 23.3735 25.321 22.722C24.0373 20.8304 22.6073 20.6045 20.6652 20.6626C17.7786 20.7207 14.8986 20.682 12.0187 20.682Z" fill="white"/>
<path d="M27.8417 34.2395C25.2943 34.2395 22.7469 34.3105 20.2062 34.2395C17.8384 34.162 15.9628 34.3105 14.3532 36.6282C12.5374 39.2106 8.20752 38.9911 6.31859 36.3119C5.14799 34.6527 3.97738 34.0845 2.03525 34.1878C1.37013 34.2265 0.705022 33.4906 0 33.1032C0.724975 32.6513 1.44332 31.8443 2.1816 31.812C3.9242 31.7668 5.08149 31.4763 6.21219 29.8752C8.34721 26.7828 12.4709 27.0668 15.0449 29.8752C15.9878 30.8921 17.2824 31.5376 18.6831 31.6893C24.6691 31.8766 30.6552 31.6894 36.6412 31.8249C37.7719 31.8249 38.8893 32.548 40.0133 32.9353C38.8427 33.3808 37.692 34.1426 36.4948 34.2265C33.6082 34.3686 30.7216 34.2395 27.8417 34.2395Z" fill="white"/>
</g>
<defs>
<clipPath id="clip0_956_331">
<rect width="40" height="38" fill="white" transform="translate(0 0.442383)"/>
</clipPath>
</defs>
</svg>
