<svg width="28" height="28" viewBox="0 0 28 28" fill="none" xmlns="http://www.w3.org/2000/svg">
<path d="M11.3956 16.541C8.34183 16.541 5.57008 16.5717 2.79828 16.541C1.34408 16.541 0.00440667 15.9041 0 14.3449C0 13.4664 0.788831 12.4123 1.52475 11.793C2.03592 11.3538 3.06264 11.468 3.86025 11.4592C6.26629 11.4197 8.67673 11.4592 11.3956 11.4592C11.3956 9.2324 11.3956 7.21203 11.3956 5.19164C11.3956 4.38787 11.356 3.57972 11.3956 2.77595C11.5102 1.22113 12.2021 0.0220747 13.9119 0.0088982C15.6217 -0.00427827 16.384 1.17719 16.4546 2.73641C16.5427 4.63382 16.4854 6.54002 16.4898 8.44621C16.4898 9.32465 16.4898 10.2031 16.4898 11.4592H22.6591C23.4656 11.4592 24.2764 11.4285 25.0828 11.4592C26.7397 11.5559 28.0088 12.2542 27.9648 14.0945C27.9207 15.7899 26.6824 16.4839 25.1224 16.5322C22.994 16.5937 20.8612 16.5322 18.7328 16.5629C18.085 16.5629 17.4416 16.6244 16.481 16.6727C16.481 18.781 16.481 20.8014 16.481 22.8218C16.481 23.6255 16.5162 24.4337 16.481 25.2374C16.3664 26.7923 15.6746 27.9913 13.9648 28.0045C12.255 28.0177 11.4882 26.8406 11.4177 25.277C11.334 23.3796 11.3869 21.4734 11.3825 19.5672L11.3956 16.541Z" fill="white"/>
</svg>
