<svg width="33" height="31" viewBox="0 0 33 31" fill="none" xmlns="http://www.w3.org/2000/svg">
<g clip-path="url(#clip0_956_337)">
<path d="M0.668701 30.7585C1.4498 28.8774 2.11574 27.4751 2.61144 26.0186C2.92103 25.1372 3.03651 24.2008 2.95017 23.2719C2.86383 22.3431 2.57766 21.443 2.11073 20.6318C-2.01006 12.6085 3.14718 3.41984 12.8358 1.19305C21.1425 -0.717749 29.995 3.91851 32.163 11.3148C34.6665 19.7875 27.9371 28.4379 18.3636 29.0897C17.3622 29.1588 16.2556 29.3958 15.3594 29.0897C11.2937 27.5838 7.60347 28.9811 3.84318 30.2253C2.79937 30.478 1.73846 30.6561 0.668701 30.7585ZM9.18067 17.8619C10.122 16.5584 11.1434 15.7635 11.0833 15.0525C11.0233 14.3415 9.93673 13.6256 9.30084 12.9146C8.57482 13.6206 7.43821 14.2428 7.25795 15.0673C7.17784 15.6746 8.25938 16.5535 9.21572 17.8619H9.18067ZM16.6211 17.8619C17.5875 16.5633 18.694 15.6993 18.5639 15.087C18.3936 14.2625 17.272 13.6058 16.561 12.9096C15.9101 13.6108 14.8136 14.2674 14.7435 15.0229C14.6734 15.7783 15.7199 16.5436 16.6562 17.8668L16.6211 17.8619ZM24.1968 12.0703C23.2304 13.3639 22.194 14.1391 22.234 14.8599C22.2741 15.5808 23.3456 16.3066 23.9615 17.0226C24.7075 16.3362 25.8641 15.7437 26.0544 14.929C26.2397 14.3168 25.1581 13.4182 24.2318 12.0752L24.1968 12.0703Z" fill="white"/>
</g>
<defs>
<clipPath id="clip0_956_337">
<rect width="32" height="30" fill="white" transform="translate(0.683838 0.758789)"/>
</clipPath>
</defs>
</svg>
