<svg width="42" height="41" viewBox="0 0 42 41" fill="none" xmlns="http://www.w3.org/2000/svg">
<g clip-path="url(#clip0_927_1028)">
<path d="M12.8854 31.0387C12.9024 32.213 12.5694 33.3661 11.9282 34.3534C11.287 35.3407 10.3661 36.1183 9.28104 36.5886C8.19599 37.0589 6.99509 37.201 5.82895 36.997C4.66281 36.7931 3.58333 36.2521 2.72594 35.4421C1.86855 34.6321 1.27142 33.5891 1.0094 32.4438C0.747389 31.2985 0.832158 30.1019 1.25311 29.0043C1.67407 27.9066 2.41245 26.9566 3.37565 26.2735C4.33885 25.5903 5.484 25.2045 6.66744 25.1643C7.46578 25.1406 8.2609 25.2743 9.00681 25.5575C9.75271 25.8407 10.4346 26.2678 11.0129 26.8141C11.5912 27.3605 12.0545 28.0152 12.3759 28.7404C12.6973 29.4655 12.8705 30.2467 12.8854 31.0387ZM6.05846 35.0504H7.48793C8.4687 33.7788 10.0072 32.6218 10.2956 31.2358C10.7443 29.0488 9.10331 27.5739 6.92383 27.5421C4.74434 27.5103 3.0777 28.8644 3.46231 31.115C3.72513 32.5391 5.15461 33.7471 6.05846 35.0504Z" fill="white"/>
<path d="M41.8724 31.3818C41.8304 32.1641 41.6333 32.9305 41.2926 33.6373C40.9519 34.344 40.474 34.9773 39.8865 35.501C39.299 36.0246 38.6133 36.4284 37.8685 36.6892C37.1236 36.95 36.3343 37.0627 35.5455 37.021C34.7567 36.9792 33.984 36.7838 33.2713 36.4459C32.5587 36.1079 31.9202 35.6341 31.3922 35.0514C30.3259 33.8746 29.7746 32.326 29.8596 30.746C29.9156 29.9566 30.1285 29.1859 30.4859 28.4784C30.8434 27.7708 31.3385 27.1404 31.9426 26.6234C32.5468 26.1063 33.2481 25.7129 34.0061 25.4657C34.7642 25.2186 35.564 25.1225 36.3596 25.1832C37.9129 25.2974 39.3593 26.01 40.3895 27.1684C41.4198 28.3268 41.9521 29.8391 41.8724 31.3818ZM39.9494 31.7696V30.2946C38.6673 29.3601 37.4237 27.8406 36.007 27.6245C33.8852 27.3066 32.3532 28.807 32.3724 31.0639C32.3917 33.3209 33.8596 34.8213 36.052 34.408C37.4302 34.1474 38.6224 32.6915 39.9494 31.776V31.7696Z" fill="white"/>
<path d="M21.2832 11.9212C20.486 11.9034 19.7004 11.7277 18.9727 11.4043C18.245 11.081 17.5898 10.6166 17.0457 10.0385C16.5015 9.46036 16.0795 8.78015 15.8043 8.03787C15.5292 7.29558 15.4065 6.50622 15.4434 5.71621C15.5088 4.56717 15.9131 3.46251 16.606 2.53936C17.299 1.61622 18.25 0.915257 19.3412 0.523558C20.4323 0.13186 21.6154 0.0666669 22.7436 0.336059C23.8717 0.605452 24.8953 1.19756 25.6871 2.03888C26.4788 2.88019 27.004 3.93365 27.1974 5.06842C27.3907 6.2032 27.2437 7.36934 26.7746 8.42198C26.3055 9.47462 25.535 10.3674 24.5588 10.9895C23.5825 11.6116 22.4435 11.9356 21.2832 11.9212ZM22.5075 2.38485C19.1614 2.56286 17.8152 3.81528 17.8345 6.02136C17.804 6.47734 17.8712 6.93457 18.0318 7.36292C18.1923 7.79127 18.4425 8.18105 18.7659 8.50658C19.0892 8.8321 19.4785 9.08599 19.908 9.25156C20.3374 9.41714 20.7974 9.4906 21.2575 9.46716C23.5524 9.51166 25.1037 8.05578 24.8024 5.93235C24.6101 4.50825 23.1229 3.26854 22.5075 2.37212V2.38485Z" fill="white"/>
<path d="M21.4818 41.0011C19.2574 40.4861 17.078 40.0729 14.969 39.4181C14.4498 39.2528 14.1805 38.3055 13.7959 37.7142C14.4049 37.5489 15.078 37.0785 15.6036 37.2628C19.3447 38.5881 23.433 38.5881 27.1741 37.2628C27.6485 37.0975 28.3536 37.5998 28.9498 37.7905C28.6421 38.3309 28.4369 39.221 28.001 39.3545C25.892 39.9966 23.719 40.4543 21.4818 41.0011Z" fill="white"/>
<path d="M31.5777 8.15771C36.3726 11.47 38.9175 15.8886 39.1867 22.4877C37.988 21.3561 36.9687 20.8602 36.8277 20.1863C36.0824 16.5389 34.1663 13.229 31.3662 10.7516C30.8021 10.243 30.7252 9.1813 30.4688 8.37389L31.5777 8.15771Z" fill="white"/>
<path d="M11.4109 7.78906C11.8532 8.50111 12.443 9.23222 12.3532 9.32758C8.97504 12.837 6.43655 16.7977 5.23783 21.5532C5.20578 21.674 4.28274 21.5532 3.43018 21.5532C3.87248 15.7424 6.50707 11.3874 11.4109 7.78906Z" fill="white"/>
</g>
<defs>
<clipPath id="clip0_927_1028">
<rect width="41" height="41" fill="white" transform="translate(0.859863 0.000976562)"/>
</clipPath>
</defs>
</svg>
