<svg width="44" height="34" viewBox="0 0 44 34" fill="none" xmlns="http://www.w3.org/2000/svg">
<g clip-path="url(#clip0_860_295)">
<path d="M5.7333 30.1772C6.88035 29.8401 7.85569 29.2266 8.57689 29.4356C9.29809 29.6446 9.6827 30.7099 10.2184 31.3976C8.69363 32.2943 7.25812 33.4876 5.60967 33.9461C4.92281 34.1348 3.45982 32.9415 2.91033 32.0515C-4.13681 20.5901 2.1479 5.00257 15.4248 1.03826C20.1419 -0.501076 25.2683 -0.304585 29.8488 1.59111C30.6936 1.9417 31.1126 3.26315 31.7239 4.13287C30.7348 4.32164 29.7114 4.74639 28.7567 4.63177C27.3918 4.40308 26.0464 4.07403 24.7317 3.64742L21.9843 7.59149L19.4086 3.88338C14.6006 3.88338 9.49038 6.99146 6.82538 11.4816L9.24312 15.446L4.43513 16.1202C2.65617 20.4283 3.17819 25.1882 5.7333 30.1772Z" fill="white" style="fill:white;fill-opacity:1;"/>
<path d="M21.4965 27.2447C20.0197 25.9637 17.9935 24.9929 17.4783 23.5231C16.9632 22.0534 17.2517 19.2082 18.3232 18.3587C23.66 14.145 29.3129 10.3492 34.9863 6.52651C35.5152 6.16918 36.7515 6.42537 37.3972 6.81641C37.6994 6.99845 37.6513 8.37382 37.2873 8.88622C33.4409 14.327 29.5739 19.7544 25.5283 25.0671C24.8071 25.984 23.2548 26.3211 21.4965 27.2447ZM28.3307 15.7833L27.8155 15.3383C25.6519 16.889 23.4059 18.3453 21.3728 20.0577C20.8439 20.5095 20.995 21.7432 20.8371 22.613C21.7025 22.5321 22.9732 22.768 23.3784 22.2961C25.1643 20.26 26.7028 17.9947 28.3032 15.8035L28.3307 15.7833Z" fill="white" style="fill:white;fill-opacity:1;"/>
<path d="M38.201 30.1974C39.4353 27.9861 40.194 25.5497 40.4303 23.039C40.6666 20.5283 40.3754 17.9967 39.5747 15.6009C39.2451 14.5019 39.877 13.1198 40.0693 11.8726C40.976 12.8164 42.3016 13.6187 42.7137 14.7447C44.9597 20.7788 44.1904 26.6443 40.9965 32.1795C40.5157 33.0155 39.1764 34.1482 38.5582 33.9796C36.8823 33.5279 35.3781 32.4559 33.8052 31.6334C34.3272 30.8648 34.7049 29.7322 35.4261 29.4355C36.1473 29.1389 37.0883 29.8535 38.201 30.1974Z" fill="white" style="fill:white;fill-opacity:1;"/>
</g>
<defs>
<clipPath id="clip0_860_295">
<rect width="44" height="34" fill="white" style="fill:white;fill-opacity:1;" transform="translate(-0.00878906)"/>
</clipPath>
</defs>
</svg>
