<svg width="44" height="46" viewBox="0 0 44 46" fill="none" xmlns="http://www.w3.org/2000/svg">
<path d="M21.7849 45.5535C17.4398 45.5118 13.2041 44.1551 9.61195 41.6544C6.01985 39.1537 3.23228 35.6211 1.6008 31.5022C-0.0306867 27.3832 -0.433024 22.8624 0.444587 18.5099C1.3222 14.1573 3.44043 10.1681 6.53209 7.04532C9.62376 3.92251 13.5504 1.806 17.8168 0.962736C22.0831 0.119474 26.4981 0.587231 30.5048 2.30701C34.5115 4.02679 37.9306 6.92157 40.3307 10.6262C42.7308 14.3309 44.0045 18.6794 43.9911 23.1235C43.974 26.0878 43.386 29.0196 42.2606 31.7514C41.1352 34.4832 39.4945 36.9613 37.4322 39.0443C35.37 41.1273 32.9267 42.7743 30.2418 43.8912C27.557 45.0081 24.6832 45.5729 21.7849 45.5535ZM40.8905 23.1657C40.9185 19.3418 39.8393 15.5951 37.7888 12.3974C35.7384 9.19976 32.8085 6.69429 29.3682 5.1967C25.9279 3.69911 22.1312 3.27639 18.4564 3.9818C14.7816 4.68721 11.3932 6.4892 8.71804 9.16071C6.04287 11.8322 4.20062 15.2537 3.42345 18.9942C2.64628 22.7346 2.96892 26.6266 4.35076 30.1799C5.73259 33.7331 8.11181 36.7886 11.1886 38.9613C14.2654 41.134 17.902 42.3268 21.6405 42.3894C24.1423 42.4294 26.6271 41.9623 28.9515 41.0153C31.2759 40.0682 33.394 38.6599 35.1836 36.8714C36.9732 35.083 38.3988 32.9499 39.3783 30.5951C40.3578 28.2404 40.8717 25.7106 40.8905 23.1517V23.1657Z" fill="white" style="fill:white;fill-opacity:1;"/>
<path d="M22.438 11.2195C23.9162 12.3375 26.618 13.364 27.2505 15.15C27.8212 16.7672 26.2605 19.2703 25.4012 21.2743C24.7378 22.6993 23.9166 24.0417 22.9537 25.2751C22.4027 25.8797 21.7816 26.4134 21.1043 26.8642C20.6643 26.161 19.7293 25.254 19.8668 24.8321C20.6368 23.004 21.833 21.3587 22.6786 19.5516C23.1175 18.3798 23.4534 17.1703 23.6824 15.9375C22.3074 15.9375 20.8224 15.5156 19.6124 15.9375C18.4024 16.3594 17.4811 18.4617 16.4568 16.3805C16.0786 15.607 17.1443 13.6664 18.0449 12.7734C18.8355 11.9929 20.3137 11.9226 22.438 11.2195Z" fill="white" style="fill:white;fill-opacity:1;"/>
<path d="M24.3355 31.4908C22.8023 32.4471 21.8123 33.5369 21.118 33.3682C20.4236 33.1994 19.4817 31.8916 19.3511 30.9775C19.2755 30.4853 20.6779 29.2408 21.3448 29.29C22.1767 29.3814 22.9398 30.3869 24.3355 31.4908Z" fill="white" style="fill:white;fill-opacity:1;"/>
</svg>
