<svg width="28" height="30" viewBox="0 0 28 30" fill="none" xmlns="http://www.w3.org/2000/svg">
<g clip-path="url(#clip0_976_277)">
<path d="M14.0183 29.5948C11.0602 29.5948 8.10736 29.639 5.14929 29.5948C1.56516 29.5286 0.161797 27.9941 0.0887577 24.147C-0.0211655 22.772 -0.000194335 21.3888 0.15136 20.0183C0.292221 19.229 1.07998 18.5667 1.57039 17.8491C2.02949 18.6053 2.75468 19.3173 2.89032 20.1342C3.05119 21.5042 3.06868 22.8888 2.94248 24.2629C2.87466 25.8801 3.46416 26.5977 5.0658 26.5866C11.0585 26.5388 17.0546 26.5388 23.0542 26.5866C24.6767 26.5866 25.188 25.7973 25.1411 24.2132C25.04 22.6555 25.0645 21.0915 25.2141 19.5381C25.2976 18.9199 26.0854 18.4342 26.5549 17.8491C27.0297 18.4011 27.8748 18.9254 27.9114 19.505C28.0871 21.6107 28.0644 23.7296 27.8435 25.8304C27.5201 28.4136 25.7567 29.5451 23.409 29.5838C20.2788 29.6334 17.1485 29.5948 14.0183 29.5948Z" fill="black"/>
<path d="M11.5923 15.9394C10.9506 14.9679 10.4289 13.864 9.62544 13.0913C9.19764 12.6828 8.27949 12.8484 7.58562 12.7546C7.58562 13.4887 7.36128 14.4822 7.71604 14.9127C9.3065 16.8521 11.0274 18.6672 12.8653 20.344C13.34 20.769 14.7643 20.7138 15.2599 20.2668C17.036 18.6517 18.6978 16.9009 20.2318 15.0286C20.6178 14.5705 20.4561 13.5991 20.55 12.8649C19.7935 12.9477 18.8597 12.7711 18.3171 13.1796C17.4928 13.7922 16.945 14.8354 16.2772 15.6579L15.4529 15.3874V8.54861C15.5409 6.70909 15.5183 4.8655 15.3851 3.02901C15.2755 2.16795 14.4565 1.40074 13.9609 0.589355C13.5018 1.43937 12.6774 2.24523 12.6461 3.13941C12.5053 7.1632 12.5835 11.198 12.5835 15.2274L11.5923 15.9394Z" fill="black"/>
</g>
<defs>
<clipPath id="clip0_976_277">
<rect width="28" height="29" fill="white" transform="translate(0 0.611328)"/>
</clipPath>
</defs>
</svg>
