<svg width="44" height="45" viewBox="0 0 44 45" fill="none" xmlns="http://www.w3.org/2000/svg">
<path d="M43.9865 23.3849C43.9056 24.661 43.6982 25.9258 43.3676 27.1607C42.4737 29.8252 42.735 32.2135 43.3676 34.9884C43.8696 37.218 42.9275 40.8074 41.3047 42.2156C39.503 43.7549 36.1748 43.6582 33.4792 43.9551C31.595 44.169 29.5596 43.4443 27.751 43.8515C19.6092 45.6808 12.4301 43.9965 6.53694 38.1016C0.51998 32.0893 -1.21977 24.8 0.788174 16.4891C1.14583 14.7161 1.0536 12.8812 0.51998 11.1533C-0.422105 7.94354 -0.0645067 5.1548 2.30102 2.79407C4.66654 0.433334 7.45839 0.108899 10.6629 1.06148C12.3853 1.6085 14.2207 1.69183 15.9853 1.3031C19.3226 0.413671 22.82 0.314767 26.2019 1.0142C29.5837 1.71364 32.7573 3.19226 35.4725 5.33347C38.1877 7.47467 40.3702 10.2199 41.8477 13.3525C43.3252 16.4852 44.0574 19.9196 43.9865 23.3849ZM21.5072 5.00986C18.4402 5.22384 15.167 4.8856 14.9125 10.1317C14.7475 13.6659 11.5637 15.4537 7.89164 16.0128C6.78452 16.1785 5.18916 17.3933 4.96223 18.408C3.58693 24.5653 4.87972 30.1427 9.35634 34.7882C13.9499 39.5235 19.6711 41.0007 25.9631 39.6202C27.0221 39.3855 28.2324 37.6184 28.4937 36.369C29.367 32.179 31.5194 29.5629 35.831 29.3213C38.2859 29.1832 38.8016 27.9752 39.1867 26.1253C41.4628 15.1016 33.0597 4.90633 21.5072 4.98226V5.00986ZM7.60284 12.8583C9.15005 10.7391 10.8898 9.35859 10.6835 8.3853C10.4153 7.1014 8.62052 6.14881 7.47902 5.05127C6.4888 6.135 4.79717 7.1635 4.72841 8.32316C4.65964 9.48282 6.16564 10.6977 7.60284 12.8307V12.8583ZM36.4223 41.5253C37.8733 39.2819 39.3861 37.9842 39.2486 36.8936C39.0904 35.6856 37.4263 34.6709 36.4223 33.5734C35.2877 34.7192 33.5617 35.7132 33.2316 37.0247C32.9841 37.9566 34.7513 39.3441 36.4223 41.5253Z" fill="white" style="fill:white;fill-opacity:1;"/>
<path d="M22.4562 28.4239C21.3795 28.2057 20.3457 27.8116 19.3961 27.2573C18.7085 26.7604 18.069 25.297 18.3303 24.6205C18.5916 23.944 20.2695 23.1779 20.8746 23.4471C25.5162 25.5179 26.8228 21.321 29.0508 19.1397C29.6147 18.5944 29.4909 16.565 28.9133 15.8541C28.3356 15.1431 26.7815 15.2535 25.6538 14.9912L21.8923 14.1007C22.7931 12.9549 23.467 11.2568 24.6429 10.7736C29.1952 8.88918 34.3595 12.7754 34.2357 17.7385C34.1119 22.1701 27.6617 28.4377 22.4562 28.4239Z" fill="white" style="fill:white;fill-opacity:1;"/>
<path d="M18.4198 34.8088C13.4068 34.8088 10.168 31.8683 9.72788 28.2237C9.04022 22.6532 17.292 15.2465 22.6076 16.8963C23.8866 17.2897 24.7875 18.9257 25.8602 19.9956C24.5468 20.4098 23.2059 21.2519 21.9268 21.1553C19.4169 20.9689 14.1014 24.7585 14.4314 27.2642C14.5827 28.3755 16.2399 29.8803 17.4227 30.1012C19.1006 30.4256 21.9268 27.9613 21.8993 31.6198C21.8856 32.9244 19.1212 34.2083 18.4198 34.8088Z" fill="white" style="fill:white;fill-opacity:1;"/>
</svg>
