<svg width="18" height="16" viewBox="0 0 18 16" fill="none" xmlns="http://www.w3.org/2000/svg">
<g clip-path="url(#clip0_884_169)">
<path d="M14.5765 4.89386C16.5322 7.72884 15.6879 12.0598 12.725 14.4024C11.2197 15.558 9.33535 16.0877 7.45717 15.8833C5.57898 15.6789 3.84886 14.7558 2.62052 13.3027C1.39219 11.8496 0.758425 9.97638 0.848828 8.06592C0.939231 6.15547 1.74698 4.35212 3.10689 3.02461C4.44618 1.72033 6.22777 0.984629 8.08594 0.968532C9.94411 0.952434 11.7379 1.65716 13.099 2.93805L11.9288 3.78205C10.2991 2.69999 8.61057 2.19143 6.70565 2.72435C5.58624 3.02492 4.57947 3.65363 3.81173 4.53154C3.04399 5.40946 2.54949 6.49745 2.39034 7.65893C2.23118 8.82041 2.41444 10.0036 2.91713 11.06C3.41981 12.1164 4.21951 12.9989 5.21582 13.5967C6.21213 14.1945 7.36065 14.4809 8.5172 14.4201C9.67375 14.3593 10.7868 13.9539 11.7166 13.2548C12.6463 12.5557 13.3514 11.594 13.7433 10.4906C14.1352 9.38716 14.1964 8.1911 13.9192 7.05257C13.5692 5.59179 13.5692 5.59178 14.5765 4.89386Z" fill="#00B47A" style="fill:#00B47A;fill:color(display-p3 0.0000 0.7059 0.4784);fill-opacity:1;"/>
<path d="M8.47969 12.3871C7.70757 11.1563 7.05834 10.0526 6.34233 8.9976C6.04538 8.60065 5.68402 8.25763 5.27365 7.98317C4.70458 7.56117 4.24504 6.99309 4.86487 6.46289C5.26296 6.11933 6.16867 5.95703 6.61217 6.19237C7.32284 6.55757 7.84115 7.3096 8.50907 7.96694C10.8655 4.87767 13.5666 2.25369 17.7638 1.98047C13.628 4.44485 10.3499 7.70183 8.47969 12.3871Z" fill="#00B47A" style="fill:#00B47A;fill:color(display-p3 0.0000 0.7059 0.4784);fill-opacity:1;"/>
</g>
<defs>
<clipPath id="clip0_884_169">
<rect width="17" height="15" fill="white" style="fill:white;fill-opacity:1;" transform="translate(0.771973 0.96875)"/>
</clipPath>
</defs>
</svg>
