<svg width="42" height="36" viewBox="0 0 42 36" fill="none" xmlns="http://www.w3.org/2000/svg">
<g clip-path="url(#clip0_934_1037)">
<path d="M17.5464 0.106934C23.7159 2.20467 31.7527 4.73077 37.8648 10.7027C39.5106 12.2487 40.6175 14.271 41.0264 16.4784C41.4353 18.6859 41.1249 20.9647 40.14 22.9867C38.5467 26.3317 38.9227 29.0783 40.14 32.1651C40.4842 33.0344 40.2675 34.1179 40.3121 35.1069C39.3434 34.9179 38.2535 34.9494 37.425 34.477C34.4231 32.8706 31.6443 31.7556 27.9032 32.7383C23.4418 33.9163 19.0696 32.5934 15.3539 29.7083C12.2692 27.3019 9.13357 26.5585 5.53898 28.8264C4.20056 29.6642 2.47331 29.8973 0.930952 30.4012C1.14765 28.7382 1.10941 26.9869 1.65115 25.4372C2.03996 24.4954 2.22175 23.4826 2.18439 22.466C2.14703 21.4494 1.8914 20.4523 1.43447 19.5409C-2.89306 10.331 4.63393 0.144731 17.5464 0.106934ZM36.6666 31.6674C36.6666 29.1476 35.9718 26.7475 36.7876 25.0655C40.1655 18.1361 38.0049 11.3263 31.0516 8.32777C23.8178 5.21582 15.2456 8.59235 12.8684 15.4966C10.0322 23.7489 17.8523 32.0958 27.2276 30.5209C30.6373 29.9539 33.8304 28.9649 36.6921 31.6422L36.6666 31.6674ZM3.41021 26.779L10.969 24.3726C10.0871 22.406 9.70612 20.2557 9.85945 18.1098C10.0128 15.964 10.6957 13.888 11.8486 12.0634C14.3151 8.00019 18.222 5.92135 22.9001 4.85043C20.0066 2.67081 16.7306 2.00938 12.8492 2.70863C5.54533 4.01892 0.682458 11.2193 3.23181 17.6006C4.44276 20.5803 5.70465 23.2513 3.43573 26.779H3.41021Z" fill="white"/>
</g>
<defs>
<clipPath id="clip0_934_1037">
<rect width="41" height="35" fill="white" transform="translate(0.204346 0.106934)"/>
</clipPath>
</defs>
</svg>
