<svg width="73" height="73" viewBox="0 0 73 73" fill="none" xmlns="http://www.w3.org/2000/svg">
<g clip-path="url(#clip0_833_134)">
<path d="M36.6499 0.0229463C45.6798 0.0229463 54.7096 0.0229463 63.7395 0.0229463C70.3591 0.0806082 72.9077 2.49089 72.9654 8.97209C73.0346 27.2317 73.0346 45.4836 72.9654 63.7278C72.9654 70.359 70.4974 72.9537 64.0163 72.9537C45.772 73.0229 27.5201 73.0229 9.2605 72.9537C2.44487 72.9537 0.0345972 70.4397 0.0345972 63.428C-0.0115324 45.5528 -0.0115324 27.6814 0.0345972 9.81393C0.0345972 2.31788 2.42182 0.0575435 10.1485 0.0229463C18.9247 -0.000118448 27.8161 0.0229463 36.6499 0.0229463ZM59.9569 47.5709C59.9569 45.08 60.0722 42.5774 59.9569 40.0864C59.4149 30.4569 53.2797 26.0054 43.8923 28.0812C41.7242 28.5655 39.2793 27.9659 37.0766 28.1619C33.6861 28.4733 28.6119 25.9592 28.4389 32.4174C28.2428 40.2709 28.3581 48.1476 28.4389 56.0127C28.4965 60.8447 32.1523 59.7953 35.1046 60.0029C38.4259 60.2451 39.4523 58.6882 39.4062 55.5744C39.337 51.1691 39.0717 46.6599 39.9366 42.4045C40.3403 40.4555 43.2119 39.0139 44.9648 37.3302C46.2564 39.2215 48.4245 40.9975 48.6782 43.0272C49.2663 47.1673 48.5283 51.492 49.0588 55.6436C49.2664 57.2236 51.3652 59.5531 52.7837 59.7952C59.2419 60.8447 59.9915 59.9567 60.0376 53.3371C59.9684 51.4112 59.9569 49.4507 59.9569 47.5709ZM25.3597 44.2958C25.3597 40.467 25.2098 36.6268 25.3597 32.7634C25.5097 28.9001 23.5261 27.9313 20.0548 27.9313C16.5836 27.9313 14.0811 28.4964 14.1964 32.8672C14.3579 39.7866 14.3925 46.706 14.1964 53.5447C14.058 57.9616 15.0613 60.1297 20.2047 60.1066C25.5673 60.1066 25.4751 57.1083 25.3713 53.441C25.279 50.431 25.3482 47.3634 25.3367 44.2958H25.3597ZM18.4403 12.0628C16.6759 14.5653 13.8274 16.8948 13.4007 19.6049C12.7548 23.745 15.7071 26.5244 20.0433 26.409C24.3794 26.2937 26.7205 23.722 26.536 19.3281C26.2938 15.165 23.7337 13.2621 18.3711 12.0628H18.4403Z" fill="#0B63BD" style="fill:#0B63BD;fill:color(display-p3 0.0431 0.3882 0.7412);fill-opacity:1;"/>
<path d="M59.9567 47.571C59.9567 49.4969 59.9567 51.4113 59.9567 53.3372C59.9567 59.9568 59.1609 60.8448 52.7028 59.7953C51.2266 59.5531 49.2431 57.2236 48.9778 55.6437C48.4474 51.492 49.1854 47.1674 48.5973 43.0272C48.2974 40.9975 46.1755 39.2216 44.8839 37.3302C43.1309 39.014 40.2709 40.4555 39.8558 42.4045C38.9908 46.66 39.2561 51.1691 39.3253 55.5745C39.3253 58.6882 38.345 60.2451 35.0237 60.0029C32.0714 59.7954 28.4156 60.8448 28.3579 56.0127C28.2887 48.1476 28.1734 40.271 28.3579 32.4174C28.5309 25.9593 33.6052 28.4734 36.9957 28.162C39.3022 27.9659 41.6087 28.5656 43.8114 28.0812C53.1987 26.0054 59.3339 30.457 59.876 40.0865C60.0144 42.5775 59.876 45.08 59.876 47.571H59.9567Z" fill="white" style="fill:white;fill-opacity:1;"/>
<path d="M25.3368 44.2961C25.3368 47.3637 25.3368 50.4313 25.3368 53.522C25.4406 57.1893 25.5328 60.1646 20.1703 60.1877C15.0268 60.1877 14.0235 58.0427 14.1619 53.6258C14.3925 46.7063 14.3579 39.7869 14.1619 32.9482C14.0466 28.5774 16.4684 28.0238 20.0204 28.0123C23.5723 28.0008 25.5213 28.8888 25.3252 32.8444C25.1292 36.8 25.3368 40.4674 25.3368 44.2961Z" fill="white" style="fill:white;fill-opacity:1;"/>
<path d="M18.3711 12.063C23.7336 13.2162 26.2938 15.1652 26.4437 19.3284C26.6283 23.7222 24.2872 26.3286 19.951 26.4093C15.6148 26.49 12.6625 23.7453 13.3083 19.6051C13.7696 16.895 16.6181 14.5655 18.3711 12.063Z" fill="white" style="fill:white;fill-opacity:1;"/>
</g>
<defs>
<clipPath id="clip0_833_134">
<rect width="73" height="73" fill="white" style="fill:white;fill-opacity:1;"/>
</clipPath>
</defs>
</svg>
