<svg width="40" height="61" viewBox="0 0 40 61" fill="none" xmlns="http://www.w3.org/2000/svg">
<path d="M33.0111 42.7698C32.3611 47.7698 31.8611 52.7698 30.9511 57.7698C30.7911 58.6698 28.9511 59.8498 27.8511 59.9098C23.3811 60.1598 18.8511 59.9798 14.3911 60.0198C11.7111 60.0198 11.5211 58.6898 11.2311 56.2598C10.5111 50.3598 9.58111 44.4298 3.39111 41.0098C1.76111 40.0998 0.39106 37.3098 0.28106 35.3398C-0.0389396 25.8698 0.041075 16.3398 0.171075 6.90985C0.241075 2.16985 2.51108 0.0998633 7.43108 0.0498633C15.7511 -0.0368034 24.0844 -0.0368034 32.4311 0.0498633C37.8411 0.0998633 39.9311 2.17983 39.9811 7.63983C40.0711 15.7898 39.9811 23.9398 39.9811 32.0798C39.9511 39.5198 39.4811 40.2398 33.0111 42.7698ZM35.9511 21.3098C35.9511 16.8198 35.8911 12.3098 35.9511 7.83984C36.0111 5.09984 34.9511 3.96982 32.1011 4.00982C23.9611 4.10982 15.8111 3.89983 7.68108 4.19983C6.44108 4.24983 4.3011 6.37985 4.2611 7.59985C3.9611 16.5999 3.9611 25.5498 4.2611 34.5098C4.2611 35.7198 6.49109 36.8598 7.69109 38.0298C8.76109 36.7698 10.2911 35.6698 10.7711 34.2098C11.3111 32.5598 10.9111 30.5998 10.9011 28.7698C10.9011 25.5098 12.2011 23.1698 15.6811 22.9698C19.4011 22.7498 20.7811 24.9698 21.3611 28.4598C21.8859 30.3701 22.9984 32.0669 24.5411 33.3098C26.2511 34.8098 28.5411 35.6998 30.4511 36.9298C33.8311 39.0598 35.7711 38.1998 35.8911 34.2698C36.0611 29.9498 35.9511 25.6298 35.9511 21.3098ZM17.2211 26.5399L15.2211 27.1498C15.1111 29.4898 15.0611 31.8398 14.8911 34.1498C14.7511 36.0898 15.1811 39.0698 14.1411 39.7798C9.36111 43.0298 12.4311 45.9398 13.9011 49.0598C14.9011 51.1998 15.7411 53.4198 16.7111 55.7398H25.9411C26.8211 53.1898 27.4611 51.0799 28.2711 49.0399C29.8111 45.1699 28.7611 40.0398 25.6211 38.5298C20.7211 36.1798 15.9111 33.9199 17.2211 26.5399Z" fill="white" style="fill:white;fill-opacity:1;"/>
</svg>
