<svg width="32" height="32" viewBox="0 0 32 32" fill="none" xmlns="http://www.w3.org/2000/svg">
<path d="M15.8087 31.0222C12.7371 31.0283 9.73283 30.1235 7.17682 28.4226C4.6208 26.7218 2.6282 24.3014 1.45157 21.4683C0.274948 18.6352 -0.0326698 15.5171 0.56772 12.5092C1.16811 9.50132 2.64944 6.73919 4.82395 4.57301C6.99845 2.40684 9.76819 0.934167 12.782 0.341719C15.7957 -0.250729 18.9178 0.0637405 21.7524 1.24523C24.587 2.42672 27.0064 4.42203 28.7038 6.97819C30.4013 9.53434 31.3003 12.5362 31.287 15.6032C31.2612 19.6909 29.621 23.6032 26.7228 26.4903C23.8246 29.3774 19.9026 31.0059 15.8087 31.0222ZM12.6758 14.9528C12.6758 16.8008 12.7586 18.7779 12.6758 20.7394C12.5518 23.1553 14.2268 22.8042 15.6381 22.7216C17.0495 22.639 18.983 23.4701 18.9106 20.7962C18.8537 18.7314 18.9106 16.7027 18.9106 14.927L21.8936 13.7604C21.4362 12.8919 20.8942 12.0706 20.2754 11.3084C15.8346 6.76066 15.7984 6.76066 11.3834 11.2671C10.7566 12.0279 10.1995 12.8434 9.71876 13.7036L12.6758 14.9528Z" fill="#EDD51F" style="fill:#EDD51F;fill:color(display-p3 0.9279 0.8337 0.1204);fill-opacity:1;"/>
</svg>
