<svg width="65" height="65" viewBox="0 0 65 65" fill="none" xmlns="http://www.w3.org/2000/svg">
<g clip-path="url(#clip0_860_281)">
<path d="M32.4349 0.7774C38.7588 0.801115 44.9338 2.69801 50.1804 6.2286C55.4269 9.75919 59.5098 14.7652 61.9134 20.6144C64.317 26.4637 64.9336 32.894 63.6854 39.0935C62.4371 45.293 59.38 50.9836 54.9 55.4469C50.4199 59.9102 44.7179 62.946 38.5138 64.171C32.3097 65.396 25.8818 64.7554 20.0415 62.3299C14.2013 59.9044 9.21057 55.8028 5.69965 50.5431C2.18872 45.2833 0.314986 39.1013 0.314941 32.7774C0.322813 28.5672 1.15988 24.3998 2.77832 20.5131C4.39676 16.6264 6.76488 13.0966 9.7475 10.1251C12.7301 7.15361 16.2688 4.7987 20.1615 3.19482C24.0542 1.59094 28.2248 0.769513 32.4349 0.7774ZM32.1749 57.0774C36.0349 55.8874 40.1149 55.2774 43.4549 53.3774C45.8549 52.0074 49.1049 48.5474 48.7249 46.6774C48.0649 43.4274 45.2649 38.5774 42.7249 38.1274C35.7735 36.9443 28.6707 36.9612 21.7249 38.1774C19.2049 38.6274 16.445 43.5274 15.825 46.7874C15.465 48.6674 18.8249 52.0374 21.1849 53.4374C24.4049 55.2874 28.2949 55.8874 32.1749 57.0774ZM32.075 10.4874C30.7044 10.5044 29.3505 10.7913 28.0909 11.3318C26.8313 11.8723 25.6907 12.6558 24.7341 13.6375C23.7775 14.6191 23.0237 15.7797 22.516 17.0529C22.0082 18.3261 21.7564 19.6868 21.7749 21.0574C21.7218 22.4893 21.9618 23.9169 22.4802 25.2527C22.9985 26.5886 23.7842 27.8044 24.7892 28.8258C25.7942 29.8471 26.9973 30.6523 28.3246 31.1921C29.6519 31.7319 31.0755 31.9949 32.5081 31.9649C33.9406 31.9349 35.352 31.6125 36.6555 31.0176C37.9591 30.4227 39.1273 29.5677 40.0886 28.5052C41.05 27.4427 41.7841 26.195 42.246 24.8386C42.708 23.4822 42.8879 22.0458 42.7749 20.6174C42.7386 19.2493 42.433 17.9018 41.8754 16.652C41.3178 15.4022 40.5193 14.2746 39.5255 13.3337C38.5316 12.3928 37.362 11.6571 36.0836 11.1687C34.8051 10.6803 33.443 10.4488 32.075 10.4874Z" fill="#33C6F4" style="fill:#33C6F4;fill:color(display-p3 0.2000 0.7765 0.9569);fill-opacity:1;"/>
<path d="M32.1749 57.0773C28.3249 55.8673 24.4049 55.2873 21.1749 53.4373C18.7649 52.0373 15.4549 48.6673 15.8149 46.7873C16.4349 43.5273 19.1949 38.6273 21.7149 38.1773C28.6606 36.9612 35.7634 36.9442 42.7149 38.1273C45.2649 38.5773 48.0649 43.4273 48.7149 46.6773C49.0949 48.5473 45.8449 52.0073 43.4449 53.3773C40.1149 55.2773 36.0349 55.8873 32.1749 57.0773Z" fill="white" style="fill:white;fill-opacity:1;"/>
<path d="M32.0751 10.4875C33.4456 10.4448 34.811 10.6734 36.0929 11.1599C37.3748 11.6465 38.548 12.3816 39.545 13.3228C40.542 14.2641 41.3433 15.3931 41.9027 16.6449C42.4622 17.8968 42.7689 19.2468 42.8051 20.6175C42.9181 22.0459 42.7381 23.4823 42.2762 24.8387C41.8143 26.1951 41.0801 27.4428 40.1188 28.5053C39.1575 29.5678 37.9892 30.4227 36.6856 31.0176C35.3821 31.6125 33.9708 31.9349 32.5382 31.9649C31.1057 31.9949 29.6821 31.732 28.3548 31.1922C27.0274 30.6524 25.8244 29.8472 24.8194 28.8258C23.8144 27.8045 23.0286 26.5886 22.5103 25.2528C21.9919 23.917 21.752 22.4894 21.8051 21.0575C21.7677 18.2946 22.8281 15.6298 24.7536 13.648C26.6791 11.6663 29.3123 10.5296 32.0751 10.4875Z" fill="white" style="fill:white;fill-opacity:1;"/>
</g>
<defs>
<clipPath id="clip0_860_281">
<rect width="63.96" height="64.07" fill="white" style="fill:white;fill-opacity:1;" transform="translate(0.314941 0.777344)"/>
</clipPath>
</defs>
</svg>
