<svg width="96" height="92" viewBox="0 0 96 92" fill="none" xmlns="http://www.w3.org/2000/svg">
<g clip-path="url(#clip0_1603_940)">
<path d="M21.6281 84.4848L14.6065 76.8869C21.0816 65.3249 21.0816 65.3249 4.05762 53.1188H22.6548C25.735 65.87 33.5846 75.6812 48.936 75.1857C63.1116 74.7232 70.365 65.2754 73.1968 52.8711H91.6119C86.3788 56.7691 81.2451 58.8172 79.3242 62.517C77.4032 66.2168 78.9266 71.3702 78.9266 75.9124L81.9738 76.9034L73.6936 83.5102C62.2173 77.052 55.4773 79.5791 53.9868 91.9339H42.8915C38.768 78.8193 33.2203 76.5896 21.6281 84.4848Z" fill="white"/>
<path d="M47.8593 49.4192C34.0314 49.4192 20.187 49.5679 6.3592 49.2541C4.22292 49.2541 2.11972 47.0408 0 45.8515C2.0866 44.6458 4.15666 42.3994 6.24326 42.3829C33.91 42.1517 61.5767 42.1517 89.2434 42.3829C91.5122 42.3829 93.7477 44.8275 95.9999 46.1323C93.7974 47.2224 91.5949 49.2045 89.3758 49.2541C75.5314 49.5514 61.6871 49.4192 47.8593 49.4192Z" fill="white"/>
<path d="M48.1239 39.6411C44.8118 39.6411 41.4997 39.6411 38.1877 39.6411C30.0069 39.3768 27.4401 35.0164 31.2489 27.7984C34.7431 21.1916 40.5558 19.2095 47.8092 19.193C55.0626 19.1765 60.8422 20.9603 64.4854 27.4515C68.5924 34.8512 65.8765 39.3933 57.2154 39.5915C54.2346 39.6411 51.2041 39.6411 48.1239 39.6411Z" fill="white"/>
<path d="M32.9385 52.2271H62.2502C62.0349 60.0561 57.5304 65.0938 50.1611 66.0188C41.5001 67.0924 35.4391 62.5007 32.9385 52.2271Z" fill="white"/>
<path d="M29.5274 23.2889L26.8611 39.6408C23.1516 39.6408 18.7632 39.806 14.4079 39.6408C8.19776 39.36 6.12773 36.1391 8.41305 30.4077C11.3442 22.7768 20.1874 19.9855 29.5274 23.2889Z" fill="white"/>
<path d="M69.106 39.641L66.5889 23.669C74.3556 19.804 84.06 22.3972 87.372 29.8133C90.0382 35.776 87.9516 39.3271 81.4102 39.6079C77.3033 39.7235 73.1798 39.641 69.106 39.641Z" fill="white"/>
<path d="M23.2833 19.8206C26.9417 19.8206 29.9074 16.8626 29.9074 13.2138C29.9074 9.56491 26.9417 6.60693 23.2833 6.60693C19.6249 6.60693 16.6592 9.56491 16.6592 13.2138C16.6592 16.8626 19.6249 19.8206 23.2833 19.8206Z" fill="white"/>
<path d="M71.3087 19.8206C74.9671 19.8206 77.9328 16.8626 77.9328 13.2138C77.9328 9.56491 74.9671 6.60693 71.3087 6.60693C67.6503 6.60693 64.6846 9.56491 64.6846 13.2138C64.6846 16.8626 67.6503 19.8206 71.3087 19.8206Z" fill="white"/>
<path d="M48.1239 16.5171C52.6969 16.5171 56.404 12.8196 56.404 8.25853C56.404 3.69747 52.6969 0 48.1239 0C43.5509 0 39.8438 3.69747 39.8438 8.25853C39.8438 12.8196 43.5509 16.5171 48.1239 16.5171Z" fill="white"/>
</g>
<defs>
<clipPath id="clip0_1603_940">
<rect width="96" height="92" fill="white"/>
</clipPath>
</defs>
</svg>
