<svg width="143" height="143" viewBox="0 0 143 143" fill="none" xmlns="http://www.w3.org/2000/svg">
<path d="M71.5341 0.0679079C87.3552 0.0679079 103.176 -0.0677657 118.997 0.0679079C134.818 0.203582 142.752 7.6656 142.842 23.4942C143.053 55.5132 143.053 87.5397 142.842 119.574C142.842 135.402 134.999 142.819 118.884 142.887C87.2421 143.023 55.5999 143.023 23.9578 142.887C7.91066 142.887 0.203555 135.289 0.113148 119.461C-0.067664 87.4417 -0.067664 55.4152 0.113148 23.3812C0.113148 7.55256 7.95597 0.226194 24.0709 0.0679079C40.1858 -0.090378 55.713 0.0679079 71.5341 0.0679079ZM55.1931 86.8989C55.1931 94.067 55.3513 101.235 55.1931 108.381C54.9445 117.018 60.1881 117.674 66.9912 117.787C73.7943 117.9 77.5461 116.137 77.1393 108.335C76.7324 100.534 76.1222 92.2808 77.8173 84.7509C78.7892 80.4772 84.2587 77.221 87.6942 73.4448C90.2707 77.4471 94.4747 81.2233 95.1302 85.5423C96.3506 93.6375 95.5822 102.049 95.537 110.416C95.4918 118.782 101.459 117.561 106.657 117.606C111.855 117.652 117.664 118.466 117.528 110.212C117.347 98.9061 118.025 87.5999 117.234 76.2938C116.059 59.7416 104.781 51.8725 88.3722 54.5408C82.7876 55.3735 77.1164 55.4496 71.5115 54.767C57.9506 53.252 55.3513 55.2418 55.1931 68.8091C55.1479 74.8466 55.1931 80.8841 55.1931 86.8989ZM49.7236 86.198C49.7236 79.0977 49.3846 71.9523 49.7236 64.8746C50.2208 56.7568 46.3333 54.6086 38.92 54.6991C31.5067 54.7895 27.461 56.2142 27.6192 64.5582C27.9356 79.1506 27.9356 93.743 27.6192 108.335C27.3932 117.086 32.4108 117.742 39.1687 117.742C45.9266 117.742 50.1078 116.657 49.701 108.697C49.4071 101.235 49.7236 93.6826 49.7236 86.198ZM38.92 52.2796C46.3785 51.1942 51.8933 47.7571 51.9837 38.8931C51.9837 30.8884 47.938 26.1172 39.9371 25.6197C31.4841 25.0771 26.218 29.5543 25.6981 37.9435C25.1783 46.3326 30.2636 50.7872 38.92 52.2118V52.2796Z" fill="#0077B5"/>
</svg>

