<svg width="53" height="53" viewBox="0 0 53 53" fill="none" xmlns="http://www.w3.org/2000/svg">
<path d="M26.3731 0.877632C32.1262 0.877632 37.8794 0.828296 43.6325 0.877632C49.3856 0.926968 52.2704 3.64043 52.3032 9.39628C52.38 21.0395 52.38 32.6855 52.3032 44.3343C52.3032 50.0901 49.4513 52.7872 43.5913 52.8118C32.0851 52.8612 20.5789 52.8612 9.07262 52.8118C3.23731 52.8118 0.434727 50.049 0.401852 44.2932C0.336102 32.6499 0.336102 21.0039 0.401852 9.35518C0.401852 3.59933 3.25379 0.935191 9.11375 0.877632C14.9737 0.820074 20.62 0.877632 26.3731 0.877632ZM20.4309 32.4526C20.4309 35.0591 20.4885 37.6657 20.4309 40.2641C20.3405 43.4051 22.2473 43.6436 24.7211 43.6847C27.195 43.7258 28.5593 43.0845 28.4114 40.2477C28.2634 37.4108 28.0415 34.4096 28.6579 31.6714C29.0113 30.1174 31.0002 28.9333 32.2495 27.5601C33.1864 29.0155 34.7151 30.3887 34.9535 31.9592C35.3973 34.9029 35.1179 37.9617 35.1014 41.0041C35.085 44.0465 37.2547 43.6025 39.145 43.6189C41.0353 43.6354 43.1476 43.9314 43.0982 40.9301C43.0325 36.8188 43.2791 32.7075 42.9914 28.5961C42.564 22.5772 38.4629 19.7157 32.496 20.686C30.4653 20.9888 28.403 21.0164 26.3649 20.7682C21.4336 20.2173 20.4885 20.9409 20.4309 25.8744C20.4145 28.0699 20.4309 30.2653 20.4309 32.4526ZM18.442 32.1977C18.442 29.6157 18.3187 27.0174 18.442 24.4437C18.6228 21.4918 17.2092 20.7106 14.5134 20.7435C11.8177 20.7764 10.3465 21.2945 10.4041 24.3286C10.5191 29.635 10.5191 34.9413 10.4041 40.2477C10.3219 43.4298 12.1465 43.6683 14.6039 43.6683C17.0613 43.6683 18.5817 43.2736 18.4338 40.3792C18.3269 37.6657 18.442 34.9193 18.442 32.1977ZM14.5134 19.8637C17.2256 19.469 19.231 18.2192 19.2639 14.9959C19.2639 12.0851 17.7927 10.3501 14.8833 10.1692C11.8095 9.97187 9.89451 11.6 9.70548 14.6506C9.51645 17.7012 11.3656 19.321 14.5134 19.839V19.8637Z" fill="#0077B5"/>
</svg>
