<svg width="75" height="82" viewBox="0 0 75 82" fill="none" xmlns="http://www.w3.org/2000/svg">
<g clip-path="url(#clip0_1603_951)">
<path d="M37.7027 82.034C30.9459 82.034 24.1891 82.034 17.4324 82.034C0.743203 81.4871 -4.49329 72.4634 3.27698 57.5263C10.4054 43.854 22.2635 39.7522 37.0608 39.718C51.8581 39.6838 63.6486 43.3754 71.0811 56.8085C79.4594 72.1215 73.9188 81.5212 56.2499 81.9314C50.1688 82.0339 43.9864 82.034 37.7027 82.034Z" fill="white"/>
<path d="M37.7024 34.1809C47.0316 34.1809 54.5943 26.5293 54.5943 17.0905C54.5943 7.65166 47.0316 0 37.7024 0C28.3733 0 20.8105 7.65166 20.8105 17.0905C20.8105 26.5293 28.3733 34.1809 37.7024 34.1809Z" fill="white"/>
</g>
<defs>
<clipPath id="clip0_1603_951">
<rect width="75" height="82" fill="white"/>
</clipPath>
</defs>
</svg>
