<svg width="629" height="2007" viewBox="0 0 629 2007" fill="none" xmlns="http://www.w3.org/2000/svg">
<g clip-path="url(#clip0_2515_438)">
<path d="M140.836 276.711C215.809 276.711 276.586 215.933 276.586 140.961C276.586 65.988 215.809 5.21069 140.836 5.21069C65.8638 5.21069 5.08643 65.988 5.08643 140.961C5.08643 215.933 65.8638 276.711 140.836 276.711Z" stroke="white" stroke-width="10" stroke-miterlimit="10"/>
<path d="M487.836 564.211C562.809 564.211 623.586 503.433 623.586 428.461C623.586 353.488 562.809 292.711 487.836 292.711C412.864 292.711 352.086 353.488 352.086 428.461C352.086 503.433 412.864 564.211 487.836 564.211Z" stroke="white" stroke-width="10" stroke-miterlimit="10"/>
<path d="M140.836 851.711C215.809 851.711 276.586 790.933 276.586 715.961C276.586 640.988 215.809 580.211 140.836 580.211C65.8638 580.211 5.08643 640.988 5.08643 715.961C5.08643 790.933 65.8638 851.711 140.836 851.711Z" stroke="white" stroke-width="10" stroke-miterlimit="10"/>
<path d="M487.836 1139.21C562.809 1139.21 623.586 1078.43 623.586 1003.46C623.586 928.488 562.809 867.711 487.836 867.711C412.864 867.711 352.086 928.488 352.086 1003.46C352.086 1078.43 412.864 1139.21 487.836 1139.21Z" stroke="white" stroke-width="10" stroke-miterlimit="10"/>
<path d="M140.836 1426.71C215.809 1426.71 276.586 1365.93 276.586 1290.96C276.586 1215.99 215.809 1155.21 140.836 1155.21C65.8638 1155.21 5.08643 1215.99 5.08643 1290.96C5.08643 1365.93 65.8638 1426.71 140.836 1426.71Z" stroke="white" stroke-width="10" stroke-miterlimit="10"/>
<path d="M487.836 1714.21C562.809 1714.21 623.586 1653.43 623.586 1578.46C623.586 1503.49 562.809 1442.71 487.836 1442.71C412.864 1442.71 352.086 1503.49 352.086 1578.46C352.086 1653.43 412.864 1714.21 487.836 1714.21Z" stroke="white" stroke-width="10" stroke-miterlimit="10"/>
<path d="M140.836 2001.71C215.809 2001.71 276.586 1940.93 276.586 1865.96C276.586 1790.99 215.809 1730.21 140.836 1730.21C65.8638 1730.21 5.08643 1790.99 5.08643 1865.96C5.08643 1940.93 65.8638 2001.71 140.836 2001.71Z" stroke="white" stroke-width="10" stroke-miterlimit="10"/>
<path d="M254.167 215.691L393.646 330.711" stroke="white" stroke-width="10" stroke-miterlimit="10"/>
<path d="M393.646 526.211L254.167 641.231" stroke="white" stroke-width="10" stroke-miterlimit="10"/>
<path d="M254.167 790.691L393.646 905.711" stroke="white" stroke-width="10" stroke-miterlimit="10"/>
<path d="M393.646 1101.21L254.167 1216.23" stroke="white" stroke-width="10" stroke-miterlimit="10"/>
<path d="M233.696 1389.97L372.776 1506.41" stroke="white" stroke-width="10" stroke-miterlimit="10"/>
<path d="M372.777 1650.51L254.167 1791.23" stroke="white" stroke-width="10" stroke-miterlimit="10"/>
</g>
<defs>
<clipPath id="clip0_2515_438">
<rect width="628.5" height="2006.5" fill="white" transform="translate(0.0864258 0.210693)"/>
</clipPath>
</defs>
</svg>
