<svg width="199" height="199" viewBox="0 0 199 199" fill="none" xmlns="http://www.w3.org/2000/svg">
<g clip-path="url(#clip0_1687_414)">
<path d="M58.3169 28.6284C53.9296 22.5337 53.9296 22.5337 59.7202 16.7531C65.6478 10.8355 65.6478 10.8355 71.8174 15.0543C77.3822 12.9529 82.6808 11.1253 87.7939 8.8952C88.8746 8.42824 89.8504 6.55233 89.9633 5.24C90.2859 1.41574 92.2457 0.111471 95.8346 0.409361C97.5685 0.538178 99.3266 0.409361 101.069 0.409361C107.206 0.409361 107.117 0.409375 108.746 6.48794C109.218 7.71383 110.154 8.70555 111.351 9.24945C114.271 10.5859 117.553 11.2059 120.303 12.7758C123.924 14.853 127.013 16.3827 130.441 12.4457C130.997 11.8016 133.481 12.1961 134.635 12.8644C136.207 13.7741 137.36 15.4166 138.667 16.7369C143.909 21.9701 143.869 21.946 140.377 28.411C140.01 29.3117 140.01 30.3201 140.377 31.2208C142.143 35.6892 143.901 40.1816 146.022 44.4809C146.439 45.1327 146.99 45.6891 147.637 46.1136C148.285 46.5382 149.015 46.8213 149.78 46.9446C153.724 47.3954 155.66 49.0781 155.095 53.2083C155.006 54.5487 155.006 55.8935 155.095 57.2338C155.095 64.0128 155.095 63.9404 148.466 65.8887C147.338 66.3766 146.438 67.2747 145.95 68.4007C144.191 72.2974 142.949 76.4517 140.941 80.1955C139.74 82.4659 139.562 84.0358 141.377 85.8312C144.369 88.7296 143.974 91.3221 140.812 93.8823C138.96 95.4375 137.242 97.145 135.675 98.9867C133.409 101.571 131.28 101.402 128.739 99.3329C125.699 96.8531 120.384 97.4409 118.142 100.645C117.545 101.499 117.844 103.817 118.618 104.671C125.36 111.917 122.949 121.127 113.505 123.575C110.609 133.582 105.851 137.809 98.0766 137.261C91.286 136.803 86.5519 131.908 85.2454 124.001C77.4386 120.99 75.366 118.213 76.5354 111.12C76.8983 108.954 78.3983 106.772 79.8823 105.025C81.7614 102.827 81.5678 101.297 79.229 99.9367C77.1564 98.729 74.995 97.6824 72.9062 96.5794C65.3978 101.297 65.3978 101.297 59.0347 94.9692C58.4967 94.3691 57.9231 93.8018 57.3169 93.2704C54.4135 90.992 54.0264 88.5122 56.7201 85.8312C58.696 83.8507 58.9218 81.9909 57.2362 79.5675C55.8536 77.5837 54.8148 75.3819 54.1635 73.0542C52.9135 68.5295 51.7038 64.3912 45.6551 64.5925C44.9132 64.5925 43.6308 62.628 43.405 61.4204C43.026 59.3432 43.2841 57.1453 43.2841 54.9795C43.2841 48.1844 43.284 48.2569 49.6714 46.534C50.2499 46.3396 50.7835 46.0315 51.2407 45.6277C51.6978 45.2239 52.0692 44.7326 52.3328 44.183C54.3974 39.2075 56.2039 34.1917 58.3169 28.6284ZM96.0362 102.449C96.0362 94.1319 95.9152 85.9842 96.1007 77.8526C96.1652 75.0186 95.5362 73.3762 92.8264 71.9109C87.5923 69.085 85.7132 62.6844 87.8907 57.2419C88.956 54.578 90.9322 52.377 93.4687 51.0295C96.0052 49.682 98.9379 49.2752 101.746 49.8813C104.555 50.4874 107.057 52.0671 108.81 54.3402C110.562 56.6133 111.451 59.4326 111.319 62.2979C111.045 68.1108 107.496 71.4843 102.585 73.65V102.36H111.311C111.867 91.0886 114.634 80.9281 122.997 73.0783C123.357 72.6772 123.653 72.2239 123.876 71.7338C129.723 61.0098 129.804 50.3019 122.707 40.2461C115.892 30.5848 106.295 26.1406 94.3748 28.2822C83.4147 30.2466 75.9467 36.8324 72.2449 47.2102C68.4463 57.8457 70.7206 67.6439 78.1 76.0573C82.1324 80.6544 84.8905 85.5897 85.5841 91.7166C85.9874 95.2671 86.8181 98.7774 87.4794 102.473L96.0362 102.449ZM62.2848 23.1456C62.6014 23.7593 62.9914 24.3324 63.4462 24.8524C66.5673 27.6945 66.035 30.2949 63.7284 33.5637C61.6015 36.499 60.065 39.8183 59.2041 43.3377C58.0024 48.8044 56.8652 53.6833 49.5988 52.7252V58.7635C50.2728 59.0472 50.9801 59.2447 51.7038 59.3513C55.9378 59.3513 57.5346 61.4767 58.4863 65.5747C59.5791 70.1382 61.4183 74.4905 63.93 78.4565C66.1237 81.9345 66.2447 84.4706 63.3978 87.3126C63.0382 87.7164 62.7294 88.1625 62.4784 88.6411C63.7688 90.3882 64.9462 91.9662 65.914 93.2704C68.5431 91.7166 70.5352 89.6716 72.6562 89.5347C74.6402 89.4059 76.7612 91.2979 79.1081 92.425C79.1645 87.5944 76.979 84.2291 74.1321 81.0569C65.664 71.6211 62.4622 60.6958 65.422 48.273C69.3254 31.8247 85.5841 20.0942 101.98 21.7045C119.682 23.3952 133.231 37.3477 134.126 54.7139C134.675 65.1802 131.159 74.1733 124.045 81.8057C121.311 84.7443 119.279 87.9165 119.336 93.6408C124.61 87.0147 128.304 90.9276 130.925 93.0369L136.788 89.3656C131.489 85.3401 132.433 81.6527 135.473 77.289C137.555 74.3168 138.951 70.9211 139.562 67.346C140.369 62.0162 142.974 59.5767 148.192 59.5284C148.385 59.5284 148.579 59.1983 148.78 59.0212V53.5626C148.084 53.2839 147.355 53.0945 146.611 52.999C142.232 53.0956 140.74 50.6964 139.949 46.6628C139.266 42.9749 137.899 39.4469 135.917 36.2608C132.909 31.6395 131.078 27.5576 135.667 24.1439L132.336 19.1845C129.183 20.4646 127.779 24.1037 123.723 22.0346C118.166 19.1925 112.174 17.2039 106.48 14.6437C105.09 13.8354 103.968 12.6371 103.254 11.1978C102.585 9.99818 102.585 8.42019 102.295 7.0354H95.8426C96.6491 12.8 93.5925 14.4826 88.5843 15.5373C84.1682 16.6212 79.9814 18.4834 76.2209 21.0362C73.124 23.0329 70.9545 23.1053 68.4786 20.5934C67.7805 19.9987 67.0362 19.4603 66.2527 18.9832L62.2848 23.1456ZM99.125 117.053C103.545 117.053 107.996 116.997 112.384 117.053C115.005 117.102 115.956 115.789 115.981 113.366C116.005 110.943 115.36 109.284 112.384 109.34C103.682 109.437 94.9716 109.405 86.2697 109.34C83.5599 109.34 82.3824 110.516 82.4066 113.213C82.4308 115.91 83.4873 117.134 86.2697 117.061C90.5521 116.981 94.8345 117.061 99.125 117.053ZM105.061 61.6217C105.025 60.4651 104.646 59.3451 103.972 58.4037C103.298 57.4623 102.359 56.7418 101.275 56.3334C100.19 55.9251 99.0086 55.8473 97.8797 56.1099C96.7508 56.3725 95.7254 56.9637 94.9334 57.8086C94.1414 58.6534 93.6184 59.714 93.4307 60.8559C93.2429 61.9977 93.399 63.1695 93.8789 64.2228C94.3589 65.2761 95.1413 66.1634 96.1269 66.7725C97.1124 67.3815 98.257 67.6848 99.4154 67.6439C100.962 67.5872 102.424 66.9222 103.481 65.7941C104.539 64.6659 105.106 63.1661 105.061 61.6217ZM92.036 123.615C92.2376 128.156 95.1894 131.207 99.2057 131.207C103.222 131.207 106.174 128.164 106.359 123.615H92.036Z" fill="white"/>
<path d="M172.838 99.4939C172.838 90.7183 172.75 82.2888 172.838 73.8593C172.959 65.2769 178.484 59.9229 186.411 60.3818C189.13 60.4599 191.739 61.4728 193.796 63.2493C195.854 65.0257 197.233 67.4568 197.702 70.1317C198.099 72.9149 198.258 75.7268 198.178 78.537C198.178 90.7505 198.122 102.956 198.226 115.169C198.356 120.577 196.475 125.84 192.944 129.943C185.363 139.003 177.9 148.16 170.556 157.413C169.219 159.061 168.268 160.987 167.774 163.049C167.249 165.464 167.217 167.767 170.604 169.12C172.298 169.796 173.83 172.815 174.016 174.908C174.381 180.268 174.427 185.645 174.153 191.01C174.024 195.479 171.193 198.297 166.733 198.329C153.829 198.426 140.926 198.426 128.022 198.329C123.635 198.329 121.07 195.616 120.965 191.204C120.836 185.842 120.917 180.472 120.965 175.102C120.965 171.978 122.578 169.933 125.264 168.379C125.849 167.984 126.342 167.467 126.708 166.864C127.074 166.261 127.305 165.585 127.385 164.885C127.603 158.854 127.506 152.808 127.474 146.77C127.403 142.866 128.123 138.988 129.59 135.369C131.058 131.749 133.243 128.464 136.014 125.708C143.052 118.5 150.12 111.321 157.217 104.172C162.773 98.5117 164.612 97.932 172.838 99.4939ZM161.483 167.574C160.177 160.497 163.66 155.715 167.669 150.964C174.5 142.873 181 134.5 187.831 126.393C190.666 123.143 192.152 118.936 191.984 114.63C191.815 101.748 191.928 88.8665 191.928 75.9848C191.928 69.4071 189.855 66.3718 185.419 66.4443C180.984 66.5168 179.105 69.5037 179.105 76.1861C179.105 86.3707 179.347 96.5714 178.968 106.78C178.847 110.218 178.048 114.364 175.967 116.86C170.846 123.019 164.878 128.502 159.031 134.017C158.168 134.822 156.039 134.291 154.491 134.387C154.458 132.835 154.568 131.282 154.821 129.75C155.015 128.945 156.063 128.397 156.725 127.729C161.281 123.18 166.015 118.784 170.282 113.978C171.524 112.577 172.322 109.751 171.806 108.036C170.677 104.276 166.467 103.785 163.378 106.869C155.313 114.92 147.2 122.971 139.49 131.344C137.143 133.896 134.877 137.511 134.651 140.788C133.99 149.644 134.425 158.565 134.425 167.574H161.483ZM127.385 191.824H167.612V174.353H127.409L127.385 191.824Z" fill="white"/>
<path d="M25.5735 99.832C32.3721 97.0625 36.953 99.6388 41.2112 104.059C48.0986 111.216 55.2279 118.148 62.2766 125.153C65.2043 127.935 67.5199 131.296 69.0763 135.02C70.6328 138.744 71.3959 142.751 71.3172 146.786C71.2769 152.824 71.1963 158.862 71.414 164.893C71.5063 165.603 71.7437 166.287 72.1113 166.901C72.4789 167.516 72.969 168.049 73.5512 168.467C76.1562 170.19 77.5191 172.34 77.4949 175.448C77.4949 180.544 77.5595 185.64 77.4949 190.745C77.4062 195.64 74.8819 198.264 70.035 198.297C57.2656 198.388 44.499 198.388 31.735 198.297C27.2671 198.297 24.4363 195.455 24.2992 190.986C24.0485 185.621 24.0889 180.245 24.4202 174.884C24.708 172.674 25.802 170.647 27.4929 169.192C31.364 166.068 32.1624 162.751 28.9526 158.653C25.1622 153.823 21.1781 149.064 17.2748 144.274C13.1214 139.178 9.00827 134.049 4.79842 128.977C1.81786 125.462 0.208445 120.99 0.26598 116.385C0.26598 102.167 0.201461 87.9486 0.26598 73.7143C0.26598 67.1286 3.71773 62.3463 9.13731 60.7521C14.5569 59.158 20.6055 61.0178 23.2427 65.8082C24.6398 68.5249 25.4009 71.5228 25.4686 74.5758C25.767 82.7718 25.5735 90.9436 25.5735 99.832ZM65.188 167.574C65.188 160.328 65.188 153.5 65.188 146.641C65.2281 143.548 64.6416 140.478 63.4636 137.617C62.2855 134.756 60.5404 132.162 58.3329 129.991C50.768 122.38 43.1709 114.799 35.5416 107.247C32.5495 104.284 29.8317 104.075 27.4768 106.442C25.1218 108.809 25.3557 111.337 28.4203 114.437C33.2592 119.267 38.0981 124.098 42.9371 128.929C44.55 130.539 45.8969 132.391 43.7435 134.419C41.7677 136.295 40.0902 134.927 38.5659 133.405C34.0254 128.848 29.6139 124.138 24.8557 119.799C20.7507 116.055 19.2103 111.554 19.2103 106.184C19.2829 95.5972 19.2103 85.01 19.2103 74.4148C19.2103 69.3185 16.7908 66.404 12.7584 66.4443C8.726 66.4845 6.42753 69.3748 6.41946 74.5356C6.41946 88.2224 6.16946 101.909 6.58077 115.548C6.8561 119.22 8.16128 122.741 10.347 125.708C15.2747 132.552 21.0088 138.807 26.1945 145.474C31.3802 152.14 38.7998 157.55 37.1143 167.525L65.188 167.574ZM71.0672 174.449H30.8721V191.848H71.0592L71.0672 174.449Z" fill="white"/>
<path d="M160.015 178.91C161.531 180.182 164.144 181.325 164.338 182.75C164.789 186.188 161.733 186.067 159.273 186.067C156.967 186.067 154.225 186.284 154.096 183.096C153.958 179.554 156.846 179.795 160.015 178.91Z" fill="white"/>
<path d="M38.8729 179.835C39.8003 179.835 41.002 179.473 41.5988 179.916C42.7118 180.721 44.2844 182.098 44.236 183.136C44.0989 186.252 41.4214 186.043 39.1471 186.043C36.8728 186.043 33.9211 186.445 33.5017 183.193C33.3888 182.186 35.0018 180.777 36.1147 179.908C36.6954 179.457 37.9051 179.827 38.8326 179.827L38.8729 179.835Z" fill="white"/>
</g>
<defs>
<clipPath id="clip0_1687_414">
<rect width="198" height="198" fill="white" transform="translate(0.209961 0.353027)"/>
</clipPath>
</defs>
</svg>
