<svg width="158" height="177" viewBox="0 0 158 177" fill="none" xmlns="http://www.w3.org/2000/svg">
<g clip-path="url(#clip0_1687_387)">
<path d="M135.675 110.267H140.778C146.204 110.267 148.056 112.081 148.063 117.412C148.063 130.122 148.063 142.83 148.063 155.536V159.233C153.22 161.52 155.678 168.48 152.786 173.221C151.96 174.595 150.032 175.406 148.469 176.141C147.622 176.539 146.438 176.237 145.405 176.237H12.904C7.78107 176.237 5.17141 174.938 4.98549 171.572C4.61367 164.605 3.90442 161.321 10.3425 159.432V123.843C10.3425 121.321 10.2943 118.8 10.3425 116.285C10.4458 112.424 12.4633 110.397 16.3124 110.274C18.2611 110.205 20.2097 110.274 22.7161 110.274V106.557C22.7161 95.7977 22.7161 85.0341 22.7161 74.2658C22.7161 72.2047 23.2738 70.2191 25.5943 70.6313C26.6616 70.8168 27.4259 72.9192 28.2246 74.2177C28.4312 74.5475 28.2246 75.1178 28.2659 75.5918C28.3072 76.0659 28.3485 76.4781 28.4174 77.0964H48.916V68.4191C48.916 63.8365 48.8678 59.2539 48.916 54.6782C48.9918 49.5391 52.4001 47.2444 57.2477 49.0925C62.5772 51.1536 67.8654 53.2766 73.6975 55.5782C73.6975 53.5171 73.367 51.7445 73.8008 50.2055C74.1382 49.0307 75.4327 48.1444 76.2934 47.1001C77.2643 48.1375 78.8687 49.0582 79.0477 50.233C79.4815 52.6651 79.1785 55.2278 79.1785 57.7905L84.687 59.9547C84.687 55.3996 84.687 51.2498 84.687 47.1001C84.687 45.1283 84.8867 43.1427 87.2967 43.0465C89.9614 42.9435 90.2575 44.9909 90.2369 47.1138C90.2369 50.549 90.2369 53.9843 90.2369 57.4195C90.2369 62.5105 90.2369 62.5105 95.7454 64.1113V44.9977C95.7454 43.9672 95.4287 42.7717 95.8418 41.9404C96.4133 40.7793 97.5288 39.8793 98.4102 38.8831C99.3673 39.9342 101.082 40.9442 101.164 42.0572C101.454 47.6497 101.302 53.2698 101.309 58.876C101.395 60.2488 101.395 61.6256 101.309 62.9983C100.992 65.6159 101.688 67.2442 104.538 67.9588C108.264 68.8863 109.785 71.4833 109.654 75.3925C109.455 81.3355 109.606 87.2921 109.606 93.5168H130.064C130.119 92.7267 130.243 91.8541 130.229 90.9884C130.181 88.9892 130.518 87.0517 132.942 87.0379C135.613 87.0379 135.786 89.0991 135.779 91.2083C135.675 97.3573 135.675 103.534 135.675 110.267ZM54.5898 77.2888C58.1497 77.2888 61.5581 77.2888 64.9734 77.2888C70.5714 77.2888 72.3204 79.0614 72.3204 84.7089C72.3204 102.911 72.3204 121.108 72.3204 139.301V143.245C79.3369 143.245 85.9609 143.245 92.5918 143.245C97.1088 143.245 99.1056 145.251 99.1607 149.71C99.2089 152.987 99.1607 156.271 99.1607 159.576H103.788C103.85 158.889 103.953 158.36 103.953 157.81C103.953 130.569 103.953 103.328 104.029 76.0521C104.029 73.7711 102.893 73.1666 101.213 72.5001C87.2714 66.9763 73.3349 61.4295 59.4029 55.8599C57.8467 55.2416 56.2768 54.637 54.5829 53.9774L54.5898 77.2888ZM66.6259 83.0668H28.4381V159.5H33.7676C33.7676 152.438 33.7676 145.588 33.7676 138.738C33.7676 134.258 35.8333 132.294 40.3089 132.252C44.5505 132.211 48.799 132.252 53.0405 132.252C59.8573 132.252 61.3033 133.709 61.3033 140.497V159.604H66.6191L66.6259 83.0668ZM10.5284 170.493H147.904V165.416H10.5284V170.493ZM109.682 126.742C113.001 126.742 116.182 126.742 119.37 126.742C121.587 126.742 124.603 126.158 124.514 129.566C124.424 132.974 121.394 132.197 119.205 132.232C116.037 132.293 112.87 132.232 109.682 132.232V137.302C110.04 137.46 110.24 137.632 110.439 137.632C112.96 137.673 115.487 137.673 118.014 137.707C122.71 137.769 124.645 139.7 124.672 144.434C124.672 149.435 124.672 154.437 124.672 159.439H129.988V99.5009H109.792V104.771C113.607 104.771 117.153 104.771 120.706 104.771C122.772 104.771 124.596 105.176 124.555 107.587C124.514 109.999 122.62 110.336 120.61 110.336C116.974 110.294 113.345 110.336 109.668 110.336V115.832C113.442 115.832 117.084 115.832 120.685 115.832C122.751 115.832 124.576 116.251 124.521 118.663C124.466 121.074 122.565 121.411 120.554 121.37C116.926 121.328 113.297 121.37 109.641 121.37L109.682 126.742ZM55.6502 138.01H39.5653V159.528H55.6433L55.6502 138.01ZM142.32 159.569V115.935H135.868V159.569H142.32ZM22.6197 115.956H16.0714V159.473H22.7505C22.7505 145.423 22.7505 131.613 22.7505 117.804C22.7505 117.254 22.6679 116.705 22.6197 115.956ZM93.5902 148.968H72.5958V159.445H93.5902V148.968ZM118.991 143.472H109.799V159.5H118.991V143.472Z" fill="white"/>
<path d="M133.087 16.8289C137.994 16.8619 142.781 18.3474 146.841 21.0972C150.902 23.8471 154.053 27.7375 155.895 32.2758C157.738 36.814 158.189 41.7957 157.191 46.5899C156.193 51.3841 153.792 55.775 150.291 59.2063C146.791 62.6376 142.348 64.955 137.526 65.8648C132.704 66.7746 127.72 66.2359 123.206 64.317C118.691 62.3981 114.849 59.1853 112.165 55.0856C109.482 50.9859 108.079 46.1838 108.133 41.2877C108.206 34.747 110.872 28.5014 115.549 23.9176C120.226 19.3337 126.532 16.7849 133.087 16.8289ZM124.328 45.884C120.741 39.5838 121.23 34.3142 125.768 30.4118C127.7 28.7624 130.146 27.8312 132.689 27.7761C135.231 27.721 137.715 28.5454 139.718 30.1095C144.469 33.8539 145.075 39.1098 141.605 45.9665L148.855 51.985C151.518 48.1113 152.631 43.3831 151.975 38.7316C151.318 34.0801 148.94 29.8424 145.309 26.8529C141.671 23.8129 137.038 22.2183 132.295 22.3742C127.553 22.5302 123.034 24.4257 119.605 27.698C112.719 34.2592 111.638 45.0183 117.105 51.9025L124.328 45.884ZM121.409 56.5675C127.758 62.2837 138.472 62.2425 144.469 56.4782C138.919 47.5535 126.504 47.6016 121.409 56.5538V56.5675ZM138.396 38.7731C138.396 37.6825 138.07 36.6167 137.461 35.7111C136.852 34.8055 135.987 34.1012 134.976 33.6877C133.964 33.2743 132.853 33.1703 131.782 33.3892C130.711 33.608 129.73 34.1398 128.963 34.9167C128.196 35.6937 127.678 36.6807 127.475 37.7523C127.272 38.8238 127.393 39.9315 127.822 40.9342C128.252 41.937 128.971 42.7896 129.887 43.3835C130.804 43.9774 131.877 44.2858 132.97 44.2695C134.425 44.2568 135.816 43.6702 136.839 42.6378C137.862 41.6055 138.434 40.2112 138.43 38.7594L138.396 38.7731Z" fill="white"/>
<path d="M25.5053 0.339844C30.4115 0.339871 35.2074 1.79258 39.2856 4.514C43.3638 7.23542 46.5409 11.1032 48.4146 15.6274C50.2883 20.1517 50.7744 25.129 49.8112 29.9291C48.848 34.7292 46.4789 39.1361 43.0039 42.5919C39.5289 46.0476 35.1044 48.3967 30.2904 49.3418C25.4765 50.2868 20.4898 49.7852 15.9618 47.9005C11.4338 46.0158 7.56812 42.8328 4.8543 38.7546C2.14048 34.6764 0.700581 29.8863 0.716935 24.991C0.738801 18.4455 3.36008 12.1756 8.00643 7.55498C12.6528 2.93435 18.9453 0.339807 25.5053 0.339844ZM34.1055 29.4087L41.3423 35.4409C47.0437 27.7323 45.4049 16.5403 37.7136 10.192C33.9047 7.07651 29.0452 5.53356 24.1323 5.87978C19.2194 6.22601 14.6255 8.43515 11.2933 12.0539C5.13752 18.6976 4.46275 29.8003 9.76471 35.331L16.8638 29.4224C13.3039 22.8955 13.8341 17.619 18.4888 13.7715C20.453 12.1604 22.9152 11.2768 25.4579 11.2706C28.0005 11.2643 30.4671 12.1358 32.4392 13.7372C37.1628 17.5846 37.7067 22.9711 34.0986 29.4018L34.1055 29.4087ZM37.1765 40.0991C31.1447 29.9239 17.1599 32.466 14.02 40.1334C20.4099 45.6847 30.0981 45.7328 37.1696 40.0922L37.1765 40.0991ZM30.9794 22.497C31.0187 21.4079 30.7326 20.3318 30.1575 19.4053C29.5824 18.4788 28.7443 17.7439 27.7496 17.2938C26.7549 16.8436 25.6486 16.6987 24.5711 16.8775C23.4937 17.0562 22.4939 17.5504 21.6987 18.2974C20.9034 19.0444 20.3486 20.0104 20.1049 21.0727C19.8611 22.135 19.9393 23.2456 20.3296 24.2634C20.7199 25.2813 21.4046 26.1604 22.2967 26.789C23.1889 27.4177 24.2482 27.7675 25.3401 27.7941C26.7966 27.8386 28.2114 27.3054 29.2748 26.3113C30.3382 25.3173 30.9635 23.9432 31.0138 22.4901L30.9794 22.497Z" fill="white"/>
<path d="M28.259 60.2569C28.259 61.2806 28.5964 62.4761 28.1764 63.2868C27.5911 64.4273 26.4481 65.2792 25.5392 66.2548C24.6096 65.2998 23.1155 64.4616 22.8882 63.3555C22.4643 61.2305 22.4643 59.0429 22.8882 56.9179C23.1155 55.8049 24.5821 54.9461 25.491 53.9705C26.4137 54.9254 27.6256 55.743 28.1764 56.8835C28.6033 57.811 28.259 59.1164 28.259 60.2569Z" fill="white"/>
<path d="M135.621 76.6018C135.621 77.8522 135.951 79.2331 135.518 80.3187C135.132 81.2874 133.831 82.6409 133.08 82.5447C132.054 82.421 130.525 81.2256 130.326 80.2706C129.903 78.0317 129.882 75.7356 130.264 73.4894C130.464 72.3627 131.889 71.4283 132.756 70.4321C133.72 71.4627 134.919 72.3696 135.573 73.5719C136.006 74.362 135.655 75.5781 135.655 76.6018H135.621Z" fill="white"/>
<path d="M95.3603 76.5605C96.6203 77.6736 98.8032 78.6629 98.9546 79.9064C99.3196 82.7233 96.8476 82.8058 94.6855 82.8126C92.6198 82.8126 90.4371 82.8127 90.3407 80.1813C90.2305 77.2888 92.5578 77.2132 95.3603 76.5605Z" fill="white"/>
<path d="M82.574 76.6017C83.7377 77.7765 85.8034 78.9033 85.8791 80.14C86.0306 82.9637 83.4829 82.8126 81.3828 82.8332C79.2826 82.8538 77.1687 82.6271 77.2514 80.0026C77.3615 77.0964 79.7577 77.2406 82.574 76.6017Z" fill="white"/>
<path d="M95.4776 94.4993C92.6683 93.8466 90.3203 93.8466 90.341 90.961C90.341 88.3365 92.5512 88.2472 94.6031 88.2609C96.6551 88.2746 99.2441 88.2609 98.9549 91.0778C98.831 92.3213 96.6964 93.3656 95.4776 94.4993Z" fill="white"/>
<path d="M82.4427 127.477C79.6402 126.79 77.2716 126.859 77.2578 123.98C77.2578 121.349 79.4199 121.232 81.4787 121.232C83.5375 121.232 86.1266 121.177 85.8718 123.98C85.7616 125.265 83.6476 126.33 82.4427 127.477Z" fill="white"/>
<path d="M93.9557 127.477C92.7231 126.35 90.5885 125.313 90.4508 124.042C90.1478 121.211 92.6543 121.218 94.7957 121.205C96.9371 121.191 99.0372 121.273 99.0648 123.898C99.1061 126.804 96.7581 126.825 93.9557 127.477Z" fill="white"/>
<path d="M80.8452 98.5872C83.6546 99.2398 86.0094 99.233 85.9888 102.119C85.9888 104.743 83.7785 104.867 81.7266 104.832C79.6747 104.798 77.0856 104.832 77.3679 102.009C77.4987 100.731 79.6265 99.6864 80.8452 98.5872Z" fill="white"/>
<path d="M93.9347 105.492C92.7091 104.358 90.5813 103.314 90.4505 102.057C90.1613 99.2192 92.6815 99.2467 94.8092 99.2398C96.9369 99.2329 99.0507 99.3154 99.0714 101.94C99.092 104.839 96.7372 104.839 93.9347 105.492Z" fill="white"/>
<path d="M95.8626 131.565C96.9574 132.692 98.9267 133.784 98.9749 134.952C99.0919 138.065 96.3997 137.7 94.2307 137.755C92.227 137.797 90.2783 137.398 90.3403 135.007C90.4229 131.902 92.9844 132.252 95.8626 131.565Z" fill="white"/>
<path d="M80.8729 109.58C83.6754 110.233 86.0234 110.267 85.982 113.132C85.982 115.749 83.758 115.832 81.7061 115.825C79.6541 115.818 77.0651 115.825 77.3681 112.988C77.5058 111.703 79.6473 110.672 80.8729 109.58Z" fill="white"/>
<path d="M93.5425 116.45C92.4546 115.324 90.6161 114.307 90.4302 113.015C90.0997 110.7 92.124 110.157 94.1484 110.267C94.8369 110.267 95.6908 110.02 96.1659 110.336C97.2216 111.145 98.2158 112.032 99.1405 112.988C98.2475 113.975 97.2808 114.894 96.2485 115.736C95.7941 116.059 94.9196 115.791 94.2311 115.791L93.5425 116.45Z" fill="white"/>
<path d="M82.2773 87.5532C83.5373 88.6662 85.7202 89.6556 85.8716 90.8991C86.2366 93.716 83.7646 93.7984 81.6025 93.8053C79.5368 93.8053 77.3541 93.8053 77.2577 91.174C77.1475 88.2815 79.4748 88.2059 82.2773 87.5532Z" fill="white"/>
<path d="M80.7976 138.47C79.5926 137.323 77.4787 136.251 77.3548 135.035C77.1069 132.204 79.6339 132.287 81.7547 132.287C83.8754 132.287 85.9893 132.397 85.9756 135.035C85.9687 137.852 83.607 137.81 80.7976 138.47Z" fill="white"/>
<path d="M39.4142 115.763C38.9598 115.763 38.4985 115.763 38.0371 115.763C35.9714 115.839 33.8438 115.605 33.8644 112.967C33.8851 110.329 36.0471 110.184 38.106 110.219C39.2421 110.219 40.5504 109.875 41.4868 110.315C42.7194 110.892 43.6696 112.088 44.7369 113.015C43.6917 113.974 42.5854 114.865 41.4249 115.681C40.9429 116.024 40.0959 115.763 39.4142 115.763Z" fill="white"/>
<path d="M55.8366 115.763C55.148 115.763 54.3011 116.024 53.8191 115.715C52.601 114.838 51.4374 113.889 50.335 112.871C51.4573 111.998 52.4695 110.81 53.7778 110.349C55.0839 109.893 56.5067 109.893 57.8128 110.349C59.1348 110.885 60.1539 112.177 61.3038 113.139C60.2122 114.07 59.0622 114.93 57.861 115.715C57.3514 116.017 56.4907 115.763 55.8366 115.763Z" fill="white"/>
<path d="M55.7611 121.26C56.4497 121.26 57.3035 120.999 57.7786 121.308C58.9989 122.182 60.1647 123.13 61.2696 124.145C60.1473 125.018 59.1351 126.206 57.8268 126.674C56.5207 127.13 55.0979 127.13 53.7918 126.674C52.4698 126.138 51.4507 124.846 50.3008 123.884C51.379 122.955 52.5151 122.094 53.7023 121.308C54.2463 121.005 55.1139 121.26 55.7611 121.26Z" fill="white"/>
<path d="M39.3319 93.7779C38.6433 93.7779 37.7964 94.039 37.3144 93.7298C36.0914 92.8582 34.9211 91.9153 33.8096 90.906C34.925 90.0266 35.9303 88.8449 37.1973 88.364C38.5039 87.9106 39.9257 87.9106 41.2323 88.364C42.5613 88.893 43.5872 90.1778 44.744 91.1122C43.6689 92.0439 42.5376 92.9089 41.3563 93.7023C40.8536 94.039 40.0136 93.7779 39.3319 93.7779Z" fill="white"/>
<path d="M39.2765 126.756H37.2108C35.2277 126.756 33.52 125.925 33.9401 123.877C34.1535 122.826 35.93 121.816 37.2108 121.335C38.4915 120.854 39.965 121.26 41.3422 121.26C43.3252 121.26 45.0329 122.091 44.6128 124.138C44.3925 125.189 42.5472 126.007 41.3422 126.722C40.8051 127.01 39.965 126.756 39.2765 126.756Z" fill="white"/>
<path d="M55.9126 93.7779C55.348 93.7779 54.7765 93.7779 54.205 93.7779C52.1393 93.8534 50.349 93.345 50.3903 90.961C50.4317 88.577 52.3183 88.2128 54.3152 88.254C55.4582 88.254 56.7596 87.9105 57.7029 88.3434C59.0319 88.948 60.0922 90.1366 61.2697 91.0915C60.0578 91.9916 58.8804 92.9603 57.5996 93.7504C57.1796 94.0046 56.491 93.7779 55.9126 93.7779Z" fill="white"/>
<path d="M39.6762 99.3291C40.5851 99.3291 41.6799 99.0131 42.3616 99.4116C43.3187 99.9612 44.6683 101.143 44.5719 101.885C44.4326 102.493 44.1502 103.06 43.7478 103.538C43.3455 104.016 42.8349 104.391 42.2583 104.633C40.6069 105.103 38.8597 105.124 37.1973 104.695C35.9303 104.351 34.925 103.046 33.8096 102.16C34.9045 101.138 36.0762 100.2 37.3144 99.3566C37.8997 98.9994 38.8774 99.2948 39.6762 99.2948V99.3291Z" fill="white"/>
<path d="M56.1051 99.2742C56.9039 99.2742 57.9092 98.9719 58.4531 99.3429C59.5273 100.078 60.8356 101.081 61.0835 102.187C61.2212 102.826 59.6099 104.324 58.5427 104.64C57.0038 105.097 55.3648 105.097 53.826 104.64C52.4971 104.193 51.4849 102.826 50.335 101.892C51.4109 100.944 52.5623 100.084 53.7778 99.3223C54.3906 98.9857 55.3408 99.2673 56.1396 99.2673L56.1051 99.2742Z" fill="white"/>
</g>
<defs>
<clipPath id="clip0_1687_387">
<rect width="157" height="176" fill="white" transform="translate(0.709961 0.333008)"/>
</clipPath>
</defs>
</svg>
