<svg width="192" height="192" viewBox="0 0 192 192" fill="none" xmlns="http://www.w3.org/2000/svg">
<g clip-path="url(#clip0_1675_373)">
<path d="M96.0394 0.131767C120.616 0.131767 145.192 0.263595 169.794 3.46825e-06C175.247 3.46825e-06 176.854 1.68697 176.801 6.98516C176.617 35.9802 176.801 64.738 176.801 93.6276C176.801 100.007 176.222 100.507 169.689 100.56C166.669 100.714 163.642 100.67 160.628 100.428C159.082 99.9317 157.637 99.1641 156.36 98.1614C157.704 97.3443 158.995 96.5271 160.391 95.7627C160.654 95.6046 161.102 95.7627 161.444 95.7627C171.981 95.4728 171.981 95.4728 171.981 84.6656C171.981 60.2306 171.981 35.822 171.981 11.4135C171.981 6.14165 170.479 4.79733 165.343 4.82369C119.035 5.01699 72.7276 5.01699 26.42 4.82369C21.626 4.82369 19.9665 6.00989 19.9928 11.0445C20.2211 37.0698 20.2211 63.095 19.9928 89.1203C19.9928 94.1285 21.1781 96.3426 26.5253 95.8418C30.7857 95.4994 35.0667 95.4994 39.3271 95.8418C40.3544 95.8418 41.2764 97.3443 42.2247 98.1614C41.3291 98.8995 40.4598 100.217 39.5906 100.244C32.6365 100.428 25.6824 100.586 18.7547 100.244C15.0143 100.059 15.4095 96.7117 15.4095 94.0494C15.4095 71.5914 15.4095 49.1334 15.4095 26.6754C15.4095 19.7166 15.5939 12.7578 15.4095 5.82535C15.4095 1.44973 16.8582 -0.0791254 21.3099 -0.0527663C46.1495 0.210825 71.0945 0.131767 96.0394 0.131767Z" fill="white"/>
<path d="M59.6886 133.325C50.2585 134.563 47.914 133.114 44.9375 124.863C43.1463 119.855 41.4078 114.847 39.6693 109.865C32.4782 111.921 29.291 117.351 31.0295 124.02C32.0304 127.789 33.0049 131.585 33.8742 135.407C35.6917 143.446 37.404 144.87 45.7015 145.661C47.2139 146.086 48.6403 146.773 49.916 147.69C48.4409 148.586 46.9921 150.142 45.4643 150.326C37.0615 150.801 32.4782 147.479 30.1338 139.414C28.5534 133.957 27.0784 128.448 25.7876 122.913C24.1545 115.901 31.9514 104.751 38.9582 104.329C39.9834 104.485 40.9572 104.881 41.7997 105.486C42.6422 106.091 43.3293 106.887 43.8048 107.809C46.0438 112.817 47.5716 118.168 49.4155 123.361C50.5745 126.55 51.5491 129.872 56.3168 129.054C57.3968 128.87 58.793 130.53 60.5315 131.69C64.8514 123.493 69.7509 115.242 73.702 106.517C77.3371 98.2933 82.4472 94.1021 91.772 95.4201C96.3846 95.7499 101.015 95.7499 105.627 95.4201C108.037 95.2813 110.431 95.8939 112.478 97.1732C114.526 98.4526 116.126 100.336 117.059 102.563C131.204 130.504 145.508 158.339 159.6 186.28C160.051 188.135 160.14 190.059 159.864 191.947C158.362 190.788 156.229 189.97 155.438 188.442C141.846 162.082 128.175 135.723 115.11 108.995C111.791 102.194 107.682 99.0313 100.306 100.191C99.5962 100.244 98.8831 100.244 98.1728 100.191C78.7331 100.639 84.5545 97.0544 75.4405 113.924C62.2699 138.333 49.5208 163.005 36.561 187.545C36.1189 188.705 35.487 189.783 34.6909 190.735C33.7186 191.331 32.6484 191.751 31.53 191.974C31.2402 190.867 30.5553 189.68 30.7923 188.679C31.2794 187.161 31.9518 185.709 32.7943 184.356C41.6185 167.565 50.4955 150.774 59.6886 133.325Z" fill="white"/>
<path d="M63.1656 70.7216C58.144 70.6699 53.3204 68.7535 49.631 65.344C45.9416 61.9346 43.6494 57.2753 43.1991 52.2702C42.5916 47.076 43.9824 41.8452 47.089 37.6398C50.1956 33.4345 54.785 30.5698 59.9256 29.6277C63.745 28.9687 65.6153 30.1285 65.6153 34.2932C65.6153 38.4579 64.5353 43.9407 66.6953 46.5766C68.4601 48.6853 74.3078 47.6046 78.338 47.6046C82.3681 47.6046 83.6062 49.4761 83.1057 53.2982C82.3675 58.0885 79.962 62.4638 76.3135 65.6517C72.6651 68.8397 68.0085 70.6353 63.1656 70.7216ZM60.7685 35.0576C58.7633 35.2903 56.8274 35.9339 55.0817 36.9482C53.3359 37.9625 51.8176 39.3257 50.6215 40.953C49.4254 42.5802 48.577 44.4366 48.1293 46.4064C47.6817 48.3761 47.6443 50.4171 48.0195 52.402C48.4892 56.4219 50.5272 60.0932 53.6898 62.6162C56.8524 65.1391 60.8833 66.3092 64.9041 65.8715C68.246 65.6415 71.3699 64.1281 73.623 61.6475C75.8761 59.1669 77.0841 55.9111 76.9947 52.5601H65.5626C62.2436 52.5601 60.7421 51.084 60.8738 47.6573C60.9002 43.598 60.7685 39.5387 60.7685 35.0576Z" fill="white"/>
<path d="M175.01 134.3C173.14 139.572 171.402 144.844 169.347 150.115C168.055 153.801 166.368 157.336 164.316 160.659C161.682 164.797 157.283 165.114 152.91 163.295C151.988 162.952 151.461 161.582 150.776 160.659C151.698 160.026 152.857 158.682 153.41 158.893C160.444 161.028 162.103 155.993 163.947 151.222C166.081 145.397 167.898 139.44 169.979 133.588C172.06 127.736 174.246 126.787 179.462 130.267C188.26 136.171 195.425 143.816 190.341 156.046C188.181 161.318 187.443 167.038 185.626 172.415C184.161 176.755 181.107 180.378 177.08 182.554C173.052 184.731 168.35 185.299 163.921 184.145C162.972 183.908 162.261 182.669 161.445 181.904C162.27 181.081 163.15 180.315 164.079 179.611C164.448 179.348 165.132 179.611 165.659 179.611C178.013 180.428 180.568 175.209 182.939 165.245C183.887 161.265 184.967 157.338 186.047 153.384C188.365 144.58 184.519 137.489 175.01 134.3Z" fill="white"/>
<path d="M16.9636 135.565C6.9277 139.73 3.79312 146.109 6.26918 155.598C7.74428 160.87 8.90335 166.326 10.6155 171.572C12.9599 178.741 16.1208 180.876 23.628 181.114C25.2204 181.038 26.8163 181.108 28.3957 181.324C29.2123 181.509 30.5294 182.774 30.3977 183.196C30.2451 183.733 29.9808 184.231 29.6221 184.658C29.2635 185.085 28.8185 185.431 28.3166 185.674C20.4143 188.152 9.8779 183.512 7.08575 175.605C4.24081 167.55 1.9266 159.317 0.158038 150.959C-1.39608 143.684 9.6146 130.267 16.9111 130.214C17.8617 130.419 18.7516 130.843 19.5105 131.451C20.2694 132.059 20.8764 132.836 21.2836 133.72C23.9177 140.31 26.0777 147.11 28.501 153.779C30.1079 158.155 31.9781 162.188 38.0629 160.527C38.9058 160.29 40.1966 161.713 41.2766 162.372C40.5127 163.242 39.9068 164.534 38.9585 165.008C34.5332 166.721 30.0816 166.3 27.6055 162.03C25.0581 157.174 22.8575 152.145 21.0203 146.979C19.5452 143.236 18.3861 139.519 16.9636 135.565Z" fill="white"/>
<path d="M152.488 107.941C150.591 113.344 148.958 118.484 147.035 123.334C146.108 125.825 144.811 128.162 143.19 130.267C142.726 130.934 142.132 131.501 141.445 131.933C140.757 132.365 139.989 132.653 139.188 132.781C138.386 132.909 137.566 132.874 136.778 132.677C135.99 132.481 135.25 132.127 134.602 131.638C133.865 131.189 132.996 129.951 133.154 129.292C133.312 128.633 134.734 127.446 135.34 127.578C140.397 128.712 141.372 124.942 142.584 121.647C144.296 116.956 145.771 112.211 147.404 107.493C149.432 101.746 151.829 100.876 156.913 104.409C165.263 110.208 168.582 116.692 165.184 125.206C163.42 129.634 162.919 134.563 161.523 139.15C160.464 142.586 158.137 145.49 155.016 147.272C151.895 149.054 148.212 149.581 144.717 148.745C143.664 148.481 142.9 147.031 142.083 146.109C143.005 145.45 143.98 144.158 144.717 144.237C154.437 145.239 157.519 139.387 158.678 131.242C159.101 128.782 159.682 126.352 160.417 123.967C162.682 115.954 160.891 112.053 152.488 107.941Z" fill="white"/>
<path d="M127.938 55.6441C127.938 49.9769 127.938 44.2834 127.938 38.6162C127.938 34.5832 130.204 33.7397 133.417 34.1088C136.631 34.4778 141.82 32.2109 141.978 38.2735C142.242 49.7924 142.189 61.3641 141.978 72.883C141.679 73.8466 141.144 74.72 140.422 75.4243C139.699 76.1285 138.813 76.6413 137.843 76.916C128.755 78.1549 128.07 77.3904 128.07 68.4283L127.938 55.6441ZM137.29 55.9077C137.29 51.4531 137.448 46.9984 137.29 42.7282C137.29 41.5157 135.893 40.3559 135.13 39.1961C134.366 40.3031 132.943 41.4102 132.917 42.5436C132.741 51.33 132.741 60.2043 132.917 69.1664C132.917 70.2471 134.418 71.3015 135.235 72.3558C135.946 71.1697 137.237 70.0363 137.316 68.7974C137.474 64.3954 137.316 60.1516 137.29 55.9077Z" fill="white"/>
<path d="M108.762 60.257C108.934 57.0611 108.934 53.8583 108.762 50.6623C108.157 45.3905 110.685 43.888 115.585 44.0726C122.354 44.3361 122.881 44.547 122.907 50.715C122.907 57.832 122.907 64.9227 122.907 72.0133C123.066 78.1022 118.825 76.9687 115.216 77.1269C111.607 77.285 108.367 77.1269 108.71 71.855C108.999 68.0857 108.789 64.1582 108.762 60.257ZM113.846 71.5651L115.453 72.8304C116.349 71.6442 118.087 70.5107 118.087 69.2982C118.377 63.5995 118.377 57.8898 118.087 52.1911C118.087 51.005 116.191 49.8979 115.19 48.7381L113.925 49.8452L113.846 71.5651Z" fill="white"/>
<path d="M57.6606 89.8057C56.7087 90.1393 55.834 90.6621 55.0892 91.3427C54.3444 92.0233 53.7447 92.8477 53.3264 93.7661C52.9081 94.6846 52.6798 95.6781 52.6551 96.6871C52.6303 97.6961 52.8098 98.6997 53.1826 99.6376C53.8674 102.036 54.4206 104.461 54.9737 106.886C55.843 110.761 57.6078 113.213 62.1912 113.292C63.5345 113.292 64.8253 114.847 66.195 115.69C64.7726 116.455 63.3502 117.799 61.9014 117.878C55.8957 118.115 52.8401 115.796 50.9962 109.812C49.9162 106.254 48.9943 102.616 48.2041 98.9786C47.5988 95.9027 48.1661 92.7114 49.7944 90.0331C51.4227 87.3549 53.994 85.3836 57.002 84.5074C58.0193 84.5355 59.0142 84.8119 59.9003 85.3127C60.7864 85.8134 61.5366 86.5233 62.0858 87.3806C63.6927 90.0165 63.9561 93.5223 65.4576 96.29C66.8479 98.2585 68.4957 100.032 70.357 101.562C71.0682 102.274 72.3853 103.275 72.2273 103.723C72.0432 104.261 71.749 104.755 71.3634 105.172C70.9779 105.59 70.5094 105.922 69.9882 106.148C69.268 106.406 68.5029 106.514 67.7396 106.467C66.9763 106.419 66.2307 106.216 65.5481 105.871C64.8655 105.526 64.2602 105.045 63.7691 104.458C63.2781 103.872 62.9115 103.191 62.6916 102.458C60.9268 98.3987 59.4254 94.2867 57.6606 89.8057Z" fill="white"/>
<path d="M134.392 88.4086C132.732 92.6788 131.257 96.8172 129.466 100.797C127.912 104.25 125.278 106.28 121.379 104.409C120.747 104.092 121.063 101.773 120.905 100.428C126.674 100.297 126.173 95.1565 127.912 91.7298C128.07 91.4135 127.912 90.9918 128.202 90.7019C130.046 88.066 131.389 84.1648 133.97 82.7941C136.552 81.4235 144.296 88.6722 143.796 92.4679C142.922 99.4497 141.152 106.289 138.527 112.817C137.685 114.9 132.838 115.611 129.703 116.376C128.623 116.613 127.069 115.137 125.805 114.425C127.069 113.555 128.439 111.947 129.598 111.921C135.34 111.921 136.684 107.888 137.5 103.486C138.29 98.3723 142.505 92.4942 134.392 88.4086Z" fill="white"/>
<path d="M67.2221 33.8979C67.2221 32.659 67.2221 31.4201 67.2221 30.1812C67.2221 22.2735 69.1714 20.9556 76.8103 24.1187C80.3066 25.4486 83.3584 27.7357 85.6175 30.7188C87.8765 33.7018 89.2516 37.2606 89.5857 40.9885C90.0071 44.0725 88.8481 45.7068 85.5818 45.6804C81.3409 45.6804 77.1001 45.6805 72.8592 45.8123C68.6182 45.9441 66.7479 44.0198 67.1694 39.7496C67.3801 37.8254 67.2221 35.8485 67.2221 33.8979ZM72.3323 40.3295H84.5282C82.1575 32.1055 78.6805 28.837 72.3323 28.5998V40.3295Z" fill="white"/>
<path d="M89.5859 65.687V63.0511C89.5859 54.5634 92.6152 52.1384 100.834 54.5898C101.599 55.0253 102.252 55.6332 102.741 56.3653C103.23 57.0974 103.542 57.9335 103.652 58.8073C104.047 63.2093 103.652 67.664 103.81 71.9869C103.81 75.5454 102.467 77.0742 98.7789 77.0742C87.3996 77.1005 89.7967 77.0214 89.5859 65.687ZM99.0424 66.0297C99.2688 64.8189 99.2688 63.5766 99.0424 62.3658C98.3244 61.2111 97.4364 60.1713 96.4083 59.2817C95.7498 60.3361 94.6698 61.3114 94.5381 62.4185C94.2482 64.6937 94.2482 66.9966 94.5381 69.2719C94.6961 70.3526 95.8288 71.2752 96.4873 72.2505C97.5032 71.3489 98.3897 70.3111 99.1214 69.1664C99.2952 68.1254 99.2684 67.0607 99.0424 66.0297Z" fill="white"/>
</g>
<defs>
<clipPath id="clip0_1675_373">
<rect width="192" height="192" fill="white"/>
</clipPath>
</defs>
</svg>
