<svg width="165" height="164" viewBox="0 0 165 164" fill="none" xmlns="http://www.w3.org/2000/svg">
<g clip-path="url(#clip0_1675_357)">
<path d="M24.5938 35.7982C11.7172 24.4463 9.73415 13.9913 18.0781 5.50939C19.7048 3.80274 21.6636 2.4436 23.8353 1.51479C26.0071 0.585979 28.3463 0.106934 30.7101 0.106934C33.074 0.106934 35.413 0.585979 37.5847 1.51479C39.7565 2.4436 41.7153 3.80274 43.3419 5.50939C51.9692 14.2219 50.1922 24.1644 37.2384 35.4394C50.6043 40.7694 59.7982 49.4306 61.4464 64.1138C62.3735 72.2881 60.5707 77.2338 50.733 76.9263C37.0582 76.4138 23.3318 76.5931 9.5281 76.9263C2.23998 77.0544 -0.41251 73.9538 -0.0519665 66.907C0.797885 51.1732 8.6526 41.3075 24.5938 35.7982Z" fill="white"/>
<path d="M127.658 35.6444C114.91 24.0619 113.108 14.0937 121.426 5.50933C123.036 3.79012 124.982 2.41549 127.144 1.46929C129.306 0.523102 131.639 0.0252536 134.001 0.00606957C136.363 -0.0131145 138.704 0.446754 140.881 1.3577C143.058 2.26865 145.026 3.61154 146.664 5.30436C155.266 13.8375 153.489 24.0875 140.921 35.0806C153.978 41.205 163.97 49.61 164.949 65.1131C165.438 73.0312 163.172 77.0287 154.339 76.7212C140.664 76.2344 126.963 76.3369 113.262 76.7212C105.073 76.9262 102.807 72.8775 103.373 65.6512C104.558 50.84 112.773 41.4612 127.658 35.6444Z" fill="white"/>
<path d="M75.4827 123.179C63.0955 110.879 61.4473 100.629 70.1518 92.66C77.8778 85.6131 86.3762 85.4081 94.3339 92.2756C103.45 100.117 102.06 109.982 90.1361 123.333C103.759 129.099 112.593 138.452 113.314 153.827C113.623 160.566 111.563 164.077 103.991 164.077C89.4665 163.769 74.9161 164.512 60.4429 163.564C57.3783 163.359 52.2791 157.799 52.1503 154.57C51.5837 139.067 60.5717 129.432 75.4827 123.179Z" fill="white"/>
<path d="M108.935 36.1569H54.0039C67.6788 23.3444 90.0583 22.6781 108.935 32.4413V36.1569Z" fill="white"/>
<path d="M23.6158 85.5363C26.0108 87.6119 29.2556 89.2775 30.6463 91.8913C36.4923 102.833 42.055 113.954 47.1026 125.204C48.3645 127.997 47.2829 131.815 47.2829 137.145C29.2557 123.512 22.019 107.651 20.6025 88.7906L23.6158 85.5363Z" fill="white"/>
<path d="M144.114 88.4831C143.393 107.522 135.59 123.103 117.15 134.839C117.485 131.456 117.022 127.689 118.361 124.743C123.305 113.801 128.662 103.038 134.276 92.4294C136.134 89.7878 138.333 87.4012 140.817 85.3312L144.114 88.4831Z" fill="white"/>
</g>
<defs>
<clipPath id="clip0_1675_357">
<rect width="165" height="164" fill="white"/>
</clipPath>
</defs>
</svg>
