<svg width="174" height="188" viewBox="0 0 174 188" fill="none" xmlns="http://www.w3.org/2000/svg">
<g clip-path="url(#clip0_1687_425)">
<path d="M85.0494 4.0531C83.2294 4.7431 81.4595 5.8931 79.5995 6.0531C64.9395 7.2631 51.5995 11.7331 40.2795 21.4131C34.5686 26.1791 29.879 32.0495 26.4921 38.672C23.1052 45.2946 21.0907 52.533 20.5695 59.9531C20.2795 63.3331 21.5694 66.8331 21.4794 70.2631C21.3194 78.3231 18.2295 85.4431 13.7795 92.0831C11.3786 95.4797 9.23267 99.0494 7.35943 102.763C4.65943 108.463 6.47947 112.093 12.7795 112.423C18.3095 112.713 19.2395 115.053 18.9495 119.873C18.4295 128.683 18.3794 137.523 18.2994 146.343C18.2094 156.173 21.3695 159.213 31.0295 159.343C36.1695 159.403 41.3895 159.343 46.4495 160.133C56.0895 161.683 59.0594 165.583 59.1294 175.423C59.1294 177.543 59.1294 179.663 59.1294 182.043H126.399C126.399 177.123 126.349 172.363 126.399 167.603C126.489 161.273 126.889 154.943 126.789 148.603C126.669 141.103 129.789 135.103 134.579 129.723C143.579 119.613 152.579 109.583 156.299 96.0331C156.529 95.1631 158.209 94.6831 159.219 94.0331L160.689 95.1431C158.339 100.503 156.619 106.283 153.469 111.143C148.769 118.208 143.58 124.934 137.939 131.273C132.815 136.82 130.049 144.143 130.229 151.693C130.379 161.523 130.149 171.353 130.369 181.173C130.439 184.763 129.569 186.173 125.669 186.173C103.849 186 82.0261 186 60.1995 186.173C56.4095 186.173 55.0594 184.803 55.3694 181.173C55.5194 179.523 55.3694 177.843 55.3694 176.173C55.3094 167.003 52.6294 163.973 43.3694 163.243C39.0594 162.903 34.7094 163.083 30.3694 163.073C19.7194 163.073 14.6395 158.243 14.5795 147.583C14.5195 138.923 14.8294 130.253 15.1694 121.583C15.2994 118.333 14.8494 116.523 10.9194 115.943C3.73943 114.943 0.629427 109.403 3.41943 102.763C5.32943 98.2031 8.14945 93.9931 10.8195 89.7631C15.8795 81.7631 18.1995 73.7631 16.9695 63.8531C15.6695 53.3231 19.2794 43.0731 24.9194 33.9431C38.5294 11.9431 59.2495 3.1131 84.0995 2.1731L85.0494 4.0531Z" fill="white" stroke="white" stroke-width="3" stroke-miterlimit="10"/>
<path d="M131.459 86.553H101.569C94.379 86.553 89.499 81.693 89.499 74.553C89.499 54.553 89.499 34.553 89.499 14.553C89.499 7.49304 94.399 2.61304 101.499 2.61304H161.499C168.569 2.61304 173.499 7.49303 173.499 14.543C173.499 34.6097 173.499 54.673 173.499 74.733C173.499 81.733 168.569 86.583 161.599 86.593C151.579 86.5664 141.532 86.553 131.459 86.553ZM134.229 39.873C134.229 39.003 134.229 38.633 134.229 38.273C134.229 35.893 133.969 35.663 131.559 35.663H125.489C123.609 35.663 123.219 36.0731 123.189 38.0031C123.189 39.5331 123.189 41.063 123.189 42.593V68.173C123.189 70.413 123.569 70.783 125.739 70.793H131.809C133.809 70.793 134.209 70.3831 134.219 68.3831C134.219 63.2531 134.079 58.1031 134.289 52.9731C134.412 50.9738 134.932 49.0191 135.819 47.2231C136.819 45.1031 138.919 44.413 141.239 44.663C142.29 44.7215 143.292 45.1244 144.091 45.8094C144.89 46.4944 145.441 47.4235 145.659 48.453C146.029 49.878 146.23 51.3413 146.259 52.813C146.329 58.003 146.259 63.1931 146.259 68.3831C146.259 70.3831 146.689 70.763 148.689 70.773C150.879 70.773 153.059 70.773 155.249 70.773C157.139 70.773 157.569 70.3431 157.579 68.4431C157.579 65.3831 157.639 62.323 157.579 59.263C157.469 54.843 157.579 50.393 157.069 46.013C156.469 40.243 153.319 36.5131 148.429 35.5331C143.209 34.4731 138.269 34.933 134.229 39.873ZM118.139 53.243C118.139 48.173 118.139 43.093 118.139 38.013C118.139 36.143 117.659 35.673 115.819 35.653C113.639 35.653 111.449 35.653 109.269 35.653C107.829 35.653 107.099 36.303 107.099 37.713C107.099 48.0264 107.099 58.3597 107.099 68.713C107.099 70.203 107.879 70.883 109.369 70.863C111.449 70.863 113.519 70.863 115.599 70.863C117.679 70.863 118.149 70.383 118.149 68.223C118.149 63.2097 118.146 58.2164 118.139 53.243ZM119.749 25.393C119.729 23.9873 119.294 22.6187 118.499 21.4594C117.704 20.3001 116.583 19.4019 115.279 18.8775C113.975 18.3532 112.544 18.2261 111.168 18.5125C109.791 18.7988 108.53 19.4856 107.543 20.4866C106.556 21.4876 105.887 22.7581 105.62 24.1384C105.352 25.5187 105.499 26.9471 106.042 28.2442C106.584 29.5412 107.498 30.6489 108.668 31.428C109.839 32.2071 111.213 32.6229 112.619 32.623C113.564 32.6245 114.5 32.4377 115.372 32.0736C116.245 31.7096 117.036 31.1755 117.699 30.5025C118.363 29.8295 118.886 29.0311 119.238 28.1539C119.59 27.2766 119.764 26.3381 119.749 25.393Z" fill="white"/>
</g>
<defs>
<clipPath id="clip0_1687_425">
<rect width="172.6" height="186.97" fill="white" transform="translate(0.949219 0.643066)"/>
</clipPath>
</defs>
</svg>

