<svg width="198" height="219" viewBox="0 0 198 219" fill="none" xmlns="http://www.w3.org/2000/svg">
<g clip-path="url(#clip0_1687_433)">
<path d="M197.884 119.553C197.884 172.443 157.394 214.723 103.434 218.193C53.7042 221.393 7.97421 182.933 1.43421 132.403C-1.74951 107.33 4.76715 81.9874 19.6511 61.5603C34.5351 41.1331 56.6615 27.1649 81.5042 22.5128C83.5042 22.1428 85.6942 20.2628 86.8942 18.5128C90.1242 13.6828 92.6942 8.41277 95.8942 3.51277C98.1642 -0.00723052 100.484 0.0127769 102.774 3.58278C105.914 8.48278 108.474 13.7528 111.704 18.5828C112.987 20.531 114.929 21.9512 117.174 22.5828C163.744 31.2928 197.884 72.2028 197.884 119.553ZM169.464 123.093C163.924 162.146 141.721 184.399 102.854 189.853V211.253C154.934 210.313 192.084 163.173 190.394 123.093H169.464ZM95.7542 190.093C89.0442 188.513 82.3242 187.713 76.2042 185.363C49.7242 175.223 34.2042 156.043 30.0042 127.823C29.7442 126.103 28.2742 123.243 27.2142 123.163C20.7842 122.733 14.3142 122.953 7.87421 122.953C7.44421 168.903 48.9342 211.313 95.7542 211.103V190.093ZM86.5842 147.963C82.3642 147.453 80.7042 148.823 80.2542 152.123C79.5542 157.303 77.9242 157.843 73.7342 154.393C71.0342 152.173 68.6442 152.393 67.4042 155.673C65.7642 159.903 63.0242 159.673 60.4042 157.403C54.7642 152.533 49.4042 147.403 44.0542 142.133C42.0542 140.183 40.5842 137.723 38.2442 134.693C44.8242 163.823 71.7942 183.593 102.374 182.693C129.374 181.863 155.924 160.083 159.944 134.983C158.856 136.615 157.663 138.174 156.374 139.653C150.254 145.713 144.164 151.813 137.784 157.593C135.354 159.793 132.714 159.743 131.154 155.903C129.734 152.393 127.414 152.173 124.504 154.603C123.384 155.543 121.504 156.603 120.404 156.223C119.304 155.843 118.494 153.783 118.284 152.353C117.774 148.893 116.174 147.413 112.004 148.063C112.644 151.223 113.434 154.063 113.754 156.973C114.074 159.883 117.684 164.113 112.614 165.403C107.734 166.653 107.814 161.403 107.474 158.563C105.724 144.213 104.404 129.803 103.064 115.403C102.824 112.863 102.784 110.963 99.3242 110.973C96.0442 110.973 95.3242 112.463 95.4342 115.233C95.5518 117.901 95.4783 120.575 95.2142 123.233C93.6276 136.093 91.9609 148.943 90.2142 161.783C89.8742 164.263 88.4442 166.703 85.6042 165.333C84.4542 164.783 83.8142 161.813 84.0242 160.073C84.4942 156.063 85.6242 152.243 86.5842 147.903V147.963ZM119.954 102.533C122.404 69.7128 117.294 39.0328 99.5042 10.8528C84.1442 29.9228 73.8942 75.9328 78.8942 102.653C92.4679 105.203 106.403 105.142 119.954 102.473V102.533ZM81.2542 29.9528C41.7242 35.6328 7.08419 75.5028 7.97419 116.113H29.2242C29.4716 115.408 29.6655 114.686 29.8042 113.953C32.9309 86.5128 47.0276 66.9961 72.0942 55.4028C73.2843 54.9092 74.2471 53.9892 74.7942 52.8228C77.0342 45.2428 79.0842 37.6028 81.2542 29.9528ZM190.814 116.103C193.444 78.7328 150.814 29.1028 117.224 30.1028C119.224 36.7828 121.484 43.3928 123.034 50.1728C123.764 53.3728 125.234 54.8928 128.034 56.1728C148.114 65.5128 161.034 81.0328 166.764 102.383C167.974 106.843 168.494 111.483 169.324 116.053L190.814 116.103ZM60.5542 149.463C65.5542 148.273 69.2142 147.393 72.9142 146.463C73.8216 146.268 74.7016 145.963 75.5342 145.553C79.1442 143.623 82.7042 141.613 87.7042 138.843C88.1342 130.923 88.7042 121.023 89.2342 110.903C87.6083 110.762 85.9922 110.525 84.3942 110.193C75.3942 107.683 72.4842 110.823 68.5342 118.643C66.5342 122.643 64.8142 126.833 62.5342 130.643C61.7142 132.023 59.6342 132.643 58.1242 133.643C57.3042 132.173 55.8342 130.743 55.7742 129.243C55.5142 122.763 56.2742 116.193 55.5142 109.793C54.1942 98.6128 57.6542 90.3328 67.7742 84.9628C69.2242 84.1928 70.9642 82.5228 71.1642 81.0728C71.9942 75.0728 72.2742 68.9928 72.8242 62.1928C53.2542 72.2828 41.4042 87.3328 37.2542 108.293C36.6242 111.503 35.4842 115.523 36.7642 118.053C43.0542 130.363 50.3042 142.103 60.5542 149.463ZM138.004 149.403C145.204 144.403 150.644 135.873 156.624 127.663C162.274 119.913 162.934 112.133 160.254 103.293C154.654 84.8028 143.584 71.1428 125.644 62.2928C125.924 65.5428 126.444 68.1628 126.304 70.7528C125.854 79.0728 128.614 85.3828 136.304 89.4028C140.124 91.4028 142.714 94.7628 142.754 99.4028C142.824 109.403 142.904 119.403 142.754 129.403C142.754 130.853 141.144 132.273 140.284 133.703C138.804 132.703 136.784 131.993 135.944 130.593C133.744 126.893 132.074 122.873 130.164 119.003C126.164 110.953 123.244 107.633 114.024 110.233C112.464 110.562 110.884 110.792 109.294 110.923C109.854 121.153 110.404 131.043 110.844 138.923C115.774 141.563 119.244 143.423 122.724 145.273C123.513 145.8 124.362 146.229 125.254 146.553C129.054 147.433 132.934 148.263 138.004 149.403ZM70.4942 91.8328C61.4242 97.1528 60.2742 100.543 62.8542 113.833C68.2542 107.753 75.1342 101.873 70.4942 91.8328ZM128.164 91.7628C123.004 102.053 130.434 107.713 135.884 114.113C136.494 94.4128 137.654 98.6728 128.164 91.7628Z" fill="white"/>
<path d="M112.254 58.8929C112.181 62.3407 110.741 65.6183 108.252 68.0047C105.762 70.3911 102.427 71.6908 98.9789 71.6179C95.531 71.545 92.2534 70.1054 89.867 67.6158C87.4806 65.1263 86.181 61.7907 86.2539 58.3429C86.3268 54.8951 87.7664 51.6175 90.256 49.2311C92.7455 46.8447 96.0811 45.545 99.5289 45.6179C102.977 45.6908 106.254 47.1304 108.641 49.62C111.027 52.1095 112.327 55.4451 112.254 58.8929ZM99.1139 52.5529C98.282 52.55 97.4587 52.7201 96.6961 53.0524C95.9336 53.3847 95.2484 53.872 94.6842 54.4832C94.12 55.0944 93.689 55.8163 93.4187 56.6029C93.1484 57.3896 93.0445 58.224 93.1139 59.0529C93.3339 62.8129 95.5339 64.8029 99.1839 65.0529C100.019 65.0969 100.854 64.9658 101.636 64.6681C102.417 64.3703 103.128 63.9126 103.722 63.3241C104.316 62.7356 104.78 62.0294 105.086 61.2508C105.391 60.4722 105.53 59.6384 105.494 58.8029C105.518 57.9644 105.369 57.1299 105.055 56.3518C104.742 55.5738 104.27 54.8692 103.671 54.2821C103.072 53.6951 102.358 53.2384 101.573 52.9408C100.789 52.6432 99.9517 52.5112 99.1139 52.5529Z" fill="white"/>
</g>
<defs>
<clipPath id="clip0_1687_433">
<rect width="197.27" height="217.52" fill="white" transform="translate(0.614258 0.842773)"/>
</clipPath>
</defs>
</svg>
