<svg width="197" height="196" viewBox="0 0 197 196" fill="none" xmlns="http://www.w3.org/2000/svg">
<g clip-path="url(#clip0_1687_429)">
<path d="M101.074 19.9807H122.125C121.03 18.1739 120.538 16.6906 119.522 15.7912C115.373 12.1302 114.762 7.00967 118.253 3.30928C119.048 2.47159 120.009 1.80707 121.075 1.35775C122.142 0.908423 123.291 0.684062 124.449 0.698893C125.607 0.713725 126.75 0.967412 127.804 1.4439C128.859 1.92038 129.802 2.6093 130.575 3.46707C133.884 7.15956 133.027 12.2249 129.028 15.9884C127.782 17.1482 127.219 19.5231 127.179 21.3536C127.116 24.5648 125.941 25.8587 122.688 25.7798C116.61 25.6378 110.525 25.8351 104.439 25.6694C101.836 25.5984 100.836 26.4584 101.035 29.0542C101.193 31.1213 101.035 33.2122 101.035 35.5397H145.913C144.85 33.796 144.326 32.289 143.286 31.3738C139.137 27.7286 138.526 22.5923 142.001 18.884C142.791 18.0407 143.749 17.3707 144.815 16.9166C145.88 16.4626 147.029 16.2346 148.188 16.2472C149.347 16.2599 150.491 16.5128 151.546 16.99C152.601 17.4671 153.544 18.1579 154.316 19.0181C157.64 22.7027 156.886 27.9417 152.784 31.5079C151.72 32.5184 151.061 33.8778 150.927 35.3346C150.578 41.3467 150.681 41.3625 144.532 41.3546H106.446H101.067C101.067 44.5106 101.003 47.493 101.067 50.4438C101.13 53.3946 99.797 54.5703 96.7898 54.7438C73.8985 56.0615 55.8633 73.2379 54.6493 94.738C53.3162 118.171 68.6617 137.257 91.9418 141.17C100.836 142.661 100.836 142.661 101.027 151.648C101.027 152.555 101.162 153.463 101.273 154.883H105.581C119.07 154.883 132.559 154.954 146.048 154.796C149.69 154.749 151.253 156.067 150.808 159.625C150.507 162.173 151.292 163.878 153.522 165.542C157.331 168.383 157.347 174.063 154.062 177.425C153.28 178.231 152.342 178.871 151.305 179.306C150.267 179.741 149.152 179.962 148.026 179.957C146.9 179.951 145.787 179.718 144.754 179.272C143.721 178.825 142.79 178.176 142.017 177.361C138.74 173.921 139.065 168.683 142.604 165.361C143.818 164.225 144.715 162.757 146.389 160.627H101.566C101.407 160.925 101.282 161.24 101.193 161.566C100.352 170.466 100.352 170.466 109.128 170.466C113.619 170.466 118.118 170.552 122.617 170.403C125.791 170.292 127.378 171.507 127.068 174.774C126.854 177.322 127.211 179.31 129.718 181.086C133.59 183.871 133.59 189.575 130.329 192.92C129.543 193.721 128.604 194.357 127.566 194.789C126.527 195.222 125.413 195.442 124.287 195.437C123.162 195.431 122.049 195.201 121.015 194.759C119.981 194.318 119.047 193.673 118.269 192.865C114.976 189.417 115.301 184.186 118.856 180.88C119.97 179.672 120.989 178.379 121.903 177.014L120.982 176.139H101.067C101.067 181.109 100.94 185.922 101.114 190.719C101.249 194.333 99.7335 195.792 96.1788 195.54C94.2031 195.398 92.2115 195.54 90.2279 195.54C83.3645 195.414 80.4604 192.747 79.7146 185.914C78.7148 176.699 73.7795 170.836 65.2895 168.832C59.2989 167.42 54.0621 168.998 49.4203 172.864C43.5646 177.74 39.6767 177.598 34.2733 172.241C30.4329 168.446 26.5688 164.659 22.7919 160.793C18.5786 156.485 18.3644 152.003 22.3555 147.49C27.5527 141.604 29.1634 135.111 26.1165 127.765C23.0696 120.42 17.2536 117.035 9.45387 116.427C3.38392 115.962 0.424334 112.782 0.297381 106.739C0.178362 101.089 0.202166 95.4323 0.297381 89.7752C0.40053 83.2265 3.20144 80.2126 9.81888 79.6287C17.4599 78.966 23.1252 75.5101 26.1165 68.3697C29.1792 61.0558 27.5764 54.5544 22.3872 48.6449C18.4199 44.1082 18.5628 39.6188 22.7602 35.3346C26.9576 31.0503 31.1073 26.9002 35.3761 22.7817C39.51 18.8367 44.1042 18.6237 48.4682 22.4424C54.3636 27.6261 60.87 29.3066 68.2491 26.3242C75.6283 23.3418 79.1195 17.598 79.7701 9.83426C80.3017 3.5223 83.428 0.603023 89.7836 0.587243C102.733 0.587243 100.94 -0.785607 101.067 11.6332C101.098 14.2921 101.074 16.9115 101.074 19.9807ZM95.306 6.71772C86.9509 5.2423 86.0305 5.84984 84.9911 13.0928C83.666 22.0795 78.5799 28.2731 70.2407 31.6105C61.7031 35.0347 53.6415 33.725 46.4369 28.0048C41.9618 24.4622 41.7476 24.4228 37.6613 28.4782C34.2891 31.8235 31.0201 35.2715 27.5368 38.4905C24.847 40.968 24.6724 43.1298 27.2432 45.8361C30.9247 49.6795 33.0592 54.7332 33.2417 60.038C33.8686 73.1905 24.7835 83.4474 11.0249 85.0412C8.27954 85.3568 5.96268 85.7592 5.95474 89.1677C5.95474 95.0851 5.95474 101.003 5.95474 106.92C5.95474 109.421 7.22428 110.739 9.82682 110.944C11.9359 111.072 14.0274 111.405 16.0713 111.938C32.6308 116.672 38.6452 136.728 27.5289 150.046C24.4106 153.786 24.4264 154.465 27.8542 157.936C31.2819 161.408 34.5668 164.643 37.947 167.98C41.6366 171.633 42.1999 171.641 46.1434 168.406C51.8801 163.672 58.3944 161.771 65.7338 163.238C76.9613 165.479 83.8564 173.203 85.2926 185.038C85.5465 187.177 85.5306 189.504 88.3712 189.772C90.6485 189.993 92.9653 189.82 95.5123 189.82V147.324C63.5677 143.545 50.2297 119.71 49.1268 101.626C48.4127 89.9251 51.2771 79.1869 58.1802 69.6637C67.2891 57.1108 79.905 50.5148 95.3536 48.9605L95.306 6.71772ZM128.361 8.95059C126.338 7.67242 125.267 6.45735 124.243 6.4968C123.339 6.4968 121.665 8.13793 121.792 8.72967C122.038 9.82638 123.244 11.286 124.251 11.4675C125.259 11.649 126.33 10.2761 128.361 8.95059ZM148.293 28.5413C149.507 26.5136 150.674 25.3853 150.618 24.3991C150.562 23.4128 148.888 21.8506 148.317 22.0321C147.206 22.324 145.746 23.5391 145.588 24.5569C145.445 25.4406 146.881 26.5609 148.293 28.5413ZM152.149 171.515C150.134 170.284 149.039 169.101 148.015 169.148C147.111 169.203 145.461 170.837 145.635 171.428C145.897 172.533 147.119 174.008 148.134 174.174C148.999 174.324 150.158 172.904 152.149 171.515ZM128.346 187.098C126.267 185.835 125.045 184.518 124.156 184.731C123.148 184.952 121.99 186.443 121.776 187.547C121.665 188.131 123.363 189.693 124.299 189.701C125.235 189.709 126.378 188.439 128.369 187.098H128.346Z" fill="white"/>
<path d="M130.051 116.775H161.186C167.026 116.775 167.209 116.964 167.209 122.771C167.209 131.686 167.209 140.602 167.209 150.015C170.287 150.015 173.049 150.252 175.738 149.904C176.881 149.754 178.031 148.524 178.912 147.537C182.245 143.798 187.751 143.403 191.242 146.748C192.041 147.537 192.673 148.476 193.101 149.51C193.53 150.545 193.746 151.654 193.737 152.773C193.728 153.891 193.494 154.997 193.05 156.025C192.605 157.052 191.958 157.981 191.147 158.757C190.328 159.58 189.338 160.214 188.246 160.616C187.154 161.018 185.987 161.178 184.827 161.084C183.666 160.99 182.54 160.645 181.528 160.072C180.516 159.5 179.642 158.714 178.968 157.771C177.547 155.822 176.08 155.467 174.001 155.538C171.366 155.625 168.716 155.467 166.066 155.577C162.892 155.711 161.535 154.386 161.583 151.143C161.702 142.464 161.583 133.785 161.583 125.106C161.583 124.317 161.472 123.576 161.393 122.534C159.933 122.455 158.647 122.329 157.37 122.321C150.76 122.321 144.143 122.518 137.533 122.258C130.321 121.982 124.283 123.165 117.959 127.844C103.026 138.89 81.5866 135.063 69.9942 120.601C64.2979 113.565 61.4731 104.655 62.0812 95.6425C62.6893 86.63 66.6859 78.1751 73.2763 71.9587C79.8668 65.7423 88.5685 62.2198 97.6514 62.0913C106.734 61.9628 115.533 65.2378 122.299 71.2653C123.165 72.1315 124.203 72.81 125.346 73.2581C126.489 73.7062 127.712 73.9142 128.94 73.869C139.628 73.7349 150.324 73.8137 161.583 73.8137V57.1028C161.583 52.8975 161.639 48.6843 161.583 44.4789C161.583 41.8358 162.741 40.5813 165.376 40.5971C167.359 40.5971 169.343 40.5497 171.327 40.5971C174.612 40.6996 177.428 40.6917 179.88 37.4411C182.538 33.9143 187.997 34.3482 191.211 37.4411C192.721 38.9395 193.606 40.9495 193.69 43.0692C193.774 45.1889 193.05 47.2619 191.663 48.8736C188.759 52.1637 182.887 53.15 180.396 49.7258C176.754 44.7078 172.223 46.4277 167.185 46.1516V58.5783C167.185 63.7067 167.185 68.8352 167.185 73.9637C167.185 79.0921 166.796 79.4235 161.821 79.4314C152.561 79.4314 143.31 79.4314 134.05 79.4314C132.773 79.4314 131.487 79.534 130.265 79.5892C131.598 84.4415 132.781 89.0571 134.233 93.6333C134.471 94.4223 135.923 95.2113 136.827 95.2113C150.443 95.3138 164.059 95.3375 177.682 95.2113C178.833 95.2113 180.229 94.1461 181.086 93.1993C184.697 89.1676 190.044 88.6468 193.663 92.15C194.465 92.9333 195.101 93.8694 195.533 94.9024C195.964 95.9354 196.181 97.0441 196.172 98.1625C196.164 99.2809 195.928 100.386 195.481 101.412C195.033 102.438 194.382 103.364 193.567 104.135C189.902 107.575 184.697 106.936 180.975 102.912C179.857 101.769 178.354 101.078 176.754 100.971C163.797 100.821 150.84 100.971 137.874 100.837C135.304 100.837 134.304 101.523 133.796 104.222C133.042 108.285 131.455 112.23 130.051 116.775ZM67.3678 101.145C68.6929 105.09 69.5499 108.585 71.0574 111.812C73.9139 117.934 74.747 118.076 80.7535 114.905C79.9547 110.323 79.1612 105.736 78.3731 101.145H67.3678ZM115.769 116.088C118.284 116.088 121.72 117.066 122.791 115.907C126.441 111.962 128.345 106.912 128.536 100.916C125.449 100.916 122.704 100.758 119.99 101.01C119.492 101.154 119.037 101.417 118.665 101.776C118.293 102.135 118.015 102.579 117.856 103.07C117.007 107.007 116.491 111.023 115.713 116.088H115.769ZM67.1853 94.2092L68.4073 95.2902C71.0016 95.4247 73.6021 95.3852 76.1911 95.1718C76.7857 95.002 77.3301 94.6915 77.7777 94.2669C78.2254 93.8424 78.5631 93.3163 78.7619 92.7338C79.5554 89.065 79.9838 85.3094 80.5948 81.2776L73.5251 78.9107C71.4145 84.0944 69.3118 89.1518 67.1853 94.2092ZM129.186 94.9982C127.845 91.0533 126.972 87.5659 125.473 84.3468C122.759 78.5004 121.759 78.3505 115.88 81.7589C116.673 86.1852 117.403 90.6193 118.165 94.9982H129.186ZM84.0622 101.184C84.8557 105.697 85.5935 109.863 86.3553 114.155L95.1309 113.185V101.184H84.0622ZM110.246 114.123C110.96 109.729 111.635 105.594 112.341 101.271H101.304V113.177L110.246 114.123ZM95.0754 95.1008V83.3685L86.1014 82.5242C85.4428 86.7532 84.816 90.7692 84.1495 95.0693L95.0754 95.1008ZM112.428 95.1008C111.635 90.5956 110.968 86.5718 110.278 82.4769L101.304 83.4395V95.0535L112.428 95.1008ZM87.9263 77.2537L95.0675 77.6167V70.1922L94.2185 69.782L87.9263 77.2537ZM101.296 77.7745L108.437 76.9855L102.137 69.7662L101.304 70.2633L101.296 77.7745ZM94.9484 127.379V118.921L88.3389 119.552C90.6955 122.282 92.4332 124.333 94.9564 127.331L94.9484 127.379ZM101.296 125.951L102.272 126.471C104.065 124.38 105.858 122.29 108.191 119.583L101.296 118.992V125.951ZM189.441 43.3349C187.37 42.0725 186.125 40.7233 185.244 40.9206C184.236 41.1494 183.094 42.6879 182.864 43.8083C182.76 44.4158 184.506 45.9622 185.411 45.9543C186.474 45.907 187.497 44.6446 189.441 43.2875V43.3349ZM189.441 153.005C187.513 151.624 186.506 150.354 185.474 150.338C184.569 150.338 182.8 151.845 182.903 152.453C183.078 153.573 184.197 155.12 185.204 155.364C186.093 155.506 187.355 154.173 189.441 152.934V153.005ZM191.925 98.241C189.917 96.8997 188.751 95.5584 187.878 95.7004C187.005 95.8425 185.633 97.2785 185.395 98.3357C185.26 98.9511 186.863 100.576 187.775 100.624C188.767 100.608 189.854 99.4245 191.925 98.17V98.241ZM85.5142 71.2022L85.0699 70.5867L78.4683 74.6106L82.872 75.8809L85.5142 71.2022ZM118.141 74.6106L111.484 70.6657L111.04 71.3047L113.801 75.9756L118.141 74.6106Z" fill="white"/>
</g>
<defs>
<clipPath id="clip0_1687_429">
<rect width="196" height="195" fill="white" transform="translate(0.209961 0.603027)"/>
</clipPath>
</defs>
</svg>
