<svg width="88" height="88" viewBox="0 0 88 88" fill="none" xmlns="http://www.w3.org/2000/svg">
<g clip-path="url(#clip0_959_697)">
<path d="M43.2982 0.928234C51.9089 0.863441 60.3451 3.35617 67.5383 8.09068C74.7315 12.8252 80.358 19.5884 83.7049 27.5237C87.0519 35.459 87.9689 44.2093 86.3396 52.6663C84.7104 61.1232 80.6082 68.9063 74.5528 75.0296C68.4974 81.1529 60.7613 85.3408 52.3242 87.0631C43.8871 88.7853 35.1287 87.9643 27.1585 84.704C19.1883 81.4437 12.3648 75.891 7.55249 68.7489C2.74014 61.6069 0.155389 53.197 0.125675 44.5845C0.0626707 38.8741 1.13288 33.2079 3.27427 27.9139C5.41567 22.62 8.58564 17.8035 12.6009 13.7433C16.6161 9.68303 21.3968 6.45976 26.666 4.26004C31.9352 2.06031 37.5884 0.927886 43.2982 0.928234ZM39.5615 48.575C39.5615 53.7566 39.1149 58.2234 39.7699 62.5117C40.0826 64.5664 42.5091 66.2936 43.9829 68.1846C45.2185 66.3234 47.2879 64.5664 47.5409 62.5712C47.8768 57.9183 47.9315 53.2493 47.7047 48.5898C52.9003 48.5898 57.3515 49.0366 61.6389 48.3814C63.6934 48.0687 65.4352 45.6268 67.311 44.1527C65.4501 42.9169 63.6934 40.8621 61.6985 40.609C57.0415 40.2731 52.3683 40.2184 47.7047 40.4452C47.7047 35.2488 48.1662 30.7819 47.5111 26.4937C47.1985 24.4389 44.7571 22.7117 43.2833 20.8356C42.0476 22.6968 39.9932 24.4538 39.7401 26.449C39.4042 31.1019 39.3496 35.7708 39.5764 40.4303C34.3808 40.4303 29.9296 39.9837 25.6421 40.6388C23.5728 40.9515 21.8458 43.3785 19.9701 44.8526C21.8309 46.0884 23.5876 48.158 25.5676 48.4111C30.2262 48.7223 34.8993 48.7521 39.5615 48.5005V48.575Z" fill="white" fill-opacity="0.78"/>
</g>
<defs>
<clipPath id="clip0_959_697">
<rect width="87" height="87" fill="white" transform="translate(0.140381 0.928223)"/>
</clipPath>
</defs>
</svg>
