<svg width="68" height="64" viewBox="0 0 68 64" fill="none" xmlns="http://www.w3.org/2000/svg">
<g clip-path="url(#clip0_1921_468)">
<path d="M51.3015 56.8237H2.8349C0.932254 56.8237 0.93226 56.8237 0.93226 54.9167C0.93226 53.7713 0.93226 52.6234 0.93226 51.4781C0.897423 47.9654 2.3311 45.1696 5.41285 43.4424C7.82909 42.1139 10.3363 40.9534 12.9163 39.9694C15.5096 38.9399 17.9619 37.5937 20.216 35.9622C21.5344 35.0258 21.856 34.0604 21.8239 32.7881C21.7508 32.0824 21.5123 31.4032 21.1271 30.8043C19.8944 28.6459 18.5947 26.5272 17.2682 24.3001C15.379 24.7656 14.7868 24.3715 14.3017 22.0174C14.0498 20.8113 13.7229 19.6157 13.5353 18.399C13.2298 16.431 13.8033 15.7354 15.6041 15.5688C15.5076 13.6855 15.2343 11.8022 15.3575 9.94272C15.5532 6.94851 17.1155 4.59177 19.6157 2.93596C23.5416 0.333225 27.848 -0.314816 32.401 0.925716C33.3201 1.19022 34.3278 1.60285 34.9682 2.24825C35.8927 3.19782 36.8441 3.28776 38.0526 3.21899C41.6623 3.01796 43.7231 4.90388 43.4792 8.45355C43.3184 10.7918 42.6217 13.0956 42.1608 15.4365C44.125 16.0634 44.5136 16.7379 44.0366 18.9597C43.7927 20.0786 43.5516 21.1974 43.2916 22.3137C42.8146 24.3847 42.1152 24.7947 40.0035 24.1652C39.8156 24.8229 39.5801 25.4664 39.2988 26.0908C38.5189 27.5641 37.9133 29.2358 36.7771 30.3837C35.3005 31.8756 35.7963 33.3885 36.1446 34.9068C36.2545 35.3882 37.2567 35.6262 37.7525 36.0785C39.724 37.8562 42.1014 39.1375 44.6824 39.8134C45.3765 39.078 46.1644 38.4168 46.7164 37.5994C47.0771 37.0123 47.2629 36.3366 47.2524 35.65C47.2256 33.0738 48.5922 31.6825 51.189 31.8332C51.6523 31.8796 52.12 31.8094 52.5483 31.629C52.9766 31.4486 53.3516 31.1639 53.6383 30.8016C55.3319 28.8893 57.4838 28.8919 59.1479 30.8016C59.4338 31.165 59.8094 31.4499 60.2387 31.6291C60.668 31.8083 61.1367 31.8759 61.5999 31.8253C64.1913 31.6666 65.6518 33.087 65.5071 35.6474C65.4571 36.1255 65.533 36.6082 65.7273 37.0488C65.9217 37.4895 66.2279 37.8732 66.6165 38.1628C68.4119 39.6705 68.3396 41.8236 66.6728 43.453C66.1368 43.982 65.5794 44.8125 65.5526 45.524C65.432 48.6822 64.4995 49.7376 61.3587 49.8725C61.3587 51.5707 61.3105 53.2688 61.3587 54.9643C61.4418 57.2998 61.6267 59.6301 61.7098 61.9657C61.7259 62.4022 61.4847 62.8492 61.3641 63.2883C60.9353 63.119 60.4369 63.0237 60.0885 62.7592C58.8612 61.815 57.6767 60.8072 56.3904 59.7465C55.1175 60.786 53.909 61.8123 52.6387 62.7751C52.293 63.0396 51.7973 63.1005 51.3685 63.2565C51.2586 62.8545 51.0469 62.463 51.0577 62.0504C51.1059 60.3813 51.2131 58.6779 51.3015 56.8237ZM35.4318 11.416C34.0115 12.9607 32.4412 13.1538 30.7985 13.0903C29.6837 13.048 28.5689 12.9845 27.4541 12.929C25.2915 12.8205 23.0941 12.802 21.1995 13.9341C18.6028 15.4868 17.3969 16.5792 18.182 19.777C18.2612 20.1208 18.3202 20.4688 18.3589 20.8192C19.0154 25.985 21.4165 30.143 25.6694 33.251C26.953 34.1873 30.3965 34.4122 31.6024 33.4996C34.9629 30.9577 37.782 28.0005 38.6529 23.7129C39.0576 21.7291 39.5024 19.7453 39.6927 17.7298C39.7945 16.6347 39.4033 15.4947 39.1996 14.1457C37.5328 15.701 37.2434 15.9787 36.619 13.8812C36.4019 13.1115 35.9169 12.4053 35.4318 11.416ZM61.3614 48.4918C63.4624 48.5738 64.2717 47.8438 64.1404 45.8891C64.0754 45.2528 64.1762 44.6108 64.4332 44.0238C64.6902 43.4368 65.0949 42.9244 65.6089 42.5351C66.9488 41.4269 66.9488 40.1784 65.6089 39.0966C65.0919 38.7116 64.6848 38.2011 64.427 37.6148C64.1692 37.0284 64.0695 36.3862 64.1377 35.7506C64.2663 33.8355 63.4785 33.0685 61.541 33.1875C60.9185 33.2518 60.2895 33.1613 59.7115 32.9243C59.1334 32.6873 58.6246 32.3113 58.2314 31.8306C56.98 30.3811 55.7875 30.3599 54.5548 31.7883C54.1503 32.2872 53.6242 32.6767 53.0257 32.9205C52.4273 33.1643 51.776 33.2543 51.1327 33.1822C49.2863 33.0579 48.5145 33.8355 48.6324 35.6976C48.698 36.3326 48.5996 36.9736 48.3466 37.561C48.0936 38.1483 47.6941 38.6629 47.1854 39.0569C45.7865 40.2207 45.7999 41.4374 47.2068 42.596C47.7005 42.9752 48.0903 43.4704 48.3407 44.0363C48.5911 44.6022 48.6942 45.2209 48.6405 45.8362C48.5306 47.9205 49.2381 48.5844 51.4168 48.4812C51.996 48.4324 52.5785 48.5241 53.1138 48.7481C53.649 48.9721 54.1206 49.3218 54.4878 49.7667C55.8277 51.2929 56.8996 51.3114 58.2395 49.8038C59.097 48.8224 60.118 48.3463 61.3614 48.4918ZM40.636 14.4208H41.0754C41.4426 12.3048 42.0026 10.2125 42.1232 8.08854C42.2572 5.68683 40.9334 4.55209 38.4895 4.53887C37.7766 4.53887 37.0558 4.72138 36.3456 4.65525C35.8321 4.56643 35.3451 4.36584 34.92 4.06805C33.9981 3.49142 33.1969 2.57094 32.2 2.28263C27.6872 0.960103 23.4291 1.63723 19.7095 4.56002C16.5742 7.02522 15.5826 12.0032 17.4022 15.299C20.2991 12.4026 22.3089 11.5324 26.2857 11.5615C28.0678 11.5747 29.8579 11.8048 31.6453 11.7043C32.4841 11.6567 33.5211 11.2626 34.0571 10.6648C34.7833 9.85279 35.397 9.94536 35.9731 10.4797C36.7288 11.1806 37.313 12.0667 37.9535 12.8602C38.7574 11.7202 39.1058 11.7361 39.891 13.0507C40.1536 13.4897 40.3894 13.9606 40.636 14.4208ZM2.31502 55.406H19.1173L13.0878 41.1041C10.6009 42.3315 8.20252 43.3815 5.94346 44.6697C3.72728 45.934 2.49458 47.9654 2.33915 50.5153C2.23464 52.0891 2.31234 53.6735 2.31234 55.406H2.31502ZM44.4493 41.3872C42.5038 46.0002 40.5449 50.6449 38.5538 55.3716H51.3819C51.4677 53.483 51.5454 51.695 51.6258 49.9148C48.193 49.7244 47.389 48.8436 47.2711 45.4738C47.242 44.9555 47.0614 44.4567 46.7512 44.0375C46.0786 43.1514 45.2908 42.35 44.4413 41.3977L44.4493 41.3872ZM25.0476 47.5369C23.2576 49.0922 23.48 49.4811 21.9766 47.1402C21.8346 46.918 21.6872 46.6958 21.5425 46.4736C20.082 44.228 18.6215 41.977 17.1342 39.697L14.626 40.6968C14.5965 40.8555 14.5697 40.9058 14.5831 40.9402C16.5233 45.6113 18.4581 50.2851 20.4304 54.959C20.5142 55.0959 20.6285 55.2122 20.7645 55.2993C20.9005 55.3863 21.0547 55.4418 21.2156 55.4615C22.5421 55.5144 23.8712 55.4853 25.3183 55.4853C25.53 53.7343 25.6399 52.0679 25.9588 50.4412C26.1812 49.2853 25.9883 48.3781 25.045 47.5475L25.0476 47.5369ZM32.3394 55.4721C33.631 55.4721 34.7887 55.4245 35.9383 55.488C36.7878 55.5382 37.1737 55.2235 37.4953 54.43C39.2291 50.1979 41.0352 45.9658 42.8119 41.7495C42.9406 41.4374 43.0263 41.1094 43.155 40.718L40.4939 39.7128C38.8057 42.3076 37.2032 44.794 35.5819 47.2671C34.4912 48.9282 34.5957 49.4625 32.7547 47.6269C32.7118 47.5819 32.5966 47.6083 32.2884 47.5792C32.0714 48.1955 31.5997 48.878 31.6399 49.5339C31.7525 51.4886 32.0741 53.3957 32.3367 55.4853L32.3394 55.4721ZM52.4377 61.2198C53.5633 60.3073 54.5146 59.601 55.3855 58.8102C56.0742 58.1859 56.6236 58.1436 57.3364 58.7943C58.1912 59.5878 59.1452 60.257 60.2842 61.1749C60.1019 57.3818 59.9358 53.9353 59.7482 50.3301C56.8647 52.8323 56.0876 52.835 52.9657 50.4068C52.8102 53.9909 52.6334 57.4691 52.4431 61.2331L52.4377 61.2198ZM28.8208 41.7522C30.7583 40.0461 32.5725 38.4697 34.3492 36.8668C34.5904 36.6499 34.8851 36.2954 34.8717 36.0362C34.7753 35.0655 34.5502 34.108 34.3358 32.9389C32.6904 34.5973 31.0584 35.3776 28.7618 35.3961C26.4653 35.4146 24.9029 34.4545 23.271 32.9732C23.0994 34.0313 22.9145 34.8988 22.8449 35.7611C22.8152 36.1256 22.9328 36.4869 23.1718 36.7663C25.0075 38.4274 26.8833 40.0541 28.8261 41.7654L28.8208 41.7522ZM36.4984 36.7848L29.7721 42.7097L34.2715 46.8095C35.8793 44.3258 37.5971 41.6834 39.3336 39.0119L36.4984 36.7848ZM23.287 46.6879C24.7984 45.3653 26.2884 44.0719 27.8587 42.6991L21.1378 36.7848L18.3026 39.0172C20.0901 41.776 21.773 44.3629 23.2924 46.7011L23.287 46.6879ZM27.4112 49.6371C27.1808 51.4701 26.9449 53.3746 26.6957 55.3795H30.9378C30.7743 54.057 30.6189 52.8138 30.4608 51.5627C30.166 49.2668 30.1634 49.2641 27.781 49.481C27.6541 49.5253 27.532 49.582 27.4166 49.6503L27.4112 49.6371ZM31.5006 46.4895L28.8208 43.974L26.1008 46.3546C27.1379 48.1453 27.1406 48.0659 29.4559 48.1294C30.7744 48.1903 30.9968 47.2566 31.5059 46.5027L31.5006 46.4895ZM15.9578 23.2262C17.0056 22.8982 17.3674 22.5094 17.1503 21.6048C16.9171 20.5339 16.7497 19.4501 16.6492 18.3593C16.534 17.3277 16.0007 16.9045 14.6715 17.0712C15.1164 19.1449 15.5344 21.1472 15.9712 23.2394L15.9578 23.2262ZM42.9593 17.0473C41.6194 16.9468 41.0835 17.3119 40.9977 18.317C40.9117 19.4095 40.7442 20.4942 40.4966 21.5625C40.2528 22.52 40.5582 22.959 41.6918 23.1495C42.1232 21.1498 42.5333 19.174 42.9727 17.0606L42.9593 17.0473Z" fill="white"/>
<path d="M56.3797 44.9501C55.8226 44.9502 55.271 44.8414 54.7567 44.6301C54.2423 44.4187 53.7754 44.1091 53.3829 43.7189C52.9903 43.3287 52.6798 42.8657 52.4693 42.3566C52.2588 41.8475 52.1525 41.3023 52.1564 40.7524C52.1727 39.6496 52.6322 38.5984 53.4338 37.8301C54.2354 37.0617 55.3134 36.6391 56.4306 36.6552C57.5479 36.6714 58.6129 37.1249 59.3913 37.9161C60.1698 38.7073 60.5979 39.7713 60.5816 40.8741C60.564 41.9621 60.1134 42.9996 59.3271 43.7623C58.5409 44.525 57.4821 44.9517 56.3797 44.9501ZM56.3368 43.6117C57.082 43.6274 57.8033 43.3524 58.3442 42.8462C58.8851 42.3401 59.2018 41.6438 59.2256 40.9085C59.2512 40.3468 59.1063 39.7904 58.8093 39.3106C58.5124 38.8308 58.0771 38.4494 57.5592 38.2155C57.0412 37.9815 56.4643 37.9055 55.9023 37.9973C55.3403 38.0891 54.8189 38.3445 54.405 38.7307C53.991 39.1169 53.7034 39.6164 53.5789 40.1651C53.4545 40.7137 53.4989 41.2865 53.7064 41.8101C53.914 42.3337 54.2753 42.7841 54.7439 43.1037C55.2126 43.4233 55.7672 43.5974 56.3368 43.6038V43.6117Z" fill="white"/>
</g>
<defs>
<clipPath id="clip0_1921_468">
<rect width="67" height="63" fill="white" transform="translate(0.929688 0.317383)"/>
</clipPath>
</defs>
</svg>

