<svg width="60" height="58" viewBox="0 0 60 58" fill="none" xmlns="http://www.w3.org/2000/svg">
<g clip-path="url(#clip0_1921_458)">
<path d="M38.1658 43.08C38.2661 45.8296 38.7221 48.3556 39.7512 50.7568C39.861 51.0157 40.3218 51.2512 40.637 51.277C41.5443 51.3453 42.4635 51.277 43.3779 51.3077C45.3596 51.3759 46.7874 52.8261 46.7445 54.6929C46.7039 56.5055 45.2737 57.885 43.323 57.8874C34.4507 57.9046 25.58 57.9046 16.7108 57.8874C14.7673 57.8874 13.3348 56.4938 13.299 54.6811C13.2608 52.819 14.6957 51.3853 16.6774 51.3077C17.2709 51.2429 17.8698 51.2429 18.4633 51.3077C19.8792 51.5619 20.4761 50.8745 20.7124 49.6268C21.1112 47.5222 21.5338 45.4247 21.9946 43.0683H20.4068C15.5934 43.0683 10.78 43.0683 5.96662 43.0683C2.54519 43.0683 0.541996 41.1261 0.534833 37.7503C0.515733 27.2353 0.515733 16.7242 0.534833 6.21708C0.534833 2.84129 2.55235 0.894444 5.96423 0.89209H55.1297C57.9948 0.89209 59.5038 2.34221 59.5086 5.14596C59.5245 16.0094 59.5245 26.8736 59.5086 37.7386C59.5086 41.1238 57.5054 43.0612 54.0863 43.0683C49.2729 43.0777 44.4595 43.0777 39.6461 43.0683L38.1658 43.08ZM2.27301 33.3152H57.8301V31.9969C57.8301 23.1737 57.8301 14.3505 57.8301 5.52733C57.8301 3.17322 57.1902 2.55879 54.7716 2.55879H6.32715C3.34504 2.55879 2.2157 3.66052 2.2157 6.59374C2.2157 15.0685 2.2157 23.5386 2.2157 32.004C2.2157 32.423 2.25153 32.842 2.27301 33.3152ZM2.21332 35.0949V37.2136C2.21332 40.3799 3.27581 41.4133 6.511 41.4133H53.5229C54.0006 41.4276 54.4787 41.4182 54.9554 41.3851C56.345 41.2415 57.5675 40.208 57.7131 38.8544C57.8444 37.6303 57.7394 36.3803 57.7394 35.0878L2.21332 35.0949ZM23.6683 43.1342L22.1856 51.2441H37.8387C37.3039 48.5369 36.7786 45.8673 36.239 43.1342H23.6683ZM30.0241 56.2419H41.1169C41.9143 56.2419 42.7118 56.2772 43.5045 56.2207C44.4166 56.1571 44.9824 55.6204 45.0469 54.7235C45.1185 53.7489 44.5455 53.1839 43.6143 52.9955C43.2186 52.9444 42.8186 52.9326 42.4205 52.9602H18.0909C17.6133 52.9602 17.1358 52.9296 16.6583 52.9602C15.6555 53.0497 15.0276 53.5676 14.987 54.6081C14.9512 55.505 15.6484 56.1595 16.6583 56.2301C16.9353 56.2513 17.2146 56.2301 17.4916 56.2301L30.0241 56.2419Z" fill="white"/>
<path d="M25.3586 11.2102C26.2277 8.87255 26.9894 8.16396 28.5485 8.19221C30.1076 8.22046 30.8573 8.96672 31.6022 11.2102C32.882 11.2102 34.1927 11.2478 35.4988 11.1961C36.5207 11.1584 36.9552 11.5515 36.9313 12.5685C36.886 13.8538 36.9194 15.1439 36.9194 16.3986C39.19 17.1967 40.0233 18.0771 39.9588 19.5649C39.8943 21.0527 38.956 21.9779 36.9194 22.4722C36.9194 23.7717 36.8979 25.0971 36.9194 26.4224C36.9409 27.3641 36.566 27.7902 35.58 27.7619C34.1092 27.7219 32.6384 27.7172 31.17 27.7619C30.1649 27.7949 29.7637 27.4465 29.7088 26.413C29.679 26.1054 29.5852 25.8072 29.4332 25.5371C29.2812 25.2669 29.0743 25.0306 28.8254 24.8428C28.1091 24.3979 27.3308 25.1065 27.2305 26.154C27.0777 27.7478 27.0777 27.7478 25.478 27.7501C24.086 27.7501 22.6964 27.7266 21.3045 27.7501C20.4354 27.769 20.0749 27.3688 20.0773 26.5472C20.0773 25.0594 20.1035 23.5692 20.0773 22.0744C20.0534 21.0974 20.4187 20.6619 21.4668 20.636C22.004 20.6172 22.7275 20.297 23.0092 19.878C23.4987 19.1506 22.8325 18.3431 21.8154 18.2419C20.0987 18.0748 20.0987 18.0748 20.0964 16.3304C20.0964 15.0356 20.1131 13.7408 20.0964 12.4508C20.0964 11.5727 20.4449 11.156 21.3761 11.1843C22.6964 11.2384 24.0431 11.2102 25.3586 11.2102ZM21.813 26.0269H25.4398C26.0439 23.9577 27.0108 23.049 28.5437 23.0702C30.0765 23.0914 30.9599 23.9765 31.5473 25.9987H35.2409C35.2409 24.7675 35.2409 23.6328 35.2409 22.5005C35.2409 20.822 35.2409 20.822 36.8979 20.6925C37.9365 20.6101 38.605 19.8239 38.1275 19.0753C37.8577 18.6539 37.1414 18.3266 36.6066 18.2937C35.5871 18.2301 35.174 17.8629 35.2266 16.853C35.2839 15.5723 35.2409 14.287 35.2409 12.8698C33.8083 12.8698 32.5023 12.8439 31.2011 12.8698C30.2341 12.8934 29.6778 12.592 29.7542 11.5233C29.8163 10.657 29.5704 9.89188 28.527 9.8754C27.4836 9.85893 27.1923 10.6122 27.2472 11.4762C27.3165 12.5991 26.753 12.9146 25.7287 12.8887C24.4633 12.8463 23.1931 12.8887 21.7701 12.8887C21.7701 13.7244 21.8083 14.4612 21.7581 15.191C21.7008 16.0549 21.8083 16.6034 22.8922 16.813C24.0454 17.0272 24.7713 18.1925 24.8023 19.3672C24.8396 19.9562 24.6854 20.5415 24.3621 21.0382C24.0387 21.5348 23.5631 21.9168 23.0044 22.1285C22.6177 22.2815 22.2022 22.3639 21.8106 22.4816L21.813 26.0269Z" fill="white"/>
<path d="M30.0977 39.0545C29.3814 39.0545 28.6532 39.1416 27.9489 39.0191C27.5764 38.9532 27.2732 38.5295 26.9365 38.2658C27.2493 37.9786 27.543 37.4654 27.8725 37.4442C29.3035 37.3519 30.7391 37.3519 32.1701 37.4442C32.502 37.4654 32.8029 37.9716 33.1252 38.2541C32.7933 38.5201 32.4949 38.9462 32.1248 39.0191C31.4562 39.1439 30.7615 39.0545 30.0977 39.0545Z" fill="white"/>
</g>
<defs>
<clipPath id="clip0_1921_458">
<rect width="59" height="57" fill="white" transform="translate(0.520508 0.901367)"/>
</clipPath>
</defs>
</svg>
