<svg width="44" height="44" viewBox="0 0 44 44" fill="none" xmlns="http://www.w3.org/2000/svg">
<g clip-path="url(#clip0_1921_437)">
<path d="M40.7226 18.1217C43.2634 18.4476 44.0228 19.4631 43.9983 22.3618C43.9813 24.5406 43.0273 25.6016 40.7226 25.8649V26.8425C40.7226 31.4862 40.734 36.126 40.7226 40.7716C40.7132 43.1247 38.5691 44.6365 36.5214 43.7328C35.233 43.1645 34.6644 42.1111 34.6663 40.7015C34.6776 36.1204 34.6663 31.5411 34.6663 26.9619V26.1093C33.7992 25.6906 32.9265 25.4765 32.3447 24.9423C30.909 23.6274 31.2339 21.8427 31.589 20.2342C31.9026 18.8227 33.1003 18.2108 34.6644 18.1501V17.1498C34.6644 12.4759 34.6474 7.80189 34.6644 3.12983C34.6758 0.856321 36.8463 -0.621462 38.8619 0.263313C40.1522 0.83169 40.7189 1.88698 40.7151 3.29466C40.7075 7.87326 40.7075 12.4531 40.7151 17.0342L40.7226 18.1217Z" fill="white"/>
<path d="M18.9696 15.0261C16.6309 14.5941 15.7374 13.6544 15.6939 11.6897C15.6259 8.57876 16.1662 7.82092 18.9696 7.16539C18.9696 5.89033 18.9696 4.60012 18.9696 3.3099C18.9828 1.3812 20.2333 0.020887 21.9921 0.0170978C23.7508 0.0133086 25.0146 1.36794 25.0278 3.29095C25.0391 4.58306 25.0278 5.87518 25.0278 7.15024C27.85 7.87776 28.3468 8.55792 28.3053 11.576C28.2751 13.6411 27.4949 14.4823 25.0297 15.0545V16.1666C25.0297 24.3399 25.0297 32.5131 25.0297 40.6864C25.0297 43.1096 22.9007 44.6518 20.8227 43.731C19.5363 43.1626 18.9677 42.1074 18.9714 40.6997C18.9828 36.5979 18.9714 32.4942 18.9714 28.3848V15.0261H18.9696Z" fill="white"/>
<path d="M9.33056 33.4759C9.33056 35.9522 9.36268 38.4435 9.33056 40.933C9.29089 43.3164 6.837 44.7468 4.82138 43.5855C3.78239 42.983 3.28368 42.0414 3.28368 40.8364C3.28368 38.6892 3.28368 36.542 3.28368 34.3948V33.4759C0.682442 33.0193 -0.00705835 32.1118 0.00805413 29.2586C0.0193885 27.0059 0.84868 26.0643 3.28368 25.6588V24.5789C3.28368 17.4742 3.28368 10.3682 3.28368 3.26098C3.28368 0.86053 5.47689 -0.658933 7.54541 0.29973C8.82808 0.892737 9.34568 1.96697 9.3419 3.36328C9.33056 10.4364 9.33056 17.5096 9.3419 24.5827V25.5925C12.2397 26.3826 12.7422 27.1215 12.6138 30.3025C12.5306 32.1308 11.5937 33.0553 9.33056 33.4759Z" fill="white"/>
</g>
<defs>
<clipPath id="clip0_1921_437">
<rect width="44" height="44" fill="white"/>
</clipPath>
</defs>
</svg>
