<svg width="54" height="54" viewBox="0 0 54 54" fill="none" xmlns="http://www.w3.org/2000/svg">
<g clip-path="url(#clip0_1921_449)">
<path d="M44.0623 33.6339V32.0368C40.4502 32.5523 36.8888 33.1226 33.302 33.5287C32.3082 33.6423 31.2617 33.2593 30.2363 33.1247C29.3481 33.0089 28.4556 32.9143 27.4049 32.809V51.5551C27.4049 51.835 27.502 52.1759 27.3775 52.3842C27.1665 52.7503 26.7994 53.0365 26.4998 53.3563C26.2339 53.0428 25.9111 52.7608 25.7233 52.4052C25.6073 52.1948 25.698 51.8561 25.698 51.5762V32.9058H21.7737C20.7884 32.9058 19.8052 32.9058 18.8198 32.9058C18.2059 32.9058 17.6552 32.7564 17.6826 31.9905C17.7079 31.2793 18.2565 31.1846 18.8135 31.1846C21.7673 31.1846 24.7212 31.1846 27.675 31.1846C27.886 31.1846 28.0969 31.1531 28.3543 31.132C28.3651 30.9983 28.3651 30.8639 28.3543 30.7301C27.8416 27.9274 29.211 25.9957 32.0403 25.5728C34.4012 25.2193 36.7727 24.9268 39.1273 24.5312C39.6159 24.4312 40.0493 24.1528 40.3426 23.7506C41.6761 21.6906 42.9251 19.578 44.2185 17.4906C45.4844 15.437 47.5521 14.5721 49.7041 15.176C51.7866 15.7484 53.0799 17.5285 53.1749 19.9041C53.4196 25.375 53.6897 30.829 53.9428 36.2936C53.9991 37.0279 54.011 37.765 53.9787 38.5008C53.8877 39.5943 53.4267 40.6245 52.6715 41.4224C51.9163 42.2203 50.9116 42.7386 49.8223 42.8923C48.0858 43.1405 46.3389 43.3594 44.5898 43.5004C43.8134 43.5635 43.5982 43.8412 43.5982 44.5945C43.5982 47.0838 43.518 49.573 43.4842 52.0623C43.4842 52.6935 43.4378 53.3584 42.6276 53.3563C41.8174 53.3542 41.7584 52.7019 41.771 52.0602C41.8259 49.1143 41.887 46.1685 41.9103 43.2226C41.9103 42.3809 42.2795 42.0527 43.0981 41.9706C45.1953 41.7602 47.2883 41.5035 49.3771 41.2215C51.2169 40.9754 52.3604 39.6813 52.2845 37.8359C52.0313 31.7422 51.75 25.6485 51.4405 19.5548C51.4022 18.9106 51.1582 18.2955 50.7442 17.7996C50.3302 17.3036 49.768 16.9527 49.1397 16.7982C48.5114 16.6437 47.8501 16.6938 47.2524 16.941C46.6546 17.1883 46.1519 17.6198 45.8177 18.1724C44.4337 20.367 43.0644 22.5701 41.7626 24.8153C41.2288 25.7369 40.5093 26.1304 39.4923 26.2587C37.0196 26.5702 34.551 26.93 32.0846 27.2961C30.633 27.5065 29.7954 28.5586 29.9473 29.9179C29.9769 30.2255 30.0697 30.5237 30.2199 30.794C30.3701 31.0643 30.5744 31.3008 30.8202 31.4889C31.066 31.677 31.348 31.8127 31.6487 31.8874C31.9493 31.9621 32.2622 31.9743 32.5678 31.9232C36.0174 31.4855 39.4628 31.0058 42.8892 30.4145C43.5222 30.3072 44.1552 29.6885 44.5645 29.133C45.4443 27.9126 46.1764 26.587 46.955 25.2971C47.2693 24.7774 47.6491 24.304 48.2947 24.6659C49.0036 25.0657 48.7652 25.6527 48.4129 26.2019C48.166 26.5849 47.9698 27.0036 47.6913 27.3613C46.1806 29.293 45.4569 31.435 45.8093 33.9011C45.9507 34.8901 45.4443 35.252 44.4822 35.332C42.5221 35.4961 40.5684 35.7528 38.6168 35.9863C36.3571 36.2662 35.3127 37.4319 35.3043 39.6939C35.2916 43.6918 35.3043 47.6898 35.3043 51.6877C35.3043 52.037 35.3654 52.4284 35.2304 52.723C35.0954 53.0176 34.7662 53.3163 34.5046 53.3332C34.243 53.35 33.859 53.0659 33.7155 52.8092C33.5721 52.5525 33.5932 52.1317 33.591 51.7866C33.591 47.7887 33.591 43.7907 33.591 39.7928C33.591 36.4935 35.3612 34.5955 38.6737 34.2609C40.446 34.0652 42.2204 33.8443 44.0623 33.6339Z" fill="white"/>
<path d="M10.5177 43.7233C8.38676 43.4371 6.33597 43.1846 4.2915 42.8816C1.60986 42.4881 -0.175096 40.3671 0.0147926 37.6528C0.470524 31.1508 0.962827 24.651 1.4917 18.1533C1.55855 17.2878 1.90431 16.4671 2.47737 15.8136C3.05042 15.1602 3.82003 14.7092 4.67128 14.5278C5.51812 14.3378 6.40347 14.4184 7.20178 14.7583C8.00009 15.0982 8.67083 15.6802 9.11888 16.4216C10.5008 18.6142 11.8385 20.8404 13.2416 23.1171C15.5202 22.2081 17.7419 21.2633 20.0121 20.4511C20.857 20.1337 21.7631 20.0114 22.6621 20.0934C23.5064 20.2112 24.2872 20.6061 24.8813 21.2158C25.4754 21.8254 25.849 22.6151 25.943 23.4601C26.154 25.2928 25.3332 26.9762 23.6517 27.6811C20.0649 29.1855 16.4486 30.6458 12.8006 32.003C11.9693 32.3123 10.9524 32.1293 9.94595 32.1756V33.6232C11.6739 33.8337 13.404 34.063 15.1426 34.2271C18.6534 34.5596 20.3982 36.4218 20.4004 39.9084C20.4004 43.8362 20.4004 47.764 20.4004 51.6918C20.4004 52.0053 20.4826 52.3904 20.3349 52.6177C20.1387 52.9249 19.7695 53.2636 19.4446 53.2952C19.2336 53.3162 18.877 52.8744 18.7315 52.5651C18.607 52.3041 18.685 51.9464 18.6829 51.6308C18.6829 47.703 18.6829 43.7752 18.6829 39.8474C18.6829 37.3371 17.628 36.2009 15.1278 35.9315C13.1719 35.7211 11.2203 35.477 9.26235 35.2792C8.48381 35.2014 8.05973 34.8289 8.17999 34.0567C8.61251 31.3023 7.62509 28.9941 6.0026 26.8646C5.79162 26.5869 5.52367 26.2818 5.48147 25.964C5.42451 25.5432 5.40552 24.9309 5.65237 24.7015C6.13975 24.2512 6.6208 24.6026 6.93306 25.1097C7.66941 26.3028 8.3952 27.5022 9.12943 28.6868C10.2709 30.5448 11.1275 30.8352 13.1551 30.0335C16.3515 28.771 19.5501 27.5085 22.7339 26.2081C23.8964 25.7347 24.4218 24.7541 24.2403 23.6116C24.1613 23.1055 23.9109 22.6417 23.5309 22.2972C23.151 21.9527 22.6642 21.7482 22.1515 21.7178C21.6281 21.7201 21.1104 21.826 20.6282 22.0292C18.3369 22.9151 16.0477 23.8073 13.7859 24.7647C12.8576 25.156 12.309 24.9646 11.8069 24.0976C10.5409 21.9198 9.1864 19.782 7.8614 17.6336C7.12294 16.4363 6.07434 15.9229 4.98564 16.207C3.83999 16.5058 3.25977 17.3727 3.15006 18.8351C2.68588 24.9863 2.21328 31.1361 1.73223 37.2845C1.55078 39.5507 2.55086 40.8911 4.82108 41.2256C6.8353 41.523 8.85585 41.7825 10.8827 42.0042C11.8174 42.1052 12.2478 42.4713 12.2331 43.4771C12.1887 46.3156 12.212 49.1584 12.2204 51.9948C12.2204 52.6261 12.1993 53.3036 11.3997 53.3289C10.5072 53.3583 10.5072 52.6366 10.5093 51.9738C10.5219 49.2468 10.5177 46.5176 10.5177 43.7233Z" fill="white"/>
<path d="M26.6692 0.364693C28.5322 0.364693 30.3931 0.349964 32.2561 0.364693C34.0389 0.381527 35.0264 1.38943 35.0369 3.19691C35.0524 5.30109 35.0524 7.40527 35.0369 9.50944C35.0369 11.3022 34.0263 12.3164 32.235 12.3269C29.6357 12.3459 27.0363 12.369 24.4285 12.3143C24.0291 12.2879 23.6288 12.3496 23.2561 12.4951C22.8834 12.6405 22.5475 12.8662 22.2722 13.156C21.7245 13.7485 21.1075 14.2733 20.4345 14.7194C20.0125 14.9782 19.3078 15.1402 18.9027 14.9677C18.4977 14.7951 18.0841 14.126 18.0757 13.6757C18.0096 10.0692 18.0039 6.46049 18.0588 2.84973C18.0799 1.36628 19.1454 0.400462 20.6539 0.375212C22.6646 0.341545 24.6669 0.364693 26.6692 0.364693ZM19.7699 13.0403C20.173 12.7401 20.5577 12.4162 20.9219 12.0702C21.9642 10.9087 23.2427 10.5384 24.7893 10.5973C27.2093 10.6983 29.642 10.6183 32.0641 10.6289C32.849 10.6289 33.3469 10.3911 33.33 9.49261C33.311 7.38844 33.3153 5.28426 33.33 3.18008C33.33 2.43731 32.9967 2.06066 32.2603 2.06066C28.4302 2.06066 24.5994 2.06066 20.7679 2.06066C20.1349 2.06066 19.7657 2.36576 19.7657 3.01806C19.7678 6.28164 19.7699 9.5368 19.7699 13.0403Z" fill="white"/>
<path d="M52.5607 6.36364C52.5666 7.15366 52.4151 7.93696 52.1148 8.66805C51.8146 9.39914 51.3717 10.0634 50.8118 10.6224C50.252 11.1813 49.5863 11.6237 48.8536 11.9239C48.1208 12.2241 47.3355 12.3761 46.5434 12.3711C45.3538 12.3706 44.191 12.0185 43.2021 11.359C42.2132 10.6996 41.4425 9.76253 40.9876 8.66632C40.5326 7.57011 40.4138 6.36398 40.6461 5.20042C40.8785 4.03687 41.4515 2.96814 42.2928 2.12937C43.1342 1.29061 44.206 0.719467 45.3728 0.488164C46.5396 0.256862 47.7489 0.375788 48.8479 0.8299C49.9469 1.28401 50.8863 2.05292 51.5471 3.03941C52.208 4.02589 52.5607 5.18565 52.5607 6.37206V6.36364ZM50.8496 6.36364C50.8508 5.23149 50.4041 4.14457 49.6066 3.33891C48.809 2.53325 47.725 2.0739 46.5898 2.0606C46.0162 2.04794 45.4457 2.14968 44.912 2.35987C44.3783 2.57006 43.8921 2.88445 43.4819 3.2846C43.0717 3.68474 42.7458 4.16257 42.5233 4.69005C42.3008 5.21753 42.1861 5.78402 42.1861 6.35628C42.1861 6.92854 42.3008 7.49502 42.5233 8.0225C42.7458 8.54998 43.0717 9.02781 43.4819 9.42795C43.8921 9.8281 44.3783 10.1425 44.912 10.3527C45.4457 10.5629 46.0162 10.6646 46.5898 10.652C47.7234 10.6464 48.8084 10.1927 49.607 9.39034C50.4056 8.58801 50.8525 7.50255 50.8496 6.37206V6.36364Z" fill="white"/>
<path d="M1.43269 6.3701C1.4299 5.5807 1.58375 4.79854 1.88538 4.06868C2.187 3.33883 2.63044 2.6757 3.19015 2.1175C3.74986 1.5593 4.41478 1.11706 5.14661 0.816249C5.87844 0.515438 6.66271 0.362003 7.45425 0.364783C9.02146 0.406191 10.5105 1.05617 11.6043 2.1763C12.6981 3.29642 13.3102 4.79816 13.3102 6.36169C13.3102 7.92521 12.6981 9.42695 11.6043 10.5471C10.5105 11.6672 9.02146 12.3172 7.45425 12.3586C6.6632 12.3647 5.87879 12.2141 5.14655 11.9156C4.4143 11.617 3.7488 11.1764 3.18863 10.6193C2.62847 10.0622 2.1848 9.39976 1.88337 8.67033C1.58194 7.9409 1.42876 7.15904 1.43269 6.3701ZM3.14168 6.41429C3.14838 7.5457 3.6049 8.62823 4.41105 9.42432C5.2172 10.2204 6.30712 10.665 7.4416 10.6605C8.29543 10.6609 9.13011 10.4081 9.83956 9.93427C10.549 9.46045 11.1012 8.78699 11.426 7.99946C11.7508 7.21193 11.8335 6.34589 11.6636 5.51139C11.4937 4.67688 11.0789 3.91157 10.4719 3.31272C9.86483 2.71386 9.093 2.3085 8.25444 2.14813C7.41588 1.98775 6.54846 2.07961 5.76237 2.41203C4.97628 2.74446 4.30702 3.30243 3.83963 4.01506C3.37225 4.72769 3.12783 5.56281 3.13746 6.41429H3.14168Z" fill="white"/>
<path d="M26.589 5.63802C25.399 5.63802 24.209 5.63802 23.0191 5.63802C22.4283 5.63802 21.8481 5.45917 21.9641 4.81108C22.0296 4.466 22.6224 3.98624 22.9917 3.96941C25.4053 3.89577 27.8211 3.93154 30.2369 3.93154C30.8467 3.93154 31.3678 4.18614 31.2349 4.81949C31.1674 5.14354 30.6167 5.56648 30.2538 5.59384C29.0449 5.69273 27.8148 5.63802 26.589 5.63802Z" fill="white"/>
<path d="M24.6934 7.0604C25.2905 7.0604 25.9129 6.9615 26.4784 7.09616C26.8244 7.17823 27.0902 7.6138 27.3898 7.88944C27.0923 8.17772 26.8138 8.68692 26.4953 8.71217C25.2692 8.80791 24.0375 8.80791 22.8114 8.71217C22.4949 8.68692 22.2164 8.18403 21.9189 7.89996C22.2122 7.62011 22.4675 7.16982 22.8051 7.09406C23.4085 6.96571 24.0626 7.0604 24.6934 7.0604Z" fill="white"/>
</g>
<defs>
<clipPath id="clip0_1921_449">
<rect width="54" height="53" fill="white" transform="translate(0 0.356445)"/>
</clipPath>
</defs>
</svg>

