<svg width="69" height="58" viewBox="0 0 69 58" fill="none" xmlns="http://www.w3.org/2000/svg">
<g clip-path="url(#clip0_1921_484)">
<path d="M34.8753 46.2661C32.7297 45.7844 30.6006 45.2612 28.4468 44.8293C27.8642 44.7022 27.2572 44.7542 26.7041 44.9788C25.3724 45.6017 24.1393 46.4489 22.8076 47.0718C22.5526 47.2017 22.2711 47.2694 21.9855 47.2694C21.7 47.2694 21.4184 47.2017 21.1635 47.0718C20.9509 46.8549 20.7872 46.5942 20.6836 46.3075C20.58 46.0208 20.5391 45.7149 20.5634 45.4107C20.7936 43.7496 21.706 42.0304 21.4348 40.4939C21.1635 38.9574 19.6016 37.8528 18.8946 36.3993C15.4749 29.4228 15.7873 22.5542 20.5387 16.3667C25.2902 10.1791 31.9159 7.99483 39.4459 9.88846C46.9759 11.7821 51.3574 16.7986 52.7796 24.3731C54.9498 35.7266 46.4004 45.9588 34.8753 46.2661ZM29.1209 27.6288C29.1363 26.7315 28.7988 25.8646 28.1823 25.2184C27.5659 24.5722 26.7208 24.1995 25.8327 24.1821C24.9301 24.1821 24.0645 24.5443 23.4262 25.1892C22.788 25.834 22.4294 26.7086 22.4294 27.6205C22.4294 28.5324 22.788 29.407 23.4262 30.0518C24.0645 30.6967 24.9301 31.0589 25.8327 31.0589C26.7115 31.0328 27.5447 30.6584 28.1524 30.0165C28.76 29.3746 29.0932 28.5169 29.0798 27.6288H29.1209ZM44.1727 31.0589C44.6196 31.0633 45.063 30.9787 45.4775 30.8099C45.8921 30.6411 46.2697 30.3915 46.5888 30.0753C46.9079 29.7591 47.1622 29.3825 47.3372 28.967C47.5122 28.5515 47.6045 28.1053 47.6088 27.6537C47.6131 27.2022 47.5294 26.7542 47.3624 26.3354C47.1953 25.9165 46.9483 25.535 46.6353 25.2127C46.3223 24.8903 45.9495 24.6333 45.5383 24.4565C45.127 24.2797 44.6854 24.1864 44.2384 24.1821C43.3358 24.1732 42.4667 24.5271 41.8223 25.1657C41.1779 25.8043 40.811 26.6753 40.8023 27.5873C40.7936 28.4992 41.1437 29.3773 41.7758 30.0284C42.4079 30.6794 43.27 31.0501 44.1727 31.0589ZM35.0232 31.0589C35.6923 31.0426 36.3417 30.8274 36.8903 30.4401C37.4388 30.0529 37.8622 29.5108 38.1075 28.8817C38.3528 28.2527 38.409 27.5645 38.2692 26.9033C38.1295 26.2421 37.7998 25.6372 37.3216 25.1642C36.8433 24.6913 36.2377 24.3713 35.5804 24.2443C34.9231 24.1173 34.2433 24.1888 33.626 24.4501C33.0088 24.7113 32.4815 25.1506 32.1101 25.7131C31.7387 26.2755 31.5396 26.9361 31.5377 27.6122C31.5388 28.0673 31.6289 28.5178 31.8028 28.9376C31.9767 29.3575 32.2309 29.7385 32.551 30.0588C32.871 30.379 33.2506 30.6323 33.6678 30.8039C34.085 30.9755 34.5317 31.0622 34.9821 31.0589H35.0232Z" stroke="white" stroke-width="1.44" stroke-miterlimit="10"/>
<path d="M41.213 53.492C40.9663 56.0916 40.1854 56.8142 37.7603 56.8142C35.7381 56.8142 33.7241 56.8142 31.7101 56.8142C29.4905 56.7643 28.6767 55.7511 28.7096 53.1847C28.7096 51.0419 29.6632 50.0868 31.7676 50.0702C34.9078 50.0702 38.0481 50.228 41.1225 49.2396C47.4277 47.2712 52.2038 43.4258 54.933 37.3629C55.8653 34.9182 56.46 32.3555 56.7004 29.7468C58.3445 18.2937 50.7323 7.78732 39.2893 5.43689C33.7524 4.3561 28.0157 5.41463 23.2144 8.40302C18.413 11.3914 14.8969 16.0919 13.3619 21.5743C12.3508 25.237 12.992 28.7419 13.5181 32.3132C13.8469 34.5224 14.2086 36.7234 14.521 38.9575C14.8333 41.1917 14.2908 41.8561 12.285 42.479C8.65154 43.5919 6.04564 42.7697 4.00695 39.5389C2.58405 37.4047 1.73048 34.9355 1.52886 32.3703C1.32724 29.8052 1.78438 27.2308 2.85606 24.8965C3.36649 23.6454 4.18775 22.5486 5.24043 21.712C6.29312 20.8754 7.54162 20.3274 8.86525 20.1209C9.14984 20.0001 9.40605 19.8201 9.61711 19.5926C9.82816 19.365 9.98936 19.0951 10.0901 18.8003C13.477 9.84709 19.6917 4.0416 28.9233 1.76592C35.2062 0.24253 41.825 1.12632 47.5006 4.24649C53.1761 7.36667 57.5053 12.5017 59.6515 18.6591C60.0215 19.7056 60.4078 20.2538 61.6327 20.3202C63.6631 20.478 65.1346 21.7404 66.2444 23.4347C69.4011 28.1937 68.8421 36.3247 65.0606 40.5937C63.2275 42.6617 61.0161 43.567 58.3116 42.6119C57.9068 42.4056 57.4378 42.3693 57.0067 42.5108C56.5755 42.6524 56.2172 42.9604 56.0099 43.3677C52.4915 48.2928 48.8334 50.7346 41.213 53.492Z" stroke="white" stroke-width="1.44" stroke-miterlimit="10"/>
</g>
<defs>
<clipPath id="clip0_1921_484">
<rect width="68" height="57" fill="white" transform="translate(0.891602 0.453613)"/>
</clipPath>
</defs>
</svg>

