<svg width="44" height="46" viewBox="0 0 44 46" fill="none" xmlns="http://www.w3.org/2000/svg">
<path d="M28.2824 34.5694C17.7125 39.2927 8.42913 37.3306 2.95579 28.8186C0.624926 25.1657 -0.346895 20.8042 0.211495 16.5026C0.769884 12.201 2.82265 8.23516 6.00824 5.30365C9.19383 2.37214 13.3079 0.662989 17.6257 0.477338C21.9435 0.291687 26.188 1.64142 29.6117 4.28876C37.5871 10.5104 38.7173 19.9856 31.929 32.2149C35.1845 34.9761 38.824 38.0156 42.3923 41.1407C43.6931 42.2823 44.9299 43.9946 42.9894 45.229C42.1577 45.7712 39.9471 45.1148 38.9448 44.28C35.3125 41.262 31.9361 37.9371 28.2824 34.5694ZM18.5228 5.31619C16.7447 5.27919 14.977 5.59846 13.3232 6.25535C11.6694 6.91224 10.1627 7.89357 8.89128 9.1419C7.61982 10.3902 6.60909 11.8805 5.91826 13.5256C5.22743 15.1707 4.87036 16.9375 4.8679 18.7227C4.83855 21.4037 5.60184 24.0332 7.06129 26.2787C8.52073 28.5242 10.6108 30.285 13.0672 31.3382C15.5235 32.3915 18.2359 32.69 20.8612 32.196C23.4866 31.702 25.9071 30.4377 27.8166 28.5629C29.7261 26.6881 31.0389 24.2871 31.5889 21.6634C32.139 19.0398 31.9016 16.3113 30.9069 13.8231C29.9121 11.3348 28.2046 9.1985 26.0002 7.6843C23.7959 6.17009 21.1938 5.34599 18.5228 5.31619Z" fill="white"/>
</svg>
