<svg width="47" height="46" viewBox="0 0 47 46" fill="none" xmlns="http://www.w3.org/2000/svg">
<g clip-path="url(#clip0_1921_442)">
<path d="M32.5372 28.2397C32.9232 26.0161 32.8634 24.0608 32.2786 22.1168C32.1937 21.8353 32.4311 21.346 32.6646 21.1023C35.1426 18.6313 37.6612 16.1904 40.1528 13.7345C41.635 12.2703 42.1425 10.5228 41.5037 8.53919C40.423 5.18776 36.0999 3.88611 33.4443 6.28349C29.6133 9.73505 25.9175 13.3321 22.2815 16.9877C20.1354 19.1508 20.6777 22.7422 23.2773 24.3971C24.0725 24.9015 24.1497 25.4607 24.0107 26.2126C23.7598 27.5615 22.6925 28.3361 21.7565 29.1824C21.633 29.2939 21.1582 29.1409 20.9093 28.9935C15.959 26.2164 14.359 19.7686 17.4547 15.0305C17.883 14.3645 18.3817 13.7446 18.9427 13.1809C22.4281 9.73694 25.8905 6.27027 29.457 2.90372C32.3519 0.168169 35.8606 -0.657409 39.705 0.495C43.5186 1.63796 45.9175 4.22616 46.7358 8.05178C47.4383 11.3314 46.6837 14.3768 44.3118 16.812C40.7144 20.4997 36.978 24.0476 33.2822 27.6503C33.0441 27.8589 32.7955 28.0556 32.5372 28.2397Z" fill="white"/>
<path d="M14.4071 17.8226C14.0211 20.016 14.077 22.0317 14.6927 24.0305C14.7699 24.278 14.5132 24.7182 14.2835 24.9468C11.7746 27.4367 9.2155 29.8719 6.73166 32.3826C4.02973 35.1125 5.11051 39.5068 8.73495 40.6422C10.607 41.2297 12.3497 40.8878 13.7528 39.571C17.3965 36.1478 21.0171 32.6981 24.5605 29.1804C25.0911 28.6571 25.4944 28.0237 25.7408 27.3269C25.9871 26.6302 26.0701 25.8882 25.9835 25.1558C25.8969 24.4234 25.6431 23.7196 25.2407 23.0963C24.8383 22.4731 24.2978 21.9465 23.6592 21.5556C22.9316 21.0966 22.8602 20.5827 22.9587 19.8988C23.1632 18.4951 24.2575 17.696 25.2128 16.8251C25.3402 16.7099 25.8111 16.8459 26.0543 16.9819C28.3888 18.3116 30.0889 20.4938 30.7811 23.0495C31.4733 25.6051 31.1012 28.3252 29.7463 30.6124C29.3194 31.351 28.8008 32.0351 28.2023 32.649C24.6454 36.1686 21.1156 39.7089 17.4834 43.1378C14.5885 45.8677 11.049 46.6536 7.21608 45.4728C3.45461 44.3148 1.07499 41.7417 0.26827 37.9482C-0.43423 34.6667 0.314595 31.6213 2.6865 29.1842C6.25883 25.5173 9.98363 21.9921 13.6505 18.4158C13.8915 18.2048 14.1441 18.0068 14.4071 17.8226Z" fill="white"/>
</g>
<defs>
<clipPath id="clip0_1921_442">
<rect width="47" height="46" fill="white"/>
</clipPath>
</defs>
</svg>
