<svg width="52" height="57" viewBox="0 0 52 57" fill="none" xmlns="http://www.w3.org/2000/svg">
<g clip-path="url(#clip0_1921_463)">
<path d="M38.3167 24.6976C40.5331 25.7872 42.5908 26.7583 44.6069 27.817C45.0804 28.0746 45.4107 28.5898 45.8062 28.9813C45.4212 29.3394 45.0908 29.8031 44.6407 30.0375C42.6142 31.0884 40.5513 32.0724 38.3218 33.1698C40.5799 34.2825 42.674 35.2794 44.7292 36.3536C45.1636 36.5828 45.6527 37.0491 45.7333 37.4766C45.7828 37.7342 45.1662 38.2494 44.7526 38.4606C38.8682 41.374 32.9785 44.2719 27.0629 47.1028C26.418 47.3779 25.6894 47.389 25.0363 47.1337C19.0713 44.3002 13.1426 41.3714 7.21914 38.4426C6.81071 38.2391 6.28003 37.7755 6.26963 37.4123C6.25922 37.0491 6.78991 36.5931 7.19574 36.3819C9.26387 35.3103 11.358 34.3083 13.6993 33.1569L9.06616 30.8952C8.3929 30.6012 7.73637 30.271 7.09948 29.9061C6.73788 29.6794 6.26182 29.2776 6.25402 28.9453C6.24621 28.613 6.70146 28.1571 7.06566 27.9664C8.78781 27.0649 10.5464 26.238 12.2919 25.3905C12.6769 25.1999 13.0567 25.0016 13.5926 24.7337C13.179 24.4761 12.8877 24.2906 12.5729 24.1335C10.7103 23.2191 8.83463 22.3304 6.99282 21.3876C6.65983 21.215 6.26182 20.7977 6.25402 20.4809C6.24621 20.1641 6.64683 19.8189 6.9642 19.5613C7.29099 19.3524 7.63993 19.1796 8.00478 19.0461C13.6317 16.2951 19.2638 13.5594 24.875 10.7775C25.2247 10.5764 25.6219 10.4705 26.0262 10.4705C26.4305 10.4705 26.8277 10.5764 27.1773 10.7775C32.9811 13.6548 38.8135 16.4754 44.6069 19.3552C45.0856 19.5922 45.4159 20.128 45.8166 20.5118C45.4342 20.8724 45.1064 21.3412 44.6563 21.5756C42.6194 22.6137 40.5565 23.5977 38.3167 24.6976ZM8.9621 20.4654C14.4589 23.1675 19.7112 25.7022 24.9141 28.2987C25.243 28.4898 25.6175 28.5906 25.9989 28.5906C26.3803 28.5906 26.7547 28.4898 27.0837 28.2987C31.9926 25.8516 36.9301 23.4612 41.8546 21.0476C42.1746 20.8905 42.4763 20.6921 42.8041 20.5041C42.661 20.3495 42.6168 20.2645 42.544 20.2285C37.2293 17.6242 31.9197 15.0123 26.5842 12.4518C26.2096 12.2715 25.5696 12.3591 25.1664 12.5497C22.1201 13.9922 19.1051 15.4939 16.0796 16.9777L8.9621 20.4654ZM43.0408 37.4071C40.9103 36.3768 39.0737 35.4056 37.1746 34.5736C36.6085 34.362 35.982 34.373 35.4239 34.6045C32.6377 35.8925 29.8828 37.2422 27.1487 38.6332C26.798 38.8368 26.3989 38.9441 25.9924 38.9441C25.5859 38.9441 25.1867 38.8368 24.836 38.6332C22.1019 37.2448 19.3366 35.9157 16.5713 34.5891C16.2097 34.4139 15.6868 34.1769 15.398 34.3083C13.3039 35.2562 11.254 36.2917 9.1546 37.3221C9.34191 37.5256 9.38614 37.6132 9.45638 37.6467C14.7711 40.2509 20.0806 42.8654 25.4188 45.4233C25.7934 45.6036 26.4307 45.516 26.8365 45.3254C29.2247 44.2075 31.5789 43.0226 33.9462 41.8634L43.0408 37.4071ZM43.0408 28.9376C40.9831 27.9252 39.1907 27.0829 37.44 26.1607C37.1156 25.9623 36.7425 25.856 36.3613 25.8533C35.98 25.8505 35.6054 25.9516 35.2782 26.1453C32.5909 27.5234 29.8516 28.801 27.1591 30.1714C26.8069 30.3732 26.4067 30.4784 25.9997 30.4762C25.5928 30.4739 25.1938 30.3643 24.8438 30.1585C22.1123 28.7727 19.3496 27.441 16.5869 26.1144C16.2253 25.9392 15.6998 25.71 15.4058 25.8413C13.3247 26.7867 11.2592 27.8196 8.9621 28.9324C14.6852 31.7273 20.0936 34.3907 25.5358 37.0053C25.874 37.165 26.4593 37.0233 26.8365 36.8456C28.6029 36.0316 30.3381 35.1583 32.081 34.3031L43.0408 28.9376Z" fill="white"/>
<path d="M40.2026 6.91891C38.5871 7.14302 37.4424 7.5397 36.3706 7.39545C34.7265 7.17392 33.6443 5.41458 33.8733 3.84586C33.9878 3.02918 34.3993 2.28192 35.0305 1.74417C35.6617 1.20641 36.4693 0.915075 37.302 0.924796C39.0033 0.986618 40.5043 2.32093 40.5069 4.03905C40.5069 4.99471 40.9075 5.37337 41.6463 5.78036C44.7499 7.48303 47.8143 9.2604 50.9178 10.9631C51.6983 11.3932 51.9974 11.9213 51.9974 12.8074C51.9714 23.5334 51.9714 34.2595 51.9974 44.9855C51.9974 45.9953 51.6072 46.5311 50.7565 46.9973C47.6478 48.6922 44.5756 50.4541 41.4825 52.18C40.8971 52.5071 40.4965 52.7956 40.5121 53.6277C40.5485 55.2788 39.4507 56.4972 37.8847 56.8449C37.1816 56.9922 36.4492 56.9105 35.7968 56.6119C35.1445 56.3134 34.6071 55.814 34.2648 55.1883C33.9225 54.5626 33.7937 53.844 33.8975 53.1399C34.0013 52.4357 34.3323 51.7837 34.841 51.281C35.3536 50.7461 36.0395 50.4063 36.7792 50.3206C37.5188 50.2349 38.2654 50.4089 38.8888 50.8122C39.5106 51.1909 39.9294 51.1316 40.5095 50.7993C43.4309 49.1224 46.3602 47.4506 49.318 45.8484C50.0308 45.4621 50.2337 45.0061 50.2311 44.2282C50.205 34.0173 50.2311 23.8065 50.1868 13.5931C50.1868 13.132 49.9267 12.4494 49.5833 12.2407C46.3133 10.3217 42.9887 8.48506 40.2026 6.91891ZM38.7848 4.40484C38.7848 3.32553 38.046 2.60171 37.1355 2.66868C36.1833 2.74596 35.6501 3.28947 35.6188 4.24513C35.6107 4.45849 35.6484 4.67113 35.7295 4.869C35.8105 5.06686 35.933 5.24546 36.0889 5.39299C36.2447 5.54052 36.4305 5.65363 36.6337 5.72484C36.837 5.79606 37.0532 5.82376 37.2681 5.80612C38.2359 5.74173 38.7249 5.18533 38.7848 4.40484ZM37.2239 55.2118C37.4398 55.2125 37.6536 55.1688 37.8516 55.0835C38.0495 54.9983 38.2275 54.8732 38.3742 54.7164C38.5209 54.5595 38.6331 54.3742 38.7038 54.1721C38.7745 53.9701 38.802 53.7558 38.7848 53.5426C38.7119 52.5818 38.1448 52.0589 37.1849 52.0718C36.225 52.0847 35.6761 52.6282 35.624 53.5839C35.6125 53.7969 35.6456 54.0101 35.7213 54.2099C35.797 54.4097 35.9137 54.5918 36.064 54.7447C36.2143 54.8976 36.395 55.0181 36.5946 55.0985C36.7942 55.1789 37.0085 55.2175 37.2239 55.2118Z" fill="white"/>
<path d="M1.78461 28.8758C1.78461 33.9838 1.80801 39.0944 1.76119 44.2024C1.76119 45.0602 2.03954 45.4903 2.77315 45.8999C5.69195 47.4918 8.58735 49.1352 11.4749 50.7941C12.0447 51.1213 12.4635 51.2088 13.0956 50.825C13.7177 50.4183 14.4644 50.2413 15.205 50.3252C15.9456 50.409 16.6328 50.7483 17.1461 51.2835C17.656 51.786 17.988 52.4383 18.0925 53.1431C18.197 53.8478 18.0684 54.5671 17.7259 55.1935C17.3834 55.8199 16.8454 56.3197 16.1923 56.6183C15.5392 56.9169 14.806 56.9982 14.1024 56.8501C13.3485 56.7091 12.6698 56.3073 12.1876 55.7166C11.7053 55.1258 11.4509 54.3844 11.4697 53.625C11.4697 52.896 11.1966 52.5689 10.6139 52.2469C7.47654 50.5082 4.37042 48.7128 1.22529 46.9921C0.36422 46.5233 -0.0025877 45.9617 1.37343e-05 44.9726C0.0329652 34.2826 0.0329652 23.5918 1.37343e-05 12.9001C1.37343e-05 11.8929 0.374617 11.3546 1.23309 10.8858C4.38082 9.16505 7.47653 7.36708 10.6217 5.63092C11.2096 5.30636 11.4723 4.97149 11.4697 4.24766C11.4493 3.48582 11.704 2.74175 12.1879 2.14918C12.6719 1.55662 13.3535 1.15443 14.1102 1.01491C14.8138 0.868982 15.5462 0.952262 16.1981 1.25232C16.85 1.55238 17.3864 2.05313 17.7273 2.67983C18.0682 3.30654 18.1953 4.02559 18.0896 4.72968C17.9839 5.43377 17.6511 6.08514 17.1408 6.58658C16.6269 7.12223 15.9385 7.46094 15.1969 7.54295C14.4554 7.62495 13.7084 7.44498 13.0878 7.03478C12.4505 6.64582 12.0316 6.75659 11.4671 7.07857C8.57954 8.72972 5.68674 10.3757 2.76273 11.9728C2.02393 12.3746 1.75338 12.828 1.76119 13.6754C1.80541 18.7422 1.78461 23.809 1.78461 28.8758ZM14.8516 5.82411C15.7803 5.71077 16.3474 5.22907 16.3838 4.26311C16.3845 4.05313 16.3425 3.84516 16.2605 3.65153C16.1785 3.45789 16.058 3.28253 15.9062 3.13585C15.7545 2.98917 15.5745 2.87414 15.3771 2.7976C15.1796 2.72106 14.9686 2.68455 14.7566 2.69024C14.5446 2.69593 14.336 2.74371 14.143 2.83073C13.95 2.91776 13.7766 3.04228 13.6331 3.19688C13.4896 3.35149 13.3789 3.53306 13.3076 3.73081C13.2363 3.92857 13.2058 4.13848 13.2179 4.34812C13.2985 5.31666 13.8917 5.76487 14.8516 5.82411ZM16.3942 53.6405C16.3942 52.8213 15.9598 52.2134 14.9947 52.0743C14.7818 52.0374 14.5635 52.046 14.3543 52.0996C14.1452 52.1532 13.95 52.2504 13.7819 52.3849C13.6139 52.5193 13.4768 52.6878 13.38 52.8791C13.2831 53.0703 13.2288 53.2799 13.2205 53.4937C13.1711 54.4493 13.6575 55.0392 14.5967 55.1938C15.4941 55.3432 16.3084 54.6631 16.3942 53.6405Z" fill="white"/>
</g>
<defs>
<clipPath id="clip0_1921_463">
<rect width="52" height="56" fill="white" transform="translate(0 0.922119)"/>
</clipPath>
</defs>
</svg>
