<svg width="51" height="51" viewBox="0 0 51 51" fill="none" xmlns="http://www.w3.org/2000/svg">
<g clip-path="url(#clip0_1706_449)">
<path d="M0.0410156 0.356445H50.131V50.4464H0.0410156V0.356445ZM47.931 48.2764V13.4964H2.26099V48.2764H47.931ZM2.25098 11.1165H47.921V2.56644H2.25098V11.1165Z" fill="white"/>
<path d="M25.0414 46.1167C22.0281 46.093 19.0892 45.1777 16.5954 43.4861C14.1015 41.7945 12.1642 39.4024 11.0279 36.6115C9.89155 33.8205 9.60702 30.7555 10.2101 27.8031C10.8132 24.8506 12.2771 22.1428 14.4169 20.021C16.5568 17.8992 19.2768 16.4586 22.2343 15.8805C25.1918 15.3025 28.2542 15.6131 31.0354 16.773C33.8167 17.933 36.1922 19.8904 37.8626 22.3986C39.5329 24.9067 40.4233 27.8533 40.4214 30.8667C40.4149 32.8785 40.0116 34.8692 39.2348 36.7249C38.4579 38.5807 37.3228 40.265 35.8942 41.6815C34.4656 43.098 32.7717 44.2188 30.9095 44.9798C29.0472 45.7409 27.0532 46.1272 25.0414 46.1167ZM12.0414 30.8667C12.0454 33.4541 12.8166 35.9822 14.2576 38.1312C15.6986 40.2802 17.7446 41.9536 20.1368 42.9396C22.5289 43.9257 25.1597 44.1801 27.6964 43.6707C30.2332 43.1613 32.5619 41.911 34.388 40.0779C36.214 38.2449 37.4554 35.9114 37.9551 33.3727C38.4548 30.834 38.1904 28.2041 37.1952 25.8158C36.2 23.4274 34.5188 21.3878 32.3643 19.9551C30.2098 18.5223 27.6789 17.7608 25.0915 17.7667C23.3729 17.768 21.6715 18.108 20.0844 18.7671C18.4973 19.4263 17.0556 20.3918 15.8418 21.6084C14.628 22.8249 13.6659 24.2688 13.0104 25.8574C12.3549 27.446 12.0188 29.1482 12.0214 30.8667H12.0414Z" fill="white"/>
<path d="M22.8914 5.88623V7.88623H18.6113V5.88623H22.8914Z" fill="white"/>
<path d="M9.76099 5.88623V7.88623H5.54102V5.88623H9.76099Z" fill="white"/>
<path d="M16.3206 5.88623V7.88623H12.1006V5.88623H16.3206Z" fill="white"/>
<path d="M28.6912 29.4463C30.3693 30.2353 31.7627 31.5233 32.6809 33.1342C33.5992 34.7452 33.9974 36.6004 33.8212 38.4463H16.4212C16.2458 36.5993 16.6455 34.7433 17.5656 33.1322C18.4857 31.5211 19.8813 30.2337 21.5612 29.4463C21.0327 28.8637 20.6444 28.168 20.4261 27.4123C20.2077 26.6566 20.165 25.861 20.3012 25.0863C20.5214 23.8878 21.1856 22.8165 22.1612 22.0863C23.0902 21.3831 24.2391 21.0332 25.4024 21.0992C26.5657 21.1651 27.6675 21.6426 28.5111 22.4463C30.4211 24.2263 30.5012 26.6963 28.6912 29.4463ZM31.4312 36.2963C31.1781 34.8006 30.4035 33.4429 29.2448 32.4638C28.0861 31.4847 26.6182 30.9475 25.1012 30.9475C23.5843 30.9475 22.1162 31.4847 20.9575 32.4638C19.7989 33.4429 19.0243 34.8006 18.7711 36.2963H31.4312ZM25.1411 23.2963C24.6076 23.2963 24.0859 23.4544 23.6421 23.7507C23.1983 24.0469 22.8523 24.468 22.6476 24.9608C22.443 25.4536 22.389 25.9959 22.4923 26.5194C22.5957 27.0429 22.8518 27.524 23.2284 27.902C23.605 28.28 24.0852 28.5379 24.6083 28.6432C25.1314 28.7485 25.674 28.6965 26.1675 28.4937C26.661 28.2908 27.0834 27.9463 27.3813 27.5036C27.6791 27.0609 27.8392 26.5399 27.8412 26.0063C27.8452 25.6478 27.7785 25.292 27.6449 24.9593C27.5114 24.6266 27.3136 24.3234 27.0629 24.0671C26.8122 23.8108 26.5133 23.6064 26.1836 23.4656C25.8539 23.3248 25.4997 23.2502 25.1411 23.2463V23.2963Z" fill="white"/>
</g>
<defs>
<clipPath id="clip0_1706_449">
<rect width="50.09" height="50.09" fill="white" transform="translate(0.0410156 0.356445)"/>
</clipPath>
</defs>
</svg>
