<svg width="48" height="44" viewBox="0 0 48 44" fill="none" xmlns="http://www.w3.org/2000/svg">
<g clip-path="url(#clip0_1921_446)">
<path d="M38.5479 29.3271C38.5479 27.9591 38.6066 26.6808 38.5296 25.4117C38.4599 24.2652 37.4933 23.4869 36.2535 23.4778C33.9297 23.4594 31.606 23.4778 29.284 23.4778C23.4761 23.4778 17.6682 23.4778 11.8603 23.4778C8.39209 23.4668 6.28657 21.3479 6.28657 17.8628C6.28657 16.8336 6.28657 15.8026 6.28657 14.6745C5.696 14.6745 5.18612 14.6909 4.67442 14.6745C3.56181 14.6406 2.50395 14.1846 1.71617 13.3993C0.928395 12.6141 0.469907 11.5586 0.434036 10.4477C0.384516 8.37461 0.380847 6.29603 0.434036 4.22111C0.46971 3.1245 0.921568 2.08245 1.69804 1.30611C2.47452 0.529769 3.51753 0.0772122 4.61573 0.0401487C6.6919 -0.0147918 8.77357 -0.00929771 10.8516 0.0401487C11.981 0.0696002 13.0547 0.536425 13.8456 1.34194C14.6366 2.14746 15.0829 3.22855 15.0901 4.35664C15.125 6.31069 15.1158 8.26474 15.0901 10.217C15.0608 12.7808 13.1827 14.6378 10.6095 14.6781C10.1876 14.6781 9.76397 14.6781 9.2596 14.6781C9.2596 16.0699 9.17524 17.4068 9.28528 18.7291C9.37699 19.848 10.3857 20.5293 11.6696 20.5311C16.1618 20.5311 20.6547 20.5311 25.1482 20.5311C28.7852 20.5311 32.4221 20.5311 36.0609 20.5311C39.3439 20.5311 41.4861 22.6994 41.499 25.9977C41.499 27.0635 41.499 28.1275 41.499 29.3234C42.0492 29.3234 42.5591 29.3106 43.0653 29.3234C44.1939 29.3458 45.2703 29.8029 46.0693 30.5991C46.8684 31.3953 47.3285 32.469 47.3533 33.596C47.3973 35.6397 47.3973 37.6841 47.3533 39.7291C47.3278 40.8415 46.8744 41.9014 46.0873 42.689C45.3003 43.4767 44.2398 43.9316 43.1258 43.9596C41.079 44.009 39.0285 44.0035 36.9816 43.9596C35.8522 43.9393 34.7748 43.4819 33.9765 42.6838C33.1783 41.8857 32.7216 40.8093 32.7027 39.6815C32.6624 37.7293 32.6771 35.7753 32.7027 33.8212C32.7248 31.2024 34.601 29.3472 37.2292 29.3143C37.6217 29.3271 38.0161 29.3271 38.5479 29.3271ZM7.69514 11.7461C8.64335 11.7461 9.59157 11.7608 10.538 11.7461C11.5687 11.7242 12.1336 11.1802 12.1464 10.1602C12.1672 8.29954 12.1672 6.43888 12.1464 4.57823C12.1354 3.54718 11.5797 2.98313 10.56 2.97214C8.69654 2.95261 6.83251 2.95261 4.96787 2.97214C3.93528 2.9813 3.37406 3.53253 3.36122 4.55442C3.34043 6.41507 3.34043 8.27573 3.36122 10.1364C3.36122 11.1638 3.92795 11.7205 4.94586 11.7443C5.8629 11.7589 6.77993 11.7461 7.69514 11.7461ZM35.6318 36.6525C35.6318 37.5682 35.6189 38.4838 35.6318 39.3995C35.6501 40.4745 36.1985 41.0331 37.2824 41.0477C39.1165 41.0636 40.9506 41.0636 42.7847 41.0477C43.8649 41.0367 44.4206 40.4837 44.4353 39.3995C44.4524 37.5682 44.4524 35.7368 44.4353 33.9055C44.4243 32.8268 43.8704 32.2719 42.7847 32.2572C40.9506 32.2414 39.1165 32.2414 37.2824 32.2572C36.2058 32.2664 35.6556 32.825 35.6318 33.9055C35.6318 34.8211 35.6318 35.7368 35.6318 36.6525Z" fill="white"/>
</g>
<defs>
<clipPath id="clip0_1921_446">
<rect width="47" height="44" fill="white" transform="translate(0.391602)"/>
</clipPath>
</defs>
</svg>
