<svg width="40" height="40" viewBox="0 0 40 40" fill="none" xmlns="http://www.w3.org/2000/svg">
<path d="M8.57708 23.7317C6.12054 18.812 6.73462 14.7133 10.8186 12.287C14.7552 9.9518 18.6182 11.0707 22.217 15.7593L24.1024 14.7924C23.8567 11.5025 23.2549 8.58962 23.5804 5.78621C23.7462 4.38755 25.4228 2.87334 26.7555 1.94292C29.7463 -0.118588 33.7382 0.513841 36.2868 3.11049C39.1364 6.01728 39.1978 9.54434 36.3421 14.093C37.0166 14.4387 37.6371 14.8791 38.1845 15.4005C38.6615 16.1511 39.0509 16.9528 39.3452 17.7904C38.4363 17.8451 37.3493 18.2526 36.6553 17.8998C32.9705 15.9964 28.9971 15.4309 25.5456 17.687C23.2918 19.1587 21.8608 21.9073 20.2395 23.9141C20.7124 24.6438 20.8045 24.8202 20.9273 24.9661L23.5128 28.1223C22.1556 27.9702 20.6817 28.1223 19.478 27.6236C13.6928 25.258 6.58109 27.8182 4.06928 33.3277C3.00683 35.6568 3.49205 36.5446 6.04685 36.5994C9.73166 36.6784 13.4165 36.5325 17.1013 36.6845C18.0041 36.721 18.8761 37.548 19.7605 38.0102C18.8454 38.5575 17.9181 39.5366 17.003 39.5852C13.2261 39.7677 9.43072 39.7312 5.64765 39.6399C1.34871 39.5305 -0.985053 36.3136 1.14599 32.6649C3.03753 29.4723 5.91788 26.8817 8.57708 23.7317ZM14.8105 23.5493C15.4227 23.5557 16.0302 23.4418 16.5976 23.2143C17.1651 22.9867 17.6814 22.65 18.1166 22.2236C18.5518 21.7972 18.8973 21.2895 19.1331 20.73C19.3689 20.1706 19.4902 19.5703 19.4902 18.964C19.513 18.3426 19.409 17.723 19.1845 17.1423C18.9601 16.5615 18.6197 16.0315 18.1838 15.5839C17.7479 15.1363 17.2253 14.7802 16.6473 14.5371C16.0693 14.2939 15.4477 14.1686 14.8197 14.1686C14.1917 14.1686 13.5701 14.2939 12.9922 14.5371C12.4142 14.7802 11.8916 15.1363 11.4557 15.5839C11.0197 16.0315 10.6793 16.5615 10.4549 17.1423C10.2304 17.723 10.1265 18.3426 10.1492 18.964C10.1557 20.1834 10.6499 21.3505 11.5235 22.2099C12.3972 23.0693 13.5791 23.5509 14.8105 23.5493ZM35.4147 8.54704C35.4286 7.32595 34.9621 6.14743 34.1138 5.26098C33.2656 4.37452 32.1023 3.84972 30.8701 3.79766C30.2333 3.7784 29.5993 3.88809 29.0068 4.12002C28.4143 4.35195 27.8759 4.70124 27.4245 5.14647C26.9732 5.5917 26.6184 6.12351 26.3819 6.7093C26.1454 7.29508 26.0322 7.92249 26.0492 8.55313C26.0425 9.15884 26.1588 9.75972 26.3913 10.32C26.6238 10.8803 26.9676 11.3886 27.4025 11.8146C27.8374 12.2407 28.3543 12.5758 28.9226 12.8001C29.4909 13.0243 30.0988 13.1332 30.7104 13.1201C31.9453 13.1266 33.1326 12.6496 34.0138 11.793C34.895 10.9364 35.3985 9.76966 35.4147 8.54704Z" fill="white"/>
<path d="M28.8126 37.0552C31.3674 33.5403 33.6151 30.293 36.0594 27.1977C36.6735 26.4193 37.9017 26.1153 38.8536 25.5923C38.7308 26.7112 38.9642 28.0247 38.4176 28.9004C36.5015 31.8924 34.3705 34.7505 32.2149 37.5843C30.2558 40.1627 28.094 40.3877 25.6743 38.314C24.1851 37.0744 22.7932 35.7246 21.5105 34.2761C21.0499 33.741 21.1788 32.7194 21.0376 31.9227C21.8544 31.9775 22.9169 31.7282 23.4512 32.1417C25.2015 33.516 26.7552 35.1336 28.8126 37.0552Z" fill="white"/>
</svg>
