<svg width="34" height="33" viewBox="0 0 34 33" fill="none" xmlns="http://www.w3.org/2000/svg">
<path d="M15.8977 32.8247C15.0095 32.8167 14.1275 32.6788 13.2814 32.4158C10.1431 31.1766 7.18945 30.6065 3.99388 32.4963C2.377 33.4505 1.21205 32.3786 1.65765 30.6065C2.51701 27.2173 2.04595 24.1441 1.02108 20.7673C-1.76709 11.7831 4.38216 2.67494 13.7524 1.10735C23.5811 -0.540787 32.4676 6.00221 33.2888 15.5007C34.0845 24.7947 26.3756 32.8619 15.8977 32.8247ZM5.25427 28.2644C7.37405 28.6858 9.66568 28.884 11.7664 29.6152C14.7164 30.6632 17.9399 30.7313 20.9339 29.8089C23.9279 28.8864 26.524 27.0253 28.3171 24.5159C29.6673 22.6194 30.5021 20.4211 30.7436 18.1258C30.9851 15.8306 30.6254 13.5132 29.6981 11.3897C28.7709 9.26633 27.3062 7.40606 25.4408 5.98246C23.5753 4.55887 21.3698 3.61831 19.03 3.24849C16.6902 2.87868 14.2923 3.09168 12.0599 3.8676C9.82754 4.64352 7.83343 5.95707 6.26352 7.6858C4.69361 9.41452 3.59901 11.5021 3.08192 13.7538C2.56483 16.0055 2.64211 18.348 3.30641 20.5628C4.10212 23.2271 4.70046 25.9409 5.25427 28.2644Z" fill="white"/>
<path d="M16.4574 8.22021C18.5008 9.80639 20.4551 10.6366 21.1299 12.0431C21.7665 13.3257 21.2953 15.3518 20.7351 16.8388C20.175 18.3259 18.9464 19.5465 17.8961 20.7919C17.5778 21.176 16.7439 21.554 16.4002 21.4115C16.0564 21.269 15.5026 20.2962 15.6617 19.9926C16.3556 18.6481 17.3678 17.4646 18.0807 16.1325C18.5581 15.2279 19.0674 14.1126 18.9209 13.1894C18.8255 12.6193 17.3805 11.7333 16.7948 11.8882C15.8591 12.1361 15.1334 13.1274 14.3058 13.809C13.7074 14.2985 13.0836 14.7694 12.4725 15.2465C12.2943 14.4224 11.6832 13.2823 12.0269 12.83C13.1791 11.2996 14.6687 10.0171 16.4574 8.22021Z" fill="white"/>
<path d="M16.5341 26.2753C18.6602 26.2753 18.6602 23.0596 16.5341 23.0596C14.4079 23.0596 14.4079 26.2753 16.5341 26.2753Z" fill="white"/>
</svg>

