<svg width="29" height="37" viewBox="0 0 29 37" fill="none" xmlns="http://www.w3.org/2000/svg">
<path d="M0.361322 18.6427C0.361322 14.9095 0.361322 11.1708 0.361322 7.41525C0.396633 2.97482 2.04308 0.852836 5.48154 0.81354C8.78759 0.779858 12.1024 0.774244 15.3997 0.81354C19.9107 0.869677 20.6346 5.21469 20.1667 9.35199C20.1181 9.76179 19.5929 10.4074 19.3413 10.3681C18.9264 10.3119 18.5468 9.80671 18.1804 9.43621C18.0921 9.34639 18.1054 9.08816 18.0789 8.87484C17.1961 3.58112 17.1961 3.58109 12.844 3.58109C10.4207 3.58109 7.98864 3.626 5.5698 3.58109C3.56145 3.53618 2.55951 4.70386 2.55951 7.25809C2.55951 14.9189 2.55951 22.591 2.55951 30.2743C2.55951 32.8509 3.57029 33.9793 5.57864 33.9456C8.73461 33.8951 11.895 33.9456 15.0554 33.9456C17.3683 33.9175 17.9465 33.1148 18.0525 30.0553C18.0525 29.4041 17.9951 28.6687 18.2113 28.141C18.3368 27.8902 18.5029 27.6763 18.6985 27.5137C18.8941 27.3511 19.1147 27.2434 19.3457 27.1979C19.5973 27.1642 20.1226 27.8098 20.1667 28.2196C20.639 32.3962 19.8798 36.7019 15.3952 36.7524C12.0142 36.7974 8.63014 36.7974 5.24317 36.7524C2.08279 36.6963 0.387851 34.507 0.352539 30.4258C0.330469 26.4962 0.365736 22.5666 0.361322 18.6427Z" fill="white"/>
<path d="M25.2782 20.3042H14.4552C13.8682 20.3042 13.2282 20.4726 12.6896 20.2256C12.1511 19.9786 11.7671 19.3274 11.3125 18.8502C11.7539 18.4011 12.235 17.5872 12.7073 17.5703C16.009 17.4524 19.3282 17.503 22.6254 17.4973H24.9869C24.9753 17.2068 24.9322 16.9196 24.8589 16.644C24.3204 15.5943 22.7491 14.7859 24.0203 13.3207C24.2983 13.0064 25.9006 14.0786 26.5936 14.9094C29.4317 18.3226 28.7432 22.5609 25.0928 24.5818C24.7706 24.7615 24.082 24.7053 23.9496 24.4359C23.8256 24.18 23.7457 23.8936 23.7152 23.5955C23.6848 23.2974 23.7045 22.9945 23.7731 22.7068C24.0291 21.9939 24.5499 21.4325 25.2782 20.3042Z" fill="white"/>
</svg>
