<svg width="39" height="37" viewBox="0 0 39 37" fill="none" xmlns="http://www.w3.org/2000/svg">
<path d="M32.0153 7.27962C31.6602 10.4607 32.8652 12.4712 35.7254 13.2792C38.7189 14.119 38.332 16.5621 38.3257 18.6998C38.3194 20.8375 38.5794 23.1534 35.5225 23.9742C32.4656 24.7949 31.1909 27.0026 31.971 30.0692C32.7701 33.2503 30.4361 34.0965 28.5145 35.318C26.5928 36.5396 24.9058 37.0613 22.908 35.0444C20.9103 33.0276 18.126 33.0149 16.1283 35.1908C13.8832 37.6403 11.9615 36.3551 9.95105 35.1908C7.94059 34.0265 5.90481 32.9831 6.82442 29.8274C7.69329 26.8626 6.32974 24.5785 3.26015 23.8278C0.190562 23.0771 0.311019 20.8821 0.361756 18.6617C0.412493 16.4412 0.063729 13.9663 3.1904 13.0311C6.6532 11.994 7.22399 10.3271 6.99567 6.52884C6.92591 5.25639 8.10549 3.47497 9.24073 2.64152C10.9024 1.41997 12.9826 -0.5396 15.1833 1.41361C18.1451 4.00305 20.5361 3.73584 23.6247 1.45815C24.6648 0.688318 27.3158 1.62995 28.9965 2.34888C31.0577 3.2396 33.0301 4.60748 32.0153 7.27962ZM19.4642 12.3121C18.2045 12.2856 16.9656 12.6361 15.9052 13.3188C14.8449 14.0016 14.0113 14.9857 13.5108 16.1456C13.0103 17.3056 12.8655 18.5888 13.095 19.8317C13.3245 21.0745 13.9177 22.2206 14.7991 23.1238C15.6806 24.027 16.8102 24.6463 18.044 24.9028C19.2777 25.1593 20.5597 25.0414 21.7263 24.5641C22.893 24.0867 23.8914 23.2715 24.5944 22.2226C25.2973 21.1736 25.6729 19.9384 25.6732 18.6744C25.6623 17.0133 25.0088 15.4214 23.8505 14.2345C22.6921 13.0475 21.1194 12.3583 19.4642 12.3121Z" fill="white"/>
</svg>
