<svg width="39" height="39" viewBox="0 0 39 39" fill="none" xmlns="http://www.w3.org/2000/svg">
<g clip-path="url(#clip0_923_1006)">
<path d="M8.20873 23.0183C5.75281 18.0984 6.36681 13.9996 10.4498 11.5731C14.3854 9.23782 18.2473 10.3568 21.8452 15.0456L23.7302 14.0786C23.4846 10.7886 22.8828 7.87559 23.2083 5.07206C23.374 3.67334 25.0502 2.15907 26.3826 1.22862C29.3726 -0.832977 33.3635 -0.200522 35.9115 2.39623C38.7604 5.30314 38.8218 8.83035 35.9668 13.3792C36.6411 13.7249 37.2615 14.1653 37.8087 14.6868C38.2856 15.4374 38.6749 16.2391 38.9691 17.0767C38.0605 17.1315 36.9737 17.5389 36.2799 17.1862C32.5653 15.2827 28.6236 14.7172 25.173 16.9734C22.9197 18.4451 21.4891 21.1938 19.8682 23.2007C20.341 23.9305 20.4331 24.1068 20.5559 24.2528L23.1407 27.409C21.7838 27.257 20.3103 27.409 19.1069 26.9103C13.3232 24.5447 6.21332 27.105 3.70214 32.6147C2.63995 34.9439 3.12498 35.8318 5.67914 35.8865C9.36301 35.9656 13.0469 35.8196 16.7308 35.9716C17.6333 36.0081 18.5052 36.8352 19.3893 37.2974C18.4745 37.8447 17.5781 38.8238 16.6326 38.8725C12.8566 39.0549 9.06219 39.0184 5.28007 38.9272C0.982212 38.8177 -1.35092 35.6007 0.779588 31.9518C2.67065 28.7591 5.5502 26.1684 8.20873 23.0183ZM14.4406 22.8358C15.0527 22.8423 15.66 22.7284 16.2273 22.5009C16.7947 22.2733 17.3108 21.9366 17.7459 21.5101C18.181 21.0837 18.5264 20.576 18.7621 20.0165C18.9979 19.457 19.1192 18.8567 19.1192 18.2504C19.1419 17.629 19.038 17.0094 18.8136 16.4286C18.5892 15.8478 18.2489 15.3177 17.8131 14.8701C17.3772 14.4225 16.8548 14.0665 16.2769 13.8233C15.6991 13.5801 15.0777 13.4548 14.4499 13.4548C13.822 13.4548 13.2006 13.5801 12.6228 13.8233C12.0449 14.0665 11.5224 14.4225 11.0866 14.8701C10.6508 15.3177 10.3105 15.8478 10.0861 16.4286C9.86171 17.0094 9.75776 17.629 9.78052 18.2504C9.78701 19.4698 10.2811 20.637 11.1545 21.4964C12.0279 22.3558 13.2095 22.8375 14.4406 22.8358ZM35.0397 7.83301C35.0535 6.61186 34.5871 5.4333 33.7391 4.54681C32.8911 3.66032 31.728 3.13549 30.4962 3.08344C29.8595 3.06417 29.2256 3.17387 28.6333 3.4058C28.041 3.63774 27.5027 3.98705 27.0514 4.4323C26.6002 4.87755 26.2455 5.40938 26.009 5.99519C25.7726 6.581 25.6594 7.20843 25.6765 7.83909C25.6697 8.44483 25.7861 9.04574 26.0185 9.60605C26.2509 10.1664 26.5947 10.6746 27.0295 11.1007C27.4642 11.5268 27.981 11.8619 28.5491 12.0862C29.1173 12.3105 29.7251 12.4193 30.3366 12.4062C31.5711 12.4128 32.7581 11.9357 33.6391 11.0791C34.52 10.2225 35.0235 9.05568 35.0397 7.83301Z" fill="white"/>
<path d="M28.4395 36.3423C30.9936 32.8273 33.2408 29.5798 35.6844 26.4844C36.2984 25.706 37.5264 25.4019 38.478 24.8789C38.3552 25.9979 38.5886 27.3115 38.0421 28.1872C36.1265 31.1792 33.996 34.0375 31.8409 36.8714C29.8823 39.4499 27.7211 39.6749 25.302 37.6012C23.8132 36.3615 22.4216 35.0116 21.1392 33.5631C20.6788 33.028 20.8077 32.0063 20.6665 31.2096C21.4831 31.2644 22.5453 31.015 23.0794 31.4286C24.8293 32.803 26.3826 34.4206 28.4395 36.3423Z" fill="white"/>
</g>
<defs>
<clipPath id="clip0_923_1006">
<rect width="39" height="39" fill="white"/>
</clipPath>
</defs>
</svg>
