<svg width="84" height="85" viewBox="0 0 84 85" fill="none" xmlns="http://www.w3.org/2000/svg">
<g clip-path="url(#clip0_649_108)">
<path d="M79.8162 42.3681C81.0948 46.2617 82.1463 50.2276 82.9653 54.2455C83.0553 55.2641 82.9434 56.2906 82.636 57.265C82.3286 58.2393 81.832 59.142 81.1752 59.9203C74.7463 66.7829 68.4351 73.8433 61.2745 79.8481C57.2238 83.2529 52.0494 86.9217 45.9211 82.4875C44.7843 81.6561 42.5499 82.3423 40.812 82.3423C30.0318 82.3774 19.679 78.0876 12.0293 70.416C4.37958 62.7444 0.0590913 52.3188 0.0175781 41.4311C0.0364178 36.0383 1.10697 30.7022 3.16811 25.7274C5.22924 20.7526 8.24057 16.2367 12.0301 12.4376C15.8196 8.63843 20.313 5.63053 25.2537 3.58566C30.1945 1.54078 35.4856 0.499003 40.8251 0.519838C46.156 0.51502 51.4315 1.61326 56.3261 3.7468C61.2207 5.88033 65.6306 9.00394 69.284 12.925C72.9374 16.8461 75.7567 21.4815 77.5681 26.5453C79.3795 31.6092 80.1446 36.9941 79.8162 42.3681ZM71.9109 41.0483C71.0354 27.6928 64.9594 17.7685 52.6374 12.2785C47.0396 9.76236 40.8177 9.02083 34.7938 10.1519C28.7699 11.2829 23.2275 14.2333 18.899 18.6131C9.41259 28.1679 7.06056 39.4515 11.1243 52.4243C16.5209 69.6862 45.5683 83.2661 59.0401 63.3384C60.8561 60.864 63.0171 58.6681 65.4559 56.819C70.5258 52.7411 72.0023 47.3038 71.9109 41.0748V41.0483ZM74.4066 48.1484L76.2621 48.3068C76.9416 46.8815 78.2613 45.443 78.209 44.0441C78.2553 39.6666 77.817 35.2977 76.9023 31.0185C71.9892 12.0938 52.2585 -0.113614 33.5338 3.83234C13.4894 8.05544 0.0306592 26.7822 2.93148 46.4328C5.92376 66.6905 23.8383 81.4053 43.4384 79.4257C45.4376 79.2278 47.3584 77.8157 49.24 76.971C23.6161 75.8097 8.19739 64.3018 6.61631 44.1629C5.93699 35.408 8.59169 26.7213 14.0385 19.8761C19.4853 13.0309 27.3135 8.54335 35.925 7.32958C44.1944 6.08836 52.6191 8.1163 59.4452 12.9912C71.5711 21.477 75.4912 33.6975 74.4066 48.1748V48.1484ZM58.5044 77.7893L76.7978 60.237L71.7933 55.4069L53.8918 72.5632L58.5044 77.7893Z" fill="white"/>
<path d="M40.0802 58.5614C37.689 58.5614 35.2847 58.5614 32.8935 58.5614C29.5484 58.4558 25.6153 59.4984 24.8574 54.2723C24.0995 49.0462 27.0526 43.7145 31.8481 43.1735C37.6675 42.4142 43.5619 42.4541 49.3706 43.2922C54.4797 44.1368 56.5181 48.5711 56.1653 53.85C55.7864 59.6039 51.4613 58.4822 47.9072 58.5877C45.2938 58.6273 42.6805 58.5614 40.0802 58.5614Z" fill="white"/>
<path d="M49.6059 30.7945C49.5729 33.2161 48.6129 35.5307 46.9271 37.253C45.2413 38.9752 42.9608 39.9714 40.5637 40.0325C38.1651 40.0025 35.8715 39.0339 34.1656 37.3306C32.4596 35.6274 31.4743 33.3222 31.417 30.9001C31.4434 28.4788 32.3995 26.1623 34.0839 24.439C35.7682 22.7156 38.0492 21.7201 40.4461 21.6621C42.846 21.6921 45.1411 22.6602 46.8491 24.3631C48.5571 26.0661 49.5453 28.3713 49.6059 30.7945Z" fill="white"/>
</g>
<defs>
<clipPath id="clip0_649_108">
<rect width="83" height="84" fill="white" transform="translate(0.0175781 0.506836)"/>
</clipPath>
</defs>
</svg>
