<svg width="85" height="86" viewBox="0 0 85 86" fill="none" xmlns="http://www.w3.org/2000/svg">
<g clip-path="url(#clip0_649_92)">
<path d="M25.6858 70.5207C20.2266 70.5207 14.7544 70.6665 9.29522 70.5207C2.73375 70.2955 0.109159 67.6984 0.109159 61.1528C0.00417579 43.9276 0.109159 26.7023 0.109159 9.47708C0.109159 3.5145 3.14056 0.546453 9.03277 0.533203C16.4604 0.533203 23.8879 0.533203 31.3418 0.533203C36.9846 0.533203 39.7798 3.52775 40.4491 8.85432C42.7587 27.4046 44.9634 46.0476 47.3124 64.6376C47.8504 68.8247 46.7088 70.8388 42.1551 70.6135C36.6172 70.322 31.1449 70.5207 25.6858 70.5207ZM13.4946 47.9954L15.9617 48.1809C16.4314 46.3671 17.1096 44.615 17.9826 42.9604C19.3578 41.2173 20.8768 39.595 22.5232 38.1108C23.949 39.5968 25.2855 41.1675 26.5257 42.8146C27.6031 44.5766 28.5717 46.4042 29.4258 48.2869L31.4861 47.7304C31.6636 45.7204 31.6636 43.6984 31.4861 41.6883C30.4922 35.3792 29.1782 29.1257 27.5492 22.9526C26.9981 21.0578 24.2029 18.4342 22.6413 18.5667C21.4365 18.8027 20.3051 19.3263 19.3417 20.0939C18.3783 20.8615 17.6108 21.8508 17.1034 22.979C15.3985 29.357 14.0621 35.8296 13.1009 42.3641C13.0116 44.2283 13.1438 46.0967 13.4946 47.9292V47.9954Z" fill="white"/>
<path d="M46.1445 15.6652C56.7084 15.6652 66.695 15.4134 76.6685 15.7711C81.4977 15.9434 83.9911 19.3222 84.0042 24.238C84.0042 41.6311 84.0042 59.0286 84.0042 76.4305C84.0042 82.4064 80.9072 85.3082 75.0412 85.3214H40.0029C43.2049 81.5584 45.4883 78.5638 48.1129 75.9005C51.8136 72.1375 52.7716 67.9504 52.0498 62.6503C49.8189 47.2669 48.1129 31.7774 46.1445 15.6652ZM62.2857 52.6597L57.6402 61.9349L66.9575 58.9403L75.8023 61.9349C74.3457 59.0993 72.8759 56.277 71.0387 52.6597L79.0962 39.5553C75.5792 38.3097 71.5374 37.9917 69.359 35.8055C66.7344 33.1554 65.9339 31.8304 64.1098 36.097C63.6505 37.1437 61.3802 37.422 59.9104 37.952C58.0864 38.5748 56.236 39.065 54.3857 39.6215L62.2857 52.6597Z" fill="white"/>
<path d="M32.4178 85.5066L28.2578 75.834H41.3808L32.4178 85.5066Z" fill="white"/>
<path d="M64.8319 47.3726L61.958 40.668H71.0129L64.8319 47.3726Z" fill="white"/>
<path d="M23.9931 26.729L26.7882 33.4601L17.7334 33.3541L23.9931 26.729Z" fill="white"/>
</g>
<defs>
<clipPath id="clip0_649_92">
<rect width="84" height="85" fill="white" transform="translate(0.0175781 0.506836)"/>
</clipPath>
</defs>
</svg>



