<svg width="148" height="22" viewBox="0 0 148 22" fill="none" xmlns="http://www.w3.org/2000/svg">
<path d="M10.447 0.613281L12.8843 8.62856H20.7718L14.3907 13.5823L16.828 21.5976L10.447 16.6438L4.06588 21.5976L6.50323 13.5823L0.122157 8.62856H8.0096L10.447 0.613281Z" fill="#33C6F4"/>
<path d="M42.1598 0.613281L44.5972 8.62856H52.4846L46.1036 13.5823L48.5409 21.5976L42.1598 16.6438L35.7788 21.5976L38.2161 13.5823L31.835 8.62856H39.7225L42.1598 0.613281Z" fill="#33C6F4"/>
<path d="M73.8718 0.613281L76.3091 8.62856H84.1966L77.8155 13.5823L80.2528 21.5976L73.8718 16.6438L67.4907 21.5976L69.928 13.5823L63.547 8.62856H71.4344L73.8718 0.613281Z" fill="#33C6F4"/>
<path d="M105.585 0.613281L108.022 8.62856H115.909L109.528 13.5823L111.966 21.5976L105.585 16.6438L99.2036 21.5976L101.641 13.5823L95.2599 8.62856H103.147L105.585 0.613281Z" fill="#33C6F4"/>
<path d="M137.297 0.613281L139.734 8.62856H147.621L141.24 13.5823L143.678 21.5976L137.297 16.6438L130.915 21.5976L133.353 13.5823L126.972 8.62856H134.859L137.297 0.613281Z" fill="#33C6F4"/>
</svg>
