<svg width="149" height="22" viewBox="0 0 149 22" fill="none" xmlns="http://www.w3.org/2000/svg">
<path d="M11.0944 0.298828L13.5318 8.31411H21.4192L15.0381 13.2678L17.4755 21.2831L11.0944 16.3294L4.71334 21.2831L7.15069 13.2678L0.769618 8.31411H8.65706L11.0944 0.298828Z" fill="#33C6F4"/>
<path d="M42.8073 0.298828L45.2447 8.31411H53.1321L46.751 13.2678L49.1884 21.2831L42.8073 16.3294L36.4262 21.2831L38.8636 13.2678L32.4825 8.31411H40.37L42.8073 0.298828Z" fill="#33C6F4"/>
<path d="M74.5192 0.298828L76.9566 8.31411H84.844L78.4629 13.2678L80.9003 21.2831L74.5192 16.3294L68.1381 21.2831L70.5755 13.2678L64.1944 8.31411H72.0819L74.5192 0.298828Z" fill="#33C6F4"/>
<path d="M106.232 0.298828L108.669 8.31411H116.557L110.176 13.2678L112.613 21.2831L106.232 16.3294L99.851 21.2831L102.288 13.2678L95.9073 8.31411H103.795L106.232 0.298828Z" fill="#33C6F4"/>
<path d="M137.944 0.298828L140.381 8.31411H148.269L141.888 13.2678L144.325 21.2831L137.944 16.3294L131.563 21.2831L134 13.2678L127.619 8.31411H135.507L137.944 0.298828Z" fill="url(#paint0_linear_1669_162202)"/>
<defs>
<linearGradient id="paint0_linear_1669_162202" x1="132.266" y1="11.8987" x2="146.457" y2="11.8987" gradientUnits="userSpaceOnUse">
<stop offset="0.0681424" stop-color="#33C6F4"/>
<stop offset="0.56368" stop-color="#E5E5E5"/>
</linearGradient>
</defs>
</svg>
