<svg width="20" height="20" viewBox="0 0 20 20" fill="none" xmlns="http://www.w3.org/2000/svg">
<g clip-path="url(#clip0_976_270)">
<path d="M3.33025 2.87942L5.28769 0.603516L7.10822 2.74667H12.9991L14.7641 0.611109L16.4958 2.78459C19.9815 3.16391 19.9815 3.16391 19.9852 7.1695C19.9852 10.5834 19.9519 13.9972 19.9852 17.4111C20.0074 19.0649 19.2451 19.6339 17.7169 19.6225C12.5365 19.5846 7.36356 19.5846 2.19797 19.6225C0.632753 19.6225 -0.0221958 18.9625 -0.0221958 17.3466C0.0222075 13.4358 -0.0221958 9.52127 -0.0221958 5.58775C-0.0221958 3.20184 0.288628 2.90219 2.66051 2.86805L3.33025 2.87942ZM0.669754 8.27712C0.669754 11.5734 0.621644 14.7255 0.732653 17.8435C0.732653 18.2418 1.58742 18.9321 2.05365 18.9397C7.34135 19.0194 12.629 19.0118 17.9204 18.9397C18.383 18.9397 19.2341 18.3708 19.2452 18.0483C19.3451 14.809 19.3043 11.562 19.3043 8.26573L0.669754 8.27712ZM7.09713 3.52806L5.358 5.53087L3.40426 3.58117C0.444043 3.3991 0.203526 3.70254 0.884377 7.45778H19.1933C19.6226 3.45978 19.4635 3.28531 16.4699 3.63428C15.9766 4.29512 15.4308 4.91298 14.8381 5.48155C14.7086 5.58776 13.8501 5.18187 13.8316 4.96566C13.6651 3.06908 12.3108 3.55082 11.2414 3.53186C9.75024 3.5053 8.27012 3.52806 7.09713 3.52806ZM5.80204 1.43045L5.00647 1.33562V4.77223L5.62811 4.79876L5.80204 1.43045ZM15.0971 0.99802C13.8279 2.53805 13.8834 3.92634 15.0971 4.87463V0.99802Z" fill="white"/>
</g>
<defs>
<clipPath id="clip0_976_270">
<rect width="20" height="19" fill="white" transform="translate(0 0.611328)"/>
</clipPath>
</defs>
</svg>
